<mxfile host="app.diagrams.net" modified="2024-05-24T11:53:13.532Z" agent="Mozilla/5.0 (Windows NT 10.0; Win64; x64) AppleWebKit/537.36 (KHTML, like Gecko) Chrome/121.0.0.0 Safari/537.36" etag="IyrsZ-DVWXoGWvZX3fE4" version="24.4.7" type="device">
  <diagram name="PÃ¡gina-1" id="mzxPOSd9Qhkl5ZzT4hSU">
    <mxGraphModel dx="1434" dy="782" grid="1" gridSize="10" guides="1" tooltips="1" connect="1" arrows="1" fold="1" page="1" pageScale="1" pageWidth="827" pageHeight="1169" math="0" shadow="0">
      <root>
        <mxCell id="0" />
        <mxCell id="1" parent="0" />
        <mxCell id="qWG0CHhSVfPLn8Tg9nle-1" value="" style="shape=image;html=1;verticalLabelPosition=bottom;verticalAlign=top;imageAspect=1;aspect=fixed;image=data:image/jpeg,/9j/4AAQSkZJRgABAQAAAQABAAD//gA7Q1JFQVRPUjogZ2QtanBlZyB2MS4wICh1c2luZyBJSkcgSlBFRyB2NjIpLCBxdWFsaXR5ID0gODIK/9sAQwAGBAQFBAQGBQUFBgYGBwkOCQkICAkSDQ0KDhUSFhYVEhQUFxohHBcYHxkUFB0nHR8iIyUlJRYcKSwoJCshJCUk/9sAQwEGBgYJCAkRCQkRJBgUGCQkJCQkJCQkJCQkJCQkJCQkJCQkJCQkJCQkJCQkJCQkJCQkJCQkJCQkJCQkJCQkJCQk/8AAEQgCpwNSAwEiAAIRAQMRAf/EAB8AAAEFAQEBAQEBAAAAAAAAAAABAgMEBQYHCAkKC//EALUQAAIBAwMCBAMFBQQEAAABfQECAwAEEQUSITFBBhNRYQcicRQygZGhCCNCscEVUtHwJDNicoIJChYXGBkaJSYnKCkqNDU2Nzg5OkNERUZHSElKU1RVVldYWVpjZGVmZ2hpanN0dXZ3eHl6g4SFhoeIiYqSk5SVlpeYmZqio6Slpqeoqaqys7S1tre4ubrCw8TFxsfIycrS09TV1tfY2drh4uPk5ebn6Onq8fLz9PX29/j5+v/EAB8BAAMBAQEBAQEBAQEAAAAAAAABAgMEBQYHCAkKC//EALURAAIBAgQEAwQHBQQEAAECdwABAgMRBAUhMQYSQVEHYXETIjKBCBRCkaGxwQkjM1LwFWJy0QoWJDThJfEXGBkaJicoKSo1Njc4OTpDREVGR0hJSlNUVVZXWFlaY2RlZmdoaWpzdHV2d3h5eoKDhIWGh4iJipKTlJWWl5iZmqKjpKWmp6ipqrKztLW2t7i5usLDxMXGx8jJytLT1NXW19jZ2uLj5OXm5+jp6vLz9PX29/j5+v/aAAwDAQACEQMRAD8A+qaKKKACiiigAooooAKKKKACiiigAooooAKKKKACiiigAooooAKKKKACiiigAooooAKKKKACiiigAooooAKKKKACiiigAooooAKKKKACiiigAooooAKKKKACiiigAooooAKKKKACiiigAooooAKKKKACiiigAooooAKKKKACiiigAooooAKKKKACiiigAooooAKKKKACiiigAooooAKKKKACiiigAooooAKKKKACiiigAooooAKKKKACiiigAooooAKKKKACiiigAooooAKKKKACiiigAooooAKKKKACiiigAooooAKKKKACiiigAooooAKKKKACiiigAooooAKKKKACiiigAooooAKKKKACiiigAooooAKKKKACiivKf2lPEGr+HvhuJNF1G5024u9Qt7Rrm2cpKiOTnaw5U8Dkc0AerUV43/wzxqf/AEV/4i/+DRqP+GeNT/6K/wDEX/waNQB7JRXgXjH4Kaz4a8I65rlv8WviFLNpun3F5Gj6o+1mjjZwDg5wSO1R+BvgzrXivwZoev3PxZ+IMM+pWMN3JHHqj7VZ0DEDJzjnvQB9A0V8/wBhouv/AAw+N3gvQl8deJtf0/Xob37TDq12ZlHlwll2g8A5AOevGOhNfQFABRTXdY1LMwVRySTgCiOVJkDxuroejKcg/jQA6iiopLqCJxHJPEjt0VnAJ/CgCWiiigAoqOa4htwDNLHEDwC7AZ/OnqwcBlIIPQg8GgBaKKKACio3uIY5FjeWNXf7qlgCfoK+d/DHhbxD8XPF/jy5vPiL4u0aPSNeuNOtrbTL1ooliRiF+UcA4A579TzQB9GUV8z/ABc8C+I/hF4OfxdpXxR8b313Z3MASC+1BpIX3OAdy9GHseDX0xQAUVC15bLL5LXEQlP8Bcbvy61NQAUUVwfxb+Jp+HelWcOnWJ1XxFq832TStPU/66U4+ZuQdi5GcdyBkZyADvKK8TtfgR4i8ZoL/wCJvjzW7u6m+c6ZpM/2eztyf4QMHdgcZAB9z1MzfsteFbMGXQPEHivQrxeUuLTUTkN6kEc/gR9aAPZqK8U8O+NPGXww8Yaf4L+I15HrOlatJ5GkeI1QIzS8AQzgdGOQATk5PVhkr7XQAUVC95bRyCJ7iFZD/AXAP5VNQAUV88ad4d8QfFn4m+PoLj4geK9DttDvorW1ttKvGhiCFW6qOM/JnPU5Oai+Jnwr134feBdW8UWPxX8e3N1psayxxT6k5jY71GCM8jnpQB9GUVjeDL+81XwfoWoai0b3t1p9vPcNGMKZGjVmIHYZJxWpJd28UgjkniR26KzgE/hQBLRRRQAUVFNcwWwBnmjiB6F2C5/Ono6yKGRgynoQcg0AOooooAKKKKACiiigAooooAKKKKACiiigAooooAKKKKACiiigAooooAKKKKACiiigAooooAKKKKACiiigAooooAKKKKACiiigAooooAKKKKACiiigAooooAKKKKACiiigAooooAKKKKACiiigAooooAKKKKACiiigAooooAKKKKACiiigAooooAK84+PngjWfHvgE6doEcM2o295BeRwyyBBNsJyoY8A855wOK9HooA8Y0D4t/EGP4keH/B/jLwTp+iLrSzvFNDfLO2Iomc4CkjqoHOOtez1438Qf+TkPhb/176l/6TtXslAHzR4t+MfxD8XeEfHkWmeB9Pm8P2H2/SbvUPtyq8ShCrMI2IJIRg2ACDnAzW58NfgRo2t/D7w3qc3ifxlBJd6bbzNFbau0cSFowSFUD5VGeB2rC8H/APJEvjV/2GNX/wDRSV7P8G/+STeD/wDsD2n/AKKWgD5o+PXw5s/BfjrwRYWOueIrldTlaGWW9v2lljUyRoRG2BtyrkH1r2P/AIZW8F/9Bnxb/wCDP/7GuJ/aq/5Kb8M/+vr/ANrw19N0AeE6T+ytosl/fL4j1zXNT0RZy2n6U98+yNdoBeQjGXJB+7jAxkntT8a/CyT4HaVP46+GWo39lHppWbUNEuLhpbW8gyA3DHIYA5ySTgHGD1s/DDUrq4/aZ+JMEs0jxi3i2qzEhQnlqAB9Ca9K+MKh/hR4xB/6A12fyhY0AeXReLPE37RmtTaf4Q1e88M+CrBYxfalACt3eTMu4wxt/CBnBwfc5BArfh/ZR+F4iIu9O1G/uG+9c3OoS+Yx9TtIGfwo/ZO06Ky+CekzxoFa9uLm4kP95hM0efyjA/Csr9pHUbqy8X/CpLeeSNW19XYKxAYiSEDPrwzD8TQA/U/gr4j+Gdu+tfCbxLqga2Bkfw9qMvn2t2o5KIONrEZA7knhlrJh+MHiL47ahpvhPwDcSeGi9kbrXtRdC0tiQ2wwxZxk5xhhgkMOVw1fRNfP/wABbOz0341/FuziCo/22OSJBgYQySs2B6Asv6UAbtt+yp8PHJl1oazr96/+su7/AFCQyOfX5Cv9fxqvefs2W/h1Hv8A4Z+KNa8LapHloojcma0lOPuyIwJIJxycgf3TW7+0X4T1/wAZfC+903w2kst8k0VwbeN9rTohyVHqehA77fXFczpf7U3gXRdOstJ1j+3YdVtIIoLqKSwYOJlUBgQTnOc9aAO0+DnxEvfHei31trtmlj4k0O6aw1S2T7okHR15Pytg9+oOOMGs/wCN3jDXdKHh/wAIeFJ1tde8VXbWsN4wz9khQAyyD/aAYY9s45Arnf2fdRXxJ49+JfijT7W8i0bVbqza1luITH5jKkm8AHuCwz9RV74ifP8AtGfCxG+6IdSYD38hv8BQAlt+yn4Alt2fXG1jXdUlGZ9Su76QSyP3bCkD6Zz7k9a6f4T/AAntvhPHrdpY6lcX1nqN2LqI3ODNH8oBVmHDcjOcDr07nvq8C/ZG1C6vtD8Xm5uJZj/bcknzsW+ZlGTz64oA2f2tf+SL6h/1923/AKMFYml/8JZ+0be3epx6/qPhf4fQzPb2kWnsYrrVNpwzs56LntyBjGCQTW3+1t/yRbUP+vu2/wDRgrr/AIK6fFpnwk8IQQoEVtKt5yB/ekQSMfxLE/jQByafsn/CsQlJNIvppT1ne/m3k+vDAZ/CsLX/AAd4v+Ads3ibwTreo694Ys/n1Dw/qcvmtHCPvPC+PlwMngDAGTuGRW7400TxNc/tFeB9XsbG+k0SzsZ47q4jBMMbOswIY9Mn5P0r1y6tor22ltZ0EkMyGN1PRlIwR+RoAo+GvENh4s0Cw13S5TJZX8KzxMRggEdCOxByCOxBryu5Rdb/AGrrWK4G+PRPDDXMCnokjzbGYe5WTH4VN+ytNIvwtbTXcsNL1S7s1B6qA4fH5uT+NR6R/wAnYa5/2Kif+j4qAPW9UumsdMu7pQC0ELyAHoSqk/0rxf8AZR8feIvHnhfXJ/Eepy6lcW1+BHLKACqsgO3gDgEEgds17F4i/wCRf1T/AK9Jf/QDXyP+zT8U9O+GHhzVItY0TxFcrqVws9vLY2JljZFBQ/MSP4gRxnoaAPav2qbIS/B6/wBSQ7bjSbu0vYHHVX85Y8j8JDXOaLJ4w/aTeTU21a/8JeAonaGGGwfZd6mynDMz9kzkdxkYwSCRi/Gn49+H/G3wx1zQLDQfFMFzdxx7JLrT9kS7JUclm3HAwp7V6v8AA+40zTfhH4Ttxd2kZ/s6KRlMqghnG9sjPXLGgDEj/ZR+FSxbZdGvbiQ9ZpL+beT6nDAZ/CsPxD8LPEnwasZPE/wx1/VLmzsAZ7zw7qU5mgnhUZby+AVYAZ/vHnB/hKaxfX19+154bGnzyz2MOhyC58li0aIVuD82OBl/L699vtXvMsSTxPFIMo6lWHqD1oA8G/Zl8S23jHxT8SPENmjxwaje2twsb/eTckmVPuDkfhXa/tF/8kV8Vf8AXsn/AKNSvKf2JIvItvGkROdlxarn6CUV6t+0X/yRXxV/17J/6NSgDzTwXfeMfjvpFjpei6rd+FfBOj20Fjc3tqSt5qUyRKHVG/gQfyIyDnC9lD+yj8LhERdaZqF7O33rmfUJfMY+p2kDP4Vf/Zlso7L4I+GgiBTKk8zkfxFp3OT+GB+Fcr+0RrE2lfE/4QsLw2tuNXdpmMmxNvm26sWOcY2sw57E0AGu/DnxZ8E7Z/Evw413UdU0eyUzX3hvU5jKjwjljC2PlIHOAM8dW+6W3PxV1/44apb+F/hheNo9j9kiutY1uRCZbMOM+RGBx5nUZB5IOCApJ9ifxj4WkRkfxForKwwQb2Igg9vvV4j+yNBpei6L4uxc20Z/tprZGaQZeONBt5zyPmPP1oA6e1/ZV+HrjzdbXWfEF6w/eXd/qEnmOe5+Qr/X6mq1/wDs0afoUcl98N/EWt+FdXjG+ELdtJbSMOiyI2SQenUj2PSsv9rbVLq48HeHbbQLt5r+TXIjFHZybpGcRybcBTn72Me+K9/oA88+DfxE1DxvpOoaf4htEsvE+gXJsdUgT7pfnbIvs2G6cZU44xXodeNeAv8AQ/2kviVapxHc2en3JH+0IlH82P517LQAUUUUAFFFFABRRRQAUUUUAFFFFABRRRQAUUUUAFFFFABRRRQAUUUUAFFFFABRRRQAUUUUAFFFFABRRRQAUUUUAFFFFABRRRQAUUUUAFFFFABRRRQAUUUUAFFFFABRRRQAUUUUAFFFFABRRRQAUUUUAFFFFABRRRQAUUUUAFFFFABRRRQAUUUUAeN/EH/k5D4W/wDXvqX/AKTtXsleN/EH/k5D4W/9e+pf+k7V7JQB8z+D/wDkiXxq/wCwxq//AKKSvZ/g3/ySbwf/ANge0/8ARS14x4P/AOSJfGr/ALDGr/8AopK9n+Df/JJvB/8A2B7T/wBFLQB4r+1V/wAlN+Gf/X1/7Xhr6br5k/aq/wCSm/DP/r6/9rw19N0AfPnwp/5Oh+JX/XuP/Qoq9W+L3/JKfGP/AGBbz/0S9cF8O/CGtaV+0N8QdbvNOuodNvIIhbXTxkRTlthIVuhI2kEDp3ruPjLOtv8ACbxg7kAHSLpMn1aNlH6mgDnf2Xf+SFeGf+3v/wBK5q5T9p3/AJHL4Uf9hz/2rb1u/sm6nDf/AAV0u3jcM9hc3NvIAfusZWkwfwkU/jUPx/8ACWt+JPFPw0udK025vIbDXFe6eGMsLdC8R3vj7qgI2SePzoA9or4q17xjN8Ovjb438WaZrllb6laagYTpN1HIV1O3YZdQ6ghWBVCMkc854wftWvl/4Eahofi746/Ekz21lfxXUslxamaJZA0aTldy7geoZT+IoA9Z+Fnx38I/FOBIrG5FhrG3MmmXTASgjqUPSRfcc46gVpfET4ReFviVbhtWsvJ1KIf6Pqlr+7uYGHQhh94A84OR9DzXG/tHeAZL/wCG0jeEPDynVra9gnQaZagXGASCV2DccZB49M9q9N8FLqaeDdBXWvM/tUadbC8805fz/LXfuPruzmgDgfgp4p8Qx6r4i+Hfi+9/tDWfDTx+VfkfNeWsgyjt6sBtyTz8wzkgk0/iD/ych8Lf+vfUv/SdqZ4SK3n7UHji4gIMdro9rbTFeR5jCNgD74BH4Gn/ABG/cftEfCud+EaLUowT6+QR/wCzCgD2Svnv9jr/AJAXi/8A7DJ/9AFfQleKfsveENc8JaL4oj1vTbnT5LjWZDEtxGUMiKoG9Qeqk9D0OOKAJ/2tv+SLah/1923/AKMFd18KP+SW+Dv+wHY/+k6Vwv7W3/JFtQ/6+7b/ANGCup+Bmrwa18IfCdxbuHWLTYbVsHo8S+WwP4oaAMP4pfHK5+HfjPSPCdj4Ul16+1aFZIBHeiAl2kZAmChHVeuR1qL/AIWx8Tv+iI6l/wCDmH/4isL4r+CNf1z9oT4fa1YaXd3Gm2axm4u0jJig8uVnO9ui5BGM9e1e53d3BY2s13cyrDbwI0skjnARFGST7AAmgDxj9k65kuvAviCSaBreX/hI7vzIi24oxSIlc98Zxn2qxpPH7WOtg8Z8KIR7jz4qk/ZXglPwyn1OSNkTVtWu76LcOShYLn80NRau40L9qnRLmUhYtd8Oy2UbHjMschkI/JV/OgD1bxF/yL+qf9ekv/oBr5Q/Zx0Lx3488I3NrpHxKv8Aw3p+jz/Z4bWGySZSHLSE53KfvMeuev4V9balam+066tFIUzwvECegypH9a8d/Zb+G3iP4ceF9Yt/E1iLG7u7/fHF5qSEoqABsqSME5x34+lAHMfFfwT8RPA3w81nX7v4t3+s29tEiS2E+mRiO4SSRYyjZdhghzkEHPTvWB8GP2ZtF8daZb+NfFEYtLDUCZrTRdPkkWNYwSAXkdmfBxkANnBHPYel/ta6xDpvwZ1CzkZRJqV1bW0YJ5JWQSnH4Rmuw+CZjb4R+EDHjb/ZUAOPXYM/rmgCO01LwT8N/EWg+AtG022sL3WvNeG2s4QuEjjdzJKepzsKgnJJz6E13VeI+JvCOvXX7VXhPxHFpt1Lo1tpMiS3qxkxQsEuRsZugJMiYB67uOhr26gD5p/YyAWTx4B0F7B/7Wr0/wDaL/5Ir4q/69k/9GpXmH7Gf+u8e/8AX7B/OavT/wBov/kivir/AK9k/wDRqUAJ+zl/yRPwr/17v/6NevM/2tLjTrXxb8O5dV0U65Z+Zeq+nCcwm5J8gKu8cj5iD74x3ruv2WdWh1P4KaJHG4aSxee1mAOdrCVmA/75dT+NYX7SXgTX/F/ij4d3Oi6bcXsFpqLpdPEhYW6u8JDv6LiN8k8DA9RQBw3/AAien/8ARruo/wDg6k/wrC8CfB3Q/jl4r1C50/QP+EH8PaOy293bQXUlzc3Fwc7lDSEqmMdQvGRwc5H2Pd3UFjazXd1KsMECNLJI5wqIBkkn0ABNeD/sf38Wp+GPFd4gw1xrssxB67WjQjP60AdbcaJ8NP2cvCU+vw6PDaiECIT7fNu7qRuiK7c5OCcAhQATgAV6gDkA+teJftZeEte8X+AdKs/D+mXepTxatHJJDbRl2CmORdxA7AsMntn0r20DAA9KAPG/CfH7UPjgDvo1mT+Udey1414U/wCTovG//YFtP5R17LQAUUUUAFFFFABRRRQAUUUUAFFFFABRRRQAUUUUAFFFFABRRRQAUUUUAFFFFABRRRQAUUUUAFFFFABRRRQAUUUUAFFFFABRRRQAUUUUAFFFFABRRRQAUUUUAFFFFABRRmmGRQcZPvQA+g0gYEZFML84AJoAUyEHgZpytuwfWq7EkgggEE9ehqSIEY5yKAJaKKKACiiigAooooAKKKKACiiigAooooAKKKKACiiigDxn4yWHiTSviR4I8caJ4ZvfEVto6XkVxa2RHmAyxlV4wTj5ic4P3cHGRS/8Lz8a/wDRE/Fn/fX/ANhXstFAHgfgHwH4puPgx8QrO90aXTtU8S3mo3lnY3DgSASxKEVv7pLKRzjseAaZ4L+KHjjwj4R0bw9L8HPFNzJplnFaNMhwshRApYDaeDj1r3+igD4/+MniHxL428ZeBdZ1XwLrHhizsdTitBJfciWSSVWABwOcRsfwr7ArkviZ8ObH4m+H4dIvb28sHtrqO9trq0YCSGZAwVhn2Zvzz2rh/wDhQXiP/os/jz/wLb/4qgDM/wCF8+JNC+IHi7Qrjwfq3iTSNJvEVbnSIfMntFdMqroOGUlWwcjGMHPGIvEus+N/j7ar4U0nwjrHhTwzdSIdS1XWY/JmeIMG2RR98kDkEg9DgZz6J8MvhVafDZtXuhrOp63qWsSxyXl9fuGkk2AhB+G5uSSea7mgDw69+Hvi74OeIrvX/hdp1vq2gX4Q3/huSXy2R1GPMgY9yM5HJ56NxtuL+0XdWo8rU/hT8QLW66GOLTvMUn0DErke+K9looA8M1TxR8VPi5bvofh3wneeCNHugY7vWNYO25ER4YRxYBDEZGeevVetWNe+Ac/hqz8Pat8MLyLTfEXh2A26fav9XqcRJZ1mI7lmY56fNjjClfa6KAPF4vjt4u0JRb+L/hF4qguYwBJNpEYvIGPchhgD6bj9abcfGnx34oQ2fgj4Va/DcyjC32vp9lghz/EQeHx1wGB+vSvaqKAOB+Efwzm+H2m6hc6vqP8AaviPWrj7Xql/ggSPzhF6fKuWxwOp4AwBB8ZPh9qfjLT9K1bw3dR2vifw7dfbtNeX7kh43xN2AbavXjgA8EmvRaKAPFof2gPEOnxfYde+EnjJNbQbWisLXz7eRx3WQfwk+gbHqetVNP8AjJ8U7O7vn1r4Qa3NFM6vZw2bAiCLb0dtp3OTyemOmBXulFAHzX8U/Evjz4veE28IW3wo8Q6VLd3MLC6u2HlRhXByxKgAe+a6OXwX46+C+t3+o/Dqwt/EPhXUJjc3Hh2SURS2kh+8YG6Y4AxzxgbTgGvcaKAPGh+0XcwAQ33wp+IUF308qPTd6k+zEgke+KzNW/4WX8d0GiS+H7nwJ4PlYfbprx/9PvI85MapgbAeMgjHuRlT7xRQBS0XR7Hw9pNnpGm2629lZRLBDEvRVUYH1Pqe9cl8WPhoPiLpFo1lftpev6TMLvStRUcwSjHB77TgZ+gPOMHuqKAPE7X4z+OfBkYsfiH8N9bnlhG06p4fiFzBOB/FtyAmeuC34DpUzftKQ6gph8OfDrxzq16fuxNYCKPP+04LbR74xXs1FAHiegfC7xN8R/Ecfi74tJbxRW8bppnhyB98VoHGC8hGQXxzwTyAcjAUZvhzVvHnwCsj4X1LwhqXi3wxbSv/AGdqmjjzZ44mYsEki68ZPJwB0BIxj36igDwrU/jh481e6sbrwx8KfFP9kQThrxry38qe4XBwka84GcEsM9McVof8Lz8a/wDRE/Fn/fX/ANhXsuaKAPk74MTfEL4OvrrXnwt8Q6n/AG3LFcxi3IHlBd/DYDYPz9DgjHSuo+I3j/x38QvBWq+Frf4P+J7KXUo1hWeVgUjO9Tk5Ucceor6JooA+eh4I8Z/Agp4l8GwWGo6RdWsH9uaHc3KwqlwqKrTQyMQBk59eT0YY2978N/jPb/E7wffa9o+hXbXtnOYDpQuIvOlICHcrMyjbh+px90+2W/tBeANR+Ifw8ksNJUTX9jcx38Nq7YS7KBgYm+qscdOQOR1ryDw142+DngjX7XXbLwd4m0LxfbW72x0KOCQlpGGCMMee4ByODkrnoAdBL4k8aftG32p+ErOx/wCEO8N6fcC31t5pg99LzzCFAGzOCD1BweSMqdKXwb4m+BPii91r4f8Ahv8At/wnqUMK3mjW8m25tZI12iSPOS+RkkAEkk5xgGug+BXhfX7R/E3jTxNZHTNU8V3i3P8AZ5+9awIGEat6N87ZB5wBnByB6vQB4dq3x78W61pk9p4N+Ffi8awY2Al1Oz8qC3bHUnJ3EdlOMn8qsW3xv8cxW0Uc3wY8WSyKgV33Y3EDk/c7mvaaKAPFfhNZ+J9e+LXinx3rPhW/8N2d9YW9nDBekeYzptyQMA4wvXHce9e1UUUAFFFFABRRRQAUUUUAFFFFABRRRQAUUUUAFFFFABRRRQAUUUUAFFFFABRRRQAUUUUAFFFFABRRRQAUUUUAFFFFABRRRQAUUUUAFFFFABRRQTgZoAKKjM6DrmnghhkdDQAtFFFABRRRQAje1VG3Z9T7DPb/ABq2SB1qF9pJO3GO570ACcJj1OPpTSN2PlxgnHNHA9h/nipEXOMjjpQAIpPPrUoApAMdqUnFABRTDKoOOeaUSBjxmgB1FFFABRRRQAUUUUAFFFFABRRRQAUUUUAFFFFABRTWcLxg5pnJ++cewoAkLUA5qLMIYDjJ9aULG3TH4GgCWio/mXocj3605CCMg9aAHUUUUAFFFFABRRRQAUUUUAFFI7hBk03zFyBzzQA+iiigAooooAKKKKACiiigAooooAKRulLQaAK8jMrHmnxyE9RjihyGOApPvUfGPl+n/wBegCfeP60obNQqM9Oe+al4QZxxQA6kxznHNMMyAZ5qSgAooooAKKKKACiiigAooooAKKKQnFAC0UzzVzjBpVcNnHagB1FN3gtt5zTqACiikLBetAC0hOKjJJ5ztX9TQBGeSPxNAEgbJpaixGePlpdpX7p/A0ASUUxGyfcdqfQAUUUUAFFISBSeYvbJzQA6iiigAooooAKKKKACiiigAooooAKKKKACiiigAooooAKKKKACquqPdR6ZdtZIr3Yhcwq3Rn2naD7ZxVqquoXgsrOe4MM8/lIX8uFNzvgZwB3PtQB5x8OtI8M+ILO1vZby+n8SWuyS/M15LHdRz8Flkj3DC5BG3G0gDFdPe+N7TSNY1WwvVW3ttOtre487JJkMrSAIFAyTlAABkktiuR8T6ho/jC50ubw5ZXh8SQ3UJjuhZSwPaxBwZBKzKBtKbgVOc5GB3qfXfDF9rHj7UdRssxXunWtjc2TTITBLIpuAY37EENjI5UkEehAOkufF+o6foVjqWoaSLSa81C3tVtWl3NFHLKqBmIGNwDZKjIB4yetQ6/8AESLw74s03Rby1xaXkReS+3fLbsXCIGGPusxxuzwSPXNZ2u6s/ifw3pk66feW9zFrenpdWskR3wOlzGXBwOVA53DgjnPpc1jRbbXPHbWd/aGexuNClgl3KdhzMny57Hgn170AbsmvyJ4pg0MQArLYyXnnbuRtkRNuMf7ec+1Y/hn4hpr2v6tok9mbO5sp5EgLNkXUSNtZ144KtwR2yD0INYXg6PW7H4hrpWsRXE40zSZYYNRZDtuommjMZJ6eYApDD1Ge9LZeGZdZ03Up7dnsdV0/XLy6srp0Py5kOVx3R1yp9QcjkCgDo08Y3E2marfpYgrpl9LbSKrEs0UZG5xx1xk7e+MZqeXxRC2s6XpVkn2qW9ia6Z1PywwAf6w+uWKqB3554NZvw8WWbSdUnuLeW3e71O5nMUqFSpYjK4PXBBGehxTvh/odtplxrE0UcvmfbHtVaXPywxnCImeiDLYx3JoA7CNfxH0qQAAUtFABSOMqRS0jnCk+lAHlHiJfDE3xK1ZPFd7bwW8el2rwCe+Nvgl5txXDLk4C8jngVoeE/Ep0LwFLq97Jd3lsl3NHpnmktPdQNMVt1y3JLAoATzggn1pup6rpGjfEjVZdctpGhl0y0WFjZPMrsHm3AFVPOGXj3rFj0LULjQ9Y1DStIurawi1y01XTtOkjMTyJCY2lKxnGzeVYhTjnnAzQB1N9418TaDbJqeueHrGDSwyi4ktb1pZbVCQN7KY1DAZycHgZPOK1LfxnEmpaxYaksdm2noLpZGf5JbUjIlyQMYIZSOxAPQiue8V+KrTxh4avfD+i22oT6hqcLWhjks5YxahxhmlLqAoUEnB5JGB1p/xC8LQare+FY3juHT7aLS5MWR5tsULtHJjqheKPOf60AXbnx1qy+HNK1SDR4FudVvUtre2uZmj2o5bY7naSCVAJXHGcdql1nxZ4j8PeHb7U9S0jTRPC8SQwwXjushdwnzMYwVwWHQGoviNpTanaaFaj7SFbWbbe9qWV41G7LBl5XHrxiq/jzw49j4AvbGyuNSuWeeAhpZnuJVPnR8gtk4GM45HFAGjp3i3WE8SQ6Druk2tnLdW8lxbT2tyZ0fyyodCCilSN4PQgjPIp6+NZW0XxLqf2NP8AiSTXMQj8w/vvKQNknHy5z74rI0XTLrQPHhXWLm/1Z7y2I07UpgCIQMGSBlRQqkkK4bALYx/CMwR2s7eEPiBF9mm3zXuoNGpQ5kBhABUdTntigDoPD+s+K9SNrPf6TpFtZTxCUvDevJIoK5A2mMA+h5qr4P8AiInibVdV0u4szZXVlPKsQZsi6hSRozIpwOjKQR249RWb4BuvDNu1lBp9zq7X8tsqNHdNdsgIUEgCXKKQR2x6d6o2fhm9vvDEt7py/Zde07Vr+4sZJVKq4a4kzG3cxuvB/Bh0FAHRXPj2WDwbrniNbBGbS5bqJYDIQJfJkZASccZ256HGe9Q3/i7xV4etDqetaBpzaZFhrmWwvWllt4+8mxo1DKOpwc4BwD0rl7VrrUvgl4lmfTL21uLuTUJRZyxETKWncgbep69utbnifxfZeJvDl5oPh+O61C/1G3ezUC1kWOEOu0vIzKAqqCT1ycYAJOKAPQIJBNCkgIIcBgR0IPQ1JVbTbYWmn21sCSIYljyfYY/pVmgApGO0ZpaZL0A9eKAGnIQuevX6CuK0OytvH1nc6vqjzzWc08sFrbrM6IsSOUzhSMklScnsRiu1mJ2EDvxXCeELv/hC4LvQtYinhht7qZ7K5SFnjmhkcyAZUHDKWKkH0z3oA6TSNEs/CunTQ2890LRGaVRdTtN5K4GQCxJ2jBIBJxk0zwzr0mv20zz2n2aaJwfKJyTGyhkf2yD07EEdqwfEmuXninSItM0KG7tZNSvDaCe7tXVRAq75JMHB2EAoDwSW49aZbp4j8P8AiuwuNVksL201KM2LmxtZI/JdAXjZsu3HDrngZYe1AE8XjXWpbjXJIdFtXsNJuXt2c3hWaTYqsSFKY6N/e7Vpav4qnsxp8Gkaf/aF5qSmSGNpPKSNAAS8jYO0cgYAJJOB3I5HxJ4e1S8sNeurSe/kthqJe50qHbGL+HbHvVWxvDEZxg4OMdzW9JqENteaZ4jignfS3sGhZkgbdCMqyEoBuAIBB44IGaANXSNV8RvcTJrej2NpCke9J7W9MwJzypDIpHHfkcVkWnjPxPrdkdV0Lw3Z3GlsSbd7m+MU10gzh1QRkKD1G4jIIJxmn2/itfE2uS6dpayy6Y+nymW6a2kRVmLKqqHYAE4LHA54rP8ACPjOx8LeFrDQdZt7+DVtLt0s2tY7SSRrgxqFDRFVIdWwCCD35xQB1/hjxBD4n0i31O3R4llBDwyLh4ZFJV0b3VgQfpWvXLfDzTLvTNBLX0P2e5vbq5v5IDgmEzStJsOO4DAH3BrqaACiiigAooooA4L4sfYmXwxFqk6Q6bLrCrcmSYxIU8iYgMwIwMhe/pVDwNLp8XjXVLbwzftdeH4bKIyBbhp4Y7oueI2ZjyUxuAOOnAJrT+KE1vaSeF7u9ieSzg1dXnIhaUIvkTDJCgnGSB06kVm20Vhrfjew1Dw7p1zbWsVrOl9ei2a3jmVwBGmGALsD82cfKM+tAGpbeL/EutWz6joWg2c+n7mWB7u8MUlyASNwCowUHGRk8gg8ZFSt8RYZfDdjqlnY3Et7fz/Y4NPchZPtIZlaNm5C7SjknkAKSM8ZxvB/i218K+GLPQNbt9Qh1PTYhamJLOWT7TsyFeIqpDhgAeDkE4OCMVnxaLqmj6ToXiGbT53mttZudUu7CJN8sUVx5qkBR95kDqSBnocZxQB0r+MPEOj3tiniLRbG2s76dLWO5s7tphFM5wiyKyKQCcDcM8kAgZzVafxf41h8QQ6GPD+htcTWst2jnUpAuxHRSD+54JLj9ah8S67Z+O007R9Diu7k/b7a5uZ3tZI47eKKVZDlnUfMSoUKOcn2rWuVkPxN0ybyZTENFuozIFJUMZoCAT0yQCcdeKAGN4v1zUNSudN0HR7O6lsAiXtxc3TRQpMVDGNMIxYgEEnAAyOp4qwfFWqWc+gWup6VDbXWq3j2sscdx5ghCxSuHDbRuBEY4IGN3tisXSNZg8C694htdbiuoLXUL439pdpbySRSB40DISoO1lZTwcZBGM1L4o1U38fhvxPaafqMtlp2omaeL7K4uPKMUsW8REbyAXVsYzt5xQB0mteIH0rWtD05YFkGqTSxGQtjytkLSZxjnO3Haudv/F3jO08Q2mjR+H9Fke9jnlhc6lIBsjKg7h5PBO8evemT67beMPGPhyXR47qe00x7i4ubmS3eKNd0LRqoLgbmJfOBnABzitHVYpX+I3hyZYpDEljfKzhTtUkw4BPTJwfyoA6eye4ktomukjjnKgyJGxZVbHIBIGRnvgVYoooAKa5wpPpSO4BwOppgkznoR34oAQDJbv2I9aFBz1J/DpRHkkEf5FT0AIAB2rF8bs8fg7W3jZkdbGcqynBB8s4IPatusTxskkng/WkiRnkNjOFVQSWPlnAAHegDj/Bfh7wPcWmjXFvLaz6otvFPhNRd38wICSV3nPOeCK7Dwp4gbxJp0t20CwmO7ubXaG3Z8qVo89O+3P41U8I+HdNstD0qaLS7S3uRZxBnWBUkBKDOTgHPr+tc/wCBPEmn6ZaXGj3n2yG9fVr4iNrObBD3UjKdwXGCGBznvQBr+LvHn/CMa1puniyNxHOVe8mD4FpC0ixrIRg5y7gY44DHtV7xp4jvPDljZSWFnDeXN7fQ2Ucc0pjQGQkZLBWPGPSuMTwz4j8Yp4g1FbrTbWy1vdaJDe2UjzJbx7o0IIkXbkl5BxxuH4O1T+1df8FeG4ZxeW2pw6tbW9zNFH88ckUhR5AGUjaSu4EgjBFAHUaF4q1S51+60HWdMt7K8htku43trgzRSxMxXOSqkEFeQR3GCeao+HvFnizxFCL230XR0sjcyw7nv5PMCpKyE7RFjJ2k4z+NVvCNncaH4r1aw1d7u/1K4RZrfVJlyJ7UEgRfKAqMjFsqAM7g3JJrB8BP4c0vab19bg1ZdQusxEXnk5aeTadg/dkEMD0x3oA9djLFfm606mRDCD8afQAUUUUAFIVB60tFAHHeG5ZNL8VeI9BkdzGXTUrMOST5coIdQT2EiMfYOKoeAfEEUvirxZoivM0cN79ptmk5DKwCyhT6LMrj2JxTviVLe+H7rTfFWm2U17cWnm2UkECFmkSZcJwOwlWLJ7Ak1k69pN58PtG8Pazp9tNqN7psclndLChZrjzxktgc/wCvCMT2BJoA149XlbVvFPiZQ0lvpFu9lbRFiFkaJTJM3Hq5CZxx5Zq5rXjPUbTRfD13p2nW1xd63NDCkU85jSLfE0hJYKxONuOnelbQZNE+GV5phzPcrpk/msoJaWZ0ZnbA6kuxP41i67cLpvh3wDdXUcyQ2d3avOViZjEBayAlgASOSB06mgDXi8Ya3pmr2Fh4k0e0tIdQlMFvd2d0Zk83aSEcMilcgHBGQSMHGRVpNe12+1zVbGy0yxe30+SONZZrlkMpaNXJwEIAG7HXtWLqurQ+OdV0Sx0WG6mtbXUI7+6vHt3jijWLLKqswG5i20YGcDJOOMyzLpcPiTWZNUl1CAs8LR+S06q4ES5OE4PP9aAOzd5WtD5gVJNmX2NkA45ANc58LpJ5/h54flnaSSd7KNpJJTlmJHJOetdBDcRXljHNFlo5o96kqQSCPQ8+lcn4W8Y6Vp+j6RpE5u4bzyY4jGbObCt0wWC4HPvQBfXW/EV9Nerpul6ZJHbXD24NxdOhYqBzgIcdaS+8UaimuLouk6Wl5cRQrPdSSzGOGAMSFAbaSzHBIAHQckZGeV0nWdG0/W9d/ti51SG7TVpWhjRLkRsgK7TiMbWBIPXOe9dMt2mh6/qF3dR3AtL9IpYp1iZ1VlXaVbAJXgAjOBye4oA3NLudRnV31Czht3VsAwzeYrjHuAR+VagORmuV8JeJJvEOp6uUhmXTIWiW0lkt5IfNymXxvA3ANxkDFdRF93HocUAOooooA8/+KN79nbRBqM11b+HXuWGpzW7Om0bD5YkZOVjLfeII6DJwTW34e0XQtB0251DQS7200fmhVu3libaDgrliBnvjrxU/iPxTpugGGLU4rsQXAIM6WzyxIeOHKg7c54yMcda47wlZWy6x4jvdAs7iz8OXNogSJomhjnuvnLyRRsAQCpQEgAEjjpmgDtNA8Qtrfhix1toliN3ZpdeVuyFLIGxnHOPpWKPiFLJ4Y0HUoNNM+o64kZtbFZAAzshcguRgKqgktjoOAScVieEPANm/gXSZZrzxFFN/Z8TNENTuUCt5YyAgcAc5GMD0qtYWt3pnhf4e6+bG7mi0i3Vby3ihZpo0lg2Fwg5O04yBk4z6UAdOPF+vaVqVhbeI9Fs7W2v5hbRXVldmZUlIJVHDIpGcEAjIzgEDIqK88YeJJNd1bTtH0Kwu49LWIu0960TyF03YUCNhxjGSfyqnr+vWvjqfSNL0OO6uEi1CC8urp7eSOKBInD4LOBl2IUBRzyScYrK1fw9ruqeIfGc2k6lf2L7bXZBFtSO8xCCy+YVLKSMruUjGQetAGxqfxC1lPCEfi3SNIsrrTTY/bJEubpopUIySgARgcYxnPrV298Ya1o2jrdatpVit3c3MVrZw212zJK8hwNzsi7BnJJweBxyQKzdYktL74O38emabc29uNMeKKy8phLFtG3yyp5yCMd8nnpzW74rn0RPDvk+ILKW50+bbFKi27yhDjIZgoJUAgfN2OOlAGh4fvdcvBP8A21p1lZ7Svkta3TTCQEHOdyKVIOB3zWxXA/Dd7n+0dYt7S81K98OxLD9hmvw+8SHf5iI7gM6ABME5wSQCccd8BgAUAFFFFABRRRQAUUUUAFFFFABRRRQAUhQHrS0UAMEKLyBQ0SsCCOvFKzhcZ70CQH1oATyl9KPKUU/NMdgVIB5xQAwhOgPNMC+n3cDjt+NO5ycZwegA4NKqggsQQKAEjiCjAyB6VKqKDkCmtKEHQnPpUgOQD60AFFFFABQRmiigBpjU9c/nRsWnUUAMMSEYIyKXYvvQWwcUB8nGDQAGNSckUrKGGDSg5ooAYYVYDOePSl8pfSnUUAMMSk570GFD1FKXAJHpTUlEhIAII7GgB3lrmkMKE5xz60+igAAwMUUUUAFMl+6D6Gn0jDdwaAGSAleO3NNVEDnjhufanKSPlPUfrTWwuRglfQdRQA3YE42nOe3cU51Bbp0BpFkB6Mw9ivNO27uACB3J70AMaNWgx6gUeWu1iRnk4pz56Dt/OlABwo6DvQAvkoQARQYEIPHX0p5IApjTKvUH0oAcqBTkU6gUUAFFFFABRRRQAjKHGCMim+UvTFPoJwM0ARiFR0GPpR5CY6UolBOMEGng0AMMKEYxx6Uvlr1xz606jNADPJT0o8lM5xT801nCjJoATyUznB/OgRKDkdqEkDkgdvWn0AFNZwOCQKUuBwetQknd36nJHJ9qAA5J4Y9c8dSKAu7Hb3FCrlsEEe9TKuBQAiqAMCnUUUAFIyhhg9KWmCUE4oAcqhBgdKTYv/16UMDS5oAaqBBheBSeUpAHvmn0GgBhhRjkjmjyUJyRnvSs4FCuGOBQAqgKMCloHNFABRRRQAUUUUAMMSsSSOvWjylIAx0OafSMwUjPegA2jbjtTfLWl8wUoOaAGmJQOOKaiDZ0H/16lPSo8bGx2P8AOgBgUbFBHC/KRSsiqc44PenMCPmGPQj1pm9QcAsPYigBPLXaDtAY9+9Kkal3OPalBLcgEn1IwBSsNi7QeTQAyFArcdMH+dSxfdz6k0xeFwOp/QVKowMelAC0UUUAN8tT1GfrSeSnPy9afRQA3y19KPLXGMfnTqKAGGFD26UeUmMYp9FADBEoGMUghQEnHWpKKAGpGqZwOtOoooAKKKKACiiigAooooAKKKKACiiigAoPQmikb7p+lAHK+LbibUb7TvD1pfy2Ul2XuJ54W2yJDHjhT2LOyD6bqzNT0TxJoWnXl5ZeMLxhbwvMI7mCKQfKCcElc4wMdafF4bsfF3iDW9RvROy20i6fbNFcSRgKihn4UjPzuwOc/d/CqPi3wo2neGr63tte1BPNUwp5hjbLSYXb90Fh83TIPv3oAboV746vPtf2fWLS7igeKMm8tQH3tDHI+3y9o2jzOMgnjGadr3irxZpFy1rtsTIUjeDy7Yv5hZyu05kUDoTkkACpvDnhrxKdJ86XXoLO6uisxSK03ImY1XGDIc/dBznuazL/AMO+LLjxM+nz67pupJPp+8iezaFUCyYGNjE5y3XI6fkAbGlXnjLVrUXEGpaWVJZHU2ZUrIrMrKf3p5BXHTH1rIhvvGNxraabN4lMEjXs9tIsVvCEVVhSVCuUY5Ksc5J/CpvC1r4uuft+l2OpaLptvp0v2dVjs3lySgbcNzA9WPXOSScmsbxnoPjHw/cpq0WsWd0ZNRNxJPDZmORA1uIiMGQgDCqM8kHBwcUAdVfeB9WntJZR4n1OS8jTfbuZWVVkHIyqkKRkYII6Guq8OauNc0ay1AKEM8QZkH8D4wy/UEEfhXOweBV1eFZb7xJq1/DJ84VJUjRgcYIKKD2GOas+DLJNA1DV/D8W4Q28y3durOzHyphk8sST+8WXqaAOtooooAKKKKACiikY7RmgDD8YapPpejym0YLe3LLa2hP/AD2kO1T9BncfZTWLb+EdcsljNr4w1YBQAwmWObP/AH2p61N4n0mHxX4mstKu/N+xWNu95IIpGjZpXJjjG5SDjb5vfHTNE3gaa1y9n4k1W1jzkofKdV5z1ZMgZyc57mgDnLXVfG8usJaQ69bSym7uIPLmtEEJSKJDu+UBs73x1xgdK09b1rx3oen/AGmRtGmzNFDuEDjBeVUBx5n+1n8K5vwlo/iXV9XuJLbVoLSPTbq72Xc1m0r3DyTEODl1UgeUOQTw2OoJrY8baP4xs/Dst1N4h069jtZbecwmx8nzCkqMBuDNjJHXB+lADNE8X+LfEV79ms7qwTcjywyy2BCXEauFLriYnALA4IB5HHOatazeeNrOXT4rjWra2W6meHdaWihiwheRRiTeAMoQe/pWYdM13wnqdqlpp+hQXOqS+QrJPM6xAhmJAZdqjcAdq4zxwQONrUvD/jW8uLC7uL/Q5BZ3P2hbcRyKGyjJgvyejE9Oc0ARaNo/iPxBo9hqGoeKrwC7t4pjHCEjX5kBIyiqep9fxrQ8OwXPhjX5NJuL+4u7e/h+0WzzyM5WRMLKmWJOCCjgZ/vVynw80vxHqumSaVqXiOaxl03baCG3gVW2hEIPzFsgBgAcYOeg5FbWu+EIfDENt4nGo6heXel3CzM9xKNvlMdk3yqAv3GY8gnKigD0NDuUE96dTIv9WOlPoAKKKKACiiigBrqME9CO9c3rF7Pf6zb6LbTSQhIjd3M0bbWVM7UX/gRDH6IfWulfO046153pfh/UPEV7qPiOy1cWhurpo4Ue3EiGKFti8qVbBZC2N2PmPHJyAXNfuNZ8M2Iu4tXlmUzRRBJo0Iy7KvXAPc9Txx1pk2t+LZdfutJsJNMnFtbJOzPbsGJYtgf6wD+Hr71y3jq41/RrjTNNvZra+hacXP7lzGT5TIqKVk3/AHpHjGd3GSTkCoNC8X69e+NL2SHSI1urm0iWWN7gIIWjkZSnzDkkSRtt4I3YIzQBoaR498Za1f2unRw2cMlzbrcCQWLNGoOc4YyjIGCC3qQMVsa1f+O9K0K9vxeaf5ltbvNs+xADKqCQf3p9T/3yfUVy/hyHxTpV7FJHa6uTo9qlvdWCGFoixQsSv78bgQ4OduQVHOMg39c8Y+IdV8OzRR6G6x6gstkjt5Q+ct5BGBMSP3h64PBGfUgF+e48V3Wt6Xp58TSJbahZyzkxQQoQw24CnYxxgnnI+o73rnTbvwk9vrUmqX93FHIIr0XEzspgdsF9pYhSh2HIA4D+vHAS+L9ZF9o11FpQI0tZBDI8oUTQeWVlLnaxUhtnGBgkqRkZr0ebwp4q1m1kt9S12xhgljaJ4YrYy7lZdpy2UHTP8OOTwOMAHbqQQMGlrnvBF5cXWgWyXbb7q13Wdw3rLExjc/iVJ/GuhoAKKKKACiiigAqK5nitbeWeZ1jiiQu7scBQBkk/hUtcz48Bu9Kj0hGxJq08dlgHB8tjmU/9+1egDD0fRda1+zXXR4m1Ownvm+0CBNrRxRnOxArAgEJtz7gnvxn6re+MtJ1OSzj8UC4aJbNo99nFhzNcGMh8LkgBWI2kH3rpH+HVjAd1jqGqWBOCRHcmUHBz/wAtQ3fPTHUnua4W38Pa5qnjHUdLtdcf7NCbXde3FurvmFlmUKVZAMmZsjB6A55xQB1Wq33j/SNLvb0zaJP9mt5JsC3dc7ULY+/6jH696xdI8ceLtW1BbKO505S7mBZjYnyzOqb2iB87OQA3JAB2nBOK1PFHhnxWnhzVceL4WiFnNuR9NBLDY2RnzODzjOPwrnm0vxDoEmm61Evh8XeoSW9v5ogkJUysi78Z25w2CeCR3oA6TVrjxnavpy3Ws2tvb3N2ltI9paqJAHyBjfvHXGeOn51D4e0rxP4k0azvtR8W3imVSXjgjjjBPQjKqpHIPerWp+FvGd/DbGbxHpJNvcw3Ii/s5grmNw2CwkyM+w7fWub8BaZr+oSX+jal4iurF7K5cxw2sSKChcvxu3ZA3rz7gYGDkA6rTbO48H+IrW1k1K6vLXVkaPNzKz+XcIu4bSxJG5fMyPVRXaF8D1zXC6t4LsNB0y41aOS/vr2yH2pXnuGZiE+Y4UYXJAI6Z5rsYJo7m3imjYPFIgZGHdSMg0ASFmXB5xkg8Z+lOXJIzwcfjinKA456juKcq46UACqBTqKKACiiigAriNZW58S+J5NKtdYudNi02FXkNtIFaSZyCFPqFQA46ZkFdrJIsaszHAUZNcDoHg3S/Eum/wBuXqXKXOqSPd74bmSL5Gb91lVYAkRiMcjtQBHrGn+KdBitBD4xupYri8gtiJbaEuA8iqSGKddpPXPSjw9d+PtT0W3votV0e4SUMyGe1IcrvIXO1lGduM4GM5rH8baFfaFeaLDo2s31zcm9WQQXRilRCFYglcK2Mgc7s8dD0rodM8Aa9pGm21lb+MpwsEYQD7Gu3pjgbunfqfxoA5i6+IvjCzvrq0nfTg9rJL5vkWhcRwx7cyHdKCR8x4UE/KTium1N/HsOlXc6appSyxRSOpS0PYEjqzVysXhHWJxq93c6ppd02n6lKVe60/czEhGOcMODxxgjgGuj0vSPGHifw7a3Uviqzto7+1WRo4tLGVDpyNxk9+uO34UAVdDh8TeIZ76J/Ft6IYWiKbIYVcq8EcgJKoO7sOD0AHXmtJ7C68H6npuovq13c2s832O7S4mZlHmYEbgMTgiQKOMcSGuVtdC13R/HEeg3XiFraxuLGHZNZQLEZHiVIhneXO4ggYwBjBzxiur1X4W6beadcq95qVzetGfJuJ7t/wB3J1VtqkLwwB5HagDuEOVBzn3p1ZfhnU/7Z8P6fqONrXECyMv91iOR+ByPwrUoAKKKKACiiigArH8V6x/YOh3V+FDyou2GMnHmSsQqLn3YqPxrYJwM1yXjC0g8Q6to2gXIZraRpb2cKzKSsQAQZUgj55Ebg/w0AULLwjrcEELw+NdUMxUGRyI5kZsZJAYEAZ6dhmsaz1Pxu2uLYReIYLiX7RcxMs9ogiMcSRfNhAGDbpD3xgYxXRzfDzTrQNc2uqarp6INx2XRcADuTLuwBXH+AvDHiDW3udS/4SCSzhtrm6S3cWyNJL5jqzFmDYK4RMYVTgkYGOQDc1zXPHWhQQTXN1oQilnEbyi2k/drtZmbG/nAU8VX8NeJvGPijzVS6sLV4ljkaOWy5KPna4KzMMfKRjOQQQQMU3xZ4b8TWzaQ58VLc7tSijVJ7FSmWDDJG7ngnioNJ0TxDo3iEeH9N1fR7JZ4JLp5IdMJOUMahSDIMjDcc8Y6UAWdQ1vxZpeoTW19qkX3LR4fs8CqMST+U+7cGPAII5rpf7BvbkZudYvZQwGdreWM+2wrx/jXJ+MvA/i+bT7zUB4mtLu5+zLCqDTvLIxMkgKHzcA5HfI6dOav+F/DX/CXaDa6jqXiLVrozxhpYEkSJFJUEr8q7uh/vcZ60AdN4W1SW9tJrSWQvc6fO9lM79WZQCrH/eRlb8a3kQAc8k/rXG6Fotp4R8YtY2CyR2mp2Rm2vK8n76JgpOXJOSjp36R12lACBAOgpaKKACiiigAyBXJ6r4x1C31m4stL0C41WC0CC4mhmVSkjAtsCnliF2k8/wAQrotTu4bCwnu7htsMEbSufRVBJ/QVwPh1PGWnacLltIsrg3kjXsgW5BkzI27aQwUAgEL9442jrQBoTfEtreWGC48N61DPNu2I6xANtVmbkuAMKrH8Kltvit4amsorqWe+tlkQOFlsJ8gEAjohHQjocVynjTxXeJNZw6xod3YSfZ7vytuJzLI8RjRQIi5GS+MnAycZzXRWfjGK00+3hk8Oa7GIokTb9gkOMDHZeeAPzoAu2/xS8NXaeZb3F7MmSu5NPuCMg4I/1fYjFQ6h8VNFsbaW4Ntq8iRoXJWxkUYAB6sAO4/MV5Za3enXMltqdxcyWyQzybzNZvvtCL2Ry0Z7FgQrA4467sYHf+IPHel6j4Z1CC0sdXuGubKVE8vT5CG3IwGCAfb8x+ABoQ/Ee4uZZ4IPDeqPNbv5UylocK20Njhzn5WU8A9ataZ4v1aXWbOy1XRRp9ve70gl84sfMUbtjAouMqGIIz9w+1cn4X8erDquq6bpuk6jqdzNJDc4VPJGPs0KuN0m0ZBUcZ/izWl4jl8Y6rpbyx+H7a0a0dLuIS3StIGjYNhdm4EkArjjgn1oA9JBB6EGiqmmXkOoWUF3bsGhnjWVCO6sMj9DVugAooooAKKKZIflPagB9FVsjurfnRQBZooooAKKKKACkYhVJPQDNLWZ4luzY+HdVuRnMNpNICOuQhPFAGb8Px/xSVhcOcPeB7xs9SZXaQ/+hVgeOmTUNZsbGOZd9vIspU8A4Ik6+o8tR/20HqM1Le88Y2ul2tla2drFBBBHEgAl3qAoXqYSCc89DxWl4Z8JXq6gNS1RlaRuoBOR8wJHPJyQpLHBO1QFUDFAHYadAIbWKMDhIwnOe31rIl/5H6IdM6TJ/wCjk/xrowMVzdx/yUGD30ib/wBHR0AVfBQI1rxKpIz9rjPAI/5Zj3PpT/iBp0upeHryKJcy4YR8Y+Yqyjn6sOlReCgR4i8U5/5+ouMEfwEf0rqb60jvbSa3lBKSqVODg/UHsfegDD8BarBqfh23MTDMY2lemFPzJ+aFT+NNvj9i8d6XcD/V39rNZsR3dCJEH/fIl/OuXl8N694eupJNJCyIxLAo3llQWJKghWBXJJClDtJO1sHAR7vxUdY0H+17WIW0WqoBL5mWUmKRP7igg7sdO1AHp9FIDkUtABRRRQAUjcilpsjbUJoA5rw0Dd6z4g1Bs83a2kftHFGvH/fbSVL471C2s/DlwtxIqpP+7Yk9E6ufwQMfwridH8UeIbS0lOnaVbyw3N/dyJJIxJcNO5U8lQOMdCfrUyaX4i8W3CTamiJANh8vkK65B2nKgKuVBIBdmA27gCcgHSfDvTpbbQUe6j2TynfIuD8rkbnHPXDs4q38Q/8AkTdT9kU/+PitnTbQWNlHAGLbRyx6sTySfckmsf4hjPgzVP8ArkP/AEIUAUPGIB1rw62P+X1Rkfl6+/p2rrLjPlnAyfSuT8aN5eqeHuP+X6MdP9pffI6muwZdwoA818Puuj/EG5im+RbpCoJwBuOFA4AH/LAfi4rvtXsItW0y6sJuYrmJ4XHswIP865Txl4Tlvrz+0LHHnqOUJOGBABBwQcHahyMFSgYZORWVHq/ji12ww2DTDAG6fMi9cY3bEY/ipP17gHaeDb+XU/CulXVwczvbIJT/ALYGG/UGtmuS+G088nh+WC6t/s89vf3cbx7i23M7OBkgZ4YdhXW0AFFFFABRRRQBn+IL8aVoWo355FtbSzY9dqk/0qHwvYDSPD+m2DNhoLaNGyepCjP65rM+JJmfwdqFvBxLcmK2QnkZkkVOnf71UZY/Gc6eW9zbx/wmaCyVXI56F5mAzjrtPUcdaAIL61tfFHju8s5kWeytbI2sw3gZdwWkTHUja8JyCMHFLbadZaX42t9PsIkt4LaxiAjVjk75JWJJwSxJjySTkkkk567vhzw6uhwO5djJIxdtzliSSSXLYBLMTlj68AAAAZWjOdT8Z6rqCj9zGwtY2Hfylweh5G+WQcg/dPTFAEkYRb/xnngbYs5I/wCfZfUEfofpXNTfJ4MtZdwEaahPIQCBkJqG/wBM9FJ4IH14rpYQBqfjHJBASEnJIz/o47jnt259Kx7LTTrHgV7MsV8+91CDcNxCF550BIzzhip56fWgDV8ZeE9PnsNQuLWzhivdQAhln2/MxKtGp6HkeZ2wfU1v+GtVXWdDsr/OGniVmU9VbHzA+4OQfcVW0XVF8T+HoXlUxyTRGO4QMQ0UoyrpxyCGDD14rFk8Pa3pN1NNpN80CzMXlURJJCzkgF/LZlKMeSdr4OM4yaANPw0hstf8Q2JUhWuUvYye6yxqDj/gcbn8a6WuD8Mrq9t46uE1ecTSXOmKUKwiIARzMOgdsn94DnPcV3lABRRRQAUUUUAFc1q2LrxtodtwRbQXN43scJGv/ox/yrpa888SajrNv43u/wCx7S3mkj063QvN5mI90shOAiNnO0dSMYFAHZ67f/2bpVxdgB2iQ7Ez99zwq/iSB+Ncf8MbQCG4vC4cySfKwzyo+RT+KRo3/AqzprHxd4mKxagwhiH/ADxLrtODyu6Ndp7biXK5yADgju9D0aPSrCKCPYMAZ2jC8AAADsAAAPYUAO8UjPhrVh62c3/os1yfid8eH/DD7f8Al907nB4/eRn19veuu8SjPh3VB62kw/8AHDXJeJiD4Q8PH+7c6e3QnGGQ0Ad23PGK84tGGj/ElxN+5jnTYrHAByzA9OOpgH/Ax9a9JTkk1yXi/wAJNqz/AG602/ak6BwCrcEEFSQGBBwRkdAQQQDQB0t3EsyOrcqykEVieBt6eGLC2dxI9qptWKnPMTGM8+vy1zMM3jqyBjhtldQQP3lwXBB9zDn65Yn3ra+Hc120Grw30KwXEepzF41bcq7wsmAcD+/n8aAOwUY7UtFFABRRRQAUUUUAYPji6ay8KavPGxWUWkixkf3ypC/qRWlY2iadp1taxgKsESxKB2AUAfyrA+JLzDw4sVsqtPPfWcSKwJBJuI+CMjjjn2rBuoPG2poYZZ/LjfIYBcDHcYGw4/4HQAyOZfEPj0zoMx2wCq+7AYbgQffBhlOO4cetelt93Nct4U8IHQ0eWWVZJn5JIGScAZOAB0VQAAAFUAep6lhxQBxtiALTxYM4xfynOcY/cxnqOlangIg+DNEwSQLGEDP+4KzbfY1v4tBJTbeScg45+zx85rQ+H3/IlaJ7Wca/kMf0oA5r4jK9pr2kakiZMMycDOWGc7evdxEvHdhXeW15FfW6TwSLLFIodWByCCMj9Ko+I/DsHiGyaCfGcHaT6EcjI598ggggEdK4qHw94v0lpI7O4RlY53KwXcf7zAnaWJ6kIueuM80AdR4JY29tqWnNx9i1G4QZ/uu3mr+koH4V0tcL4Bj1SDWNdt9YeJ7svbzkx8Agx7ATyRkiLnGBXdUAFFFFABRRRQAjcqa5mwUXfjnVbg/ds7O3tY/QFi8j/mDH+Qrpz0rzbz/EbeIvEQ0rYkH25ED7RnIt4s5JDDAJ9O1AG78Q9XGneH5Iwdzy8+WPvOi/MwH1A2+5cDqas+AtPbTPDlvaty0SiNmzkMUUIT7ZKk/jXO6f4S1zVbxbrWLpSwKMpZclcHI78kEAgAKAwBIYiu+tLZbS3SFAAqKFUDsAMD9KAMHxscJop9NXtv5mqM7kfEiwUHBNhcjr0+aHt+FXfHC5h0f/ALC9r/6FVK++T4maXz1sLnjI9Y/8KAOl1mJp9KuUQEuYyVHTLDkDqO/vXF/C69S2ivNIMirJFKxQdNyqAoI/4CEb6OOtd+6+ZHt9a4PW/At3DfNeaNNGrudxiORgjOCNpUqQCQGDA7cAhgBQBseKz9nu9AvxgNDqSRFsc7ZVeLH/AH0yH8BXSoSRk15Vr8PjK10wXd9JG1paTW9xIsjBmUJKjkjBBz8uOc9a9Uizs65oAfRRRQAUUUGgDnPHR+0aRDpgP/ITu4bNgP8AnmzZkH/ftXrfVVVcYwBxiuT8V6pY2XiHRTqF3bW1varcXxM0gXcyqI1AyeTiVj+FVNT+J+kvatHpNys94/ypjDMD0yEB3uRzgAHPfAyaAKFuw8SfENbm4jjkTTQUtxj7uTICfc5iH4MK9FCIY84zxXFfDvR3j86/mjKSOxJBOdvAULkcEqqDJBILM9dyBtGBQBwtnED4D1ADORdXqjBP/P1JxxXSeGVR/DGltgc2cR/8cFc7aHPgjVFOeL2+4AJx/pUnpXQeDW8zwjox9bGH/wBAFAHI+IsaP8RNM1KNViN1GLWWXA+cGSPAOfRVc59q9DVUCjp7VxXxI0Oa6toL63QStbtuK7gpOARjceBlGdcnoWB6A1X0/wCJ2nW9uIdWnjWZeCTIkT/8Didgyn6Ar3BIoA3fAYFtpE+l8A6ZdzWgA7IG3Rj6eW6V0lcV4M1/T9X8T+ITp11FPFKlpdEJIGKsytGQcE4OIl/Ou1HIoAKKKKACmODgEdj0p9FAFXH+1/OirO32FFAC0UUUAFFFFABXPePmK+C9dIJB+wzdO3yGuhrn/HyGTwXrwUc/2fOR/wB+zQBuRxIoChQB7U8opxx0qO3cSwxyDoyg/mKlJwM+lABXGa5q1rpHjy0lupRGr6TcKpI4JEsRx+VdFq2rnS7cXBtxJGP9YxmSMIPXLED9a5a58aeFtTcQ6laXLSD96sUunvNwMDerIrKRkgZB64oAn+H0p1G71zV40C2t5cJ5DDpIFXlgckEZJGRwSpxxg12ZGa4y3+IuiHdHYRXM6o3ll3j+zRqw/hzLt5HQgZxXWW1yl1BHKhUq4BBDAj8xwaAJRGo6KK53xrhLbS2HUaraD85AP610lc341Ba30tQOTq1ofykB/pQB0SdKdSIQRS0AFFFFABSPjac9KWkcZXFAHO/D2JV8GaScD54BJ/30Sf610IjReigVg+AWVvB2k7QABbquB2xx/SugoAAMVznxFZU8FaszHAEBJPoBzW9NOlujSSnaiKWZj2ArMOp6Pr8L2S3NpdLIpEkG9X3KRggqeoIoA5zxLqFtquvaDZWjrPOLtJjsAOEX5mPrjC4JHGWUdSK7usGw0PRPDaSz2dlZ2QIzLMkYXIH95vQemcD0rTsNVsdT3myuobgJ94xsGA/KgC0UU9QDTTGoAAX24p9FAHN+Fx5er+JYccLqQYe263gJ/UmukrnfDx/4qDxP730X/pLDXRUAFFFFABRRRQByvxFuhZ+H452R3VNQsiVTG4j7RHwMkD9aIvHenM2ySw1qNsDrpszge2UVhUvjwbtHtwVBH9o2WQemPtEdasuiafOP3llas3HJiBP8qAOb1Lxfd30BttItbm2kkypu9QgaBIvdI2w8j+igYJHJHfV8K6LHptgq+U6rtCIJf9YVGSWf1dmLMT7jgGtG30iys2DwWsEZAxlIwD7dKZe61b6a4W4ju8Ebt0VtJIoHuVUgUAc2bu3g1nxbE86JJIsCom75nJhwAACCTkgcc81J4MtY9Q8JNGQWinu7ySN8BhtNzIyOMgg9mB5zxUOoWXgvXb5tQudQgaR1CSKl+0QkA4w6BgGx0wR7Vs2PiHRYPKsLK6im2kRqlqpkVOwHyAhce+KAMSSHUtD1GW+shAlxcsPtVpcMUgu2AAEkcgB2SEFQQRhiOnGasr46Gz99oOqo3opt2U9OQRKQRyPTqK6x4vMHPGeag/s6Hn93H+KDP+eB+VAHI6Vr8es+O7Fl0+8tGXTrqM+e0JBHmwnojsQcg9cV3Nc3dxLH410VVAGLK9PA7boBn9f1rpKACiiigAooooAK5vT1B8da2SM/6HZj9Zq6SubsM/8ACd61g4zZWZx/wKcUAdF5aentTgAOBRTS+M8dKAKHiHnQ9QHrbSjHr8hrz+81m11/RfDejWEvnXUrWbkBeVVCpdscHAAYk4xkAdSM9Pqfjqx0qVo9TtpIETLOyvHMUUdSyIxYDGexqhD4v8F6Oi3NrELY3LjBh02WMzMeevljOeuT9aAO3QEZpdoznFZGieJItdEklvbyJCvSRpI23H0wrEj8cVsA5GaAGmNT1UcVzvhkbdc8TLjAF/GcfW2hrpK5zw4R/bviUjP/AB/Rg5/694qAOjooooAKKKKACiiigDmvHA3W+kj/AKi1n/6NBrpNikcgVznjgMbTTGX+DVbEk/WdB/WukHSgAximsRjg0pbFcxqniee1vjFp8drqO3hoYmkMinuGKqyr+JFAGFc+Io9L1HxHprQyte3N3mGFF+edDBGMoMEtzkZxjI5IAJHV+ENPn0nw5ptldfLPDbIkig8B8DIH45rHi8fPNBd3DeGNZUWTPHcY8k7CoBI/1nPBBp1j4zfUjbyzWiaXbzFWU35dXdT6YXZnkYAY0AdhwR600xoeqikiYNGGyDnuKfQBzWmhV8da2AMf6DZNx7tcD+ldLXN6eM+Otbb/AKcbJfye4P8AWukoAKKKKACiiigBG6Guf8KIpl1xiQxOqS/hhEH9K6E9K53wmdt94ji/uaoT+cMTf1oA6EKo5AHFLmjPFUtV1BNOspLh3gTaPl8+Ty0J7Atg4/I0AYXxCmNrpNleFXaK11K1mlKDOxBIMsewABySeBWdpFy3irxnHrNqjHT7G2khWfqkruUwFYcNgKxJBIGQM5JAmn8f3Fi0C3OhXU8dzKIYpbPJVnOcD96sfBwcEZFPm8dzQ3x0+Lw1qy3IjEzeaq7EQkgEmMu2MqegPTnAoA7EEYAyKCoPUZrI0DV11SEsZ7J5VY7ktnLbB2zkAg/UCtigDn/HkCv4K13jkWMzZ+iE/wBK3Lc5hVvUZrF8evt8E66fWxmX80I/rW1ANsKL6ACgCSiiigAoNFB6UAclc2MGq+OpYbiN2W30pCNrFf8AWSuD0I/55j/IrUtfC2l2bZjt3IwAQ0jMDg55BOCc9z6D0qrphD+OtabqY7Czj/8AH7g/1ro6AGRwxwjEaBR6DpTz0oJxUBuIpGeIOpYcMA3IoA42yZP+EO1lWdQPt9+MnJ/5eZPTn8q3vBAI8H6JkEf6DBx/2zFYUvw9knkubeTWZDpdzcSXDWyx4fMjlmUPuwFJJ6KGAPDA812EBhtUitk2oFAREHHA7AewoAnZFcYYAj0NZs3hrSJuWsIhjnCZUfkMCtOigDko9PtdI8c2qWsEcCXmlyqVRcFjFLGQT64Ep/OusT7oz1rndZUf8Jp4fboTb3sYP18o/wDsv6V0S/dGaAFooooAKKKKACiiigAooooAKKKKACqGvWv2zRNQtwMma2lj/NSP61fpGGVIPcUAZfha5N34b0q4JyZbOFz9SgNaprm/h4Nng7SouT5NuIcnrlCUP/oNdJQBUn0yzup47ie2jlli/wBWzjds9xnoffrWO0at49B28LpRGfczD/CujrnISX8fXgzkJpkHHpmWX/4mgBPBsUbW2q5RcHVLrjH/AE0I/pXQQ28VvGI4YkjQdFRQAPwrB8Ggp/bUZIymqTn6btrf+zV0VABXN+LjuuvD8YGd+rRZ+gjkb+ldJXN6+wm8S+G7Y/w3M9zj2SB1/nKKAOkAAHFFFFABRRRQAUjdKWkbp1xQBzvw+QQ+GYrfdk29xcwH22TuuP0ro65zwSPLttVg4zDqt2P++pDIP0cV0dAFTUI7mWBktpRFIRgPs3bffHfjP/164vx14UsI/C15dXiy310mxhPcOWZTvUHaBgLkEj5QOtd/XO/EBd/hW6j/AOekkCD8ZkH9aAOe1jwV4dg8S+HIYtLiSOWacuoZsHELEcZ6ggEHsRXYaZoyaZMxgnu/KKkeTJMZEByORuyQe3Bx7Vm+IV2+I/C0hOALqdfztpOP0rpaACkc4FLSNQBzvhjbJqfiKUA86ltye+2CFf6Yro65vwUS9jqFyPmW41S8YH2WZkH6J+ldJQAUUUUAFFFFAHN+PFx4clmxjybi2lJ9lnQn9Aa6JORWH48gNx4M1tFBLCyldQOpKqWH6gVsWk4ubeOZRgOoYD6jNAEj52nHWseXw7BfTySahNdXiscrDI5WJR6bFwCP94E1tUUAcTovhzRm8SeIom0ewZFmgKg26ELmBenHtUXgPwxpk3gvRporX7NObVD51qxhcn1JUjP45rY8Pkt4j8UMO13Ag/C2iP8A7NTvh9G0Xg3SomGGjh2Ee4JH9KANexgmtoEiluJbgrxvlxuI5xnAA/HFWqKKAOcnIf4gWA/55aXdH/vqWD/4k10dc3CBJ8QLjg5g0uPB/wCukzn/ANpiukoAKKKKACiiigArm4iIfiFdLn/j40uFsf7ksgP/AKMFdJXN6h+48e6RIMf6RYXcLH3DwsB/6FQB0lUdQsBqKeRJJOkZYFvKcoWA7ZHOPxq9RQBga7p1np3hXVY7W1hgjFnMdqKAPuHrjrWffqp03wjx1u7c/wDkJ61fGknleEdak7LYXDE/SNqy9bUwaX4aBGDFf2an8Rt/rQBuXmg6feTJcPaos6HImj+RxjtuGCR7HitFRhRSiigArm/C3zar4kk7NqeAfXbBEP510TttHTNc54H/AHtlf3IORcapeOD6gTMg/wDQKAOlooooAKKKKACiiigDnPHgI8PSyghfs89tcbj2CTox/RTXRjpWD45gafwhrSKoZvsMxUe4QkfrWrYXP2qzt5uCJI1cEd8gH+tAFhkDghhkHiooLS3tIVht4IoYl4VI0CqB7AVNSMcCgDirZQ2jeM9vU3V0Bj/rggrotChil0DT1dFdWtYsgjII2DrWJ4fh+0aJ4iYn/XX96PyJT/2WtbwfN9o8K6NKf47GBv8AyGtAGrBBFbRLDBEkUaDCogwAPYCpKKRjgUAc7pAEvjDxBIDwi2kP4hGb+Tiujrm/C4E2q+JLsDHmaiIwfaOCJf5hq6SgAooooAKKKKAEboa5zw0Gj8QeJonwCbuGUD2NvGM/mp/Kukboa5rT3Fv461iPn/SLK0nH1DTIf5LQB0tVptOs7m4juZ7aKWaIEI7rkpnrjPSrI5FFAHN+M44xa6a5yAmqWhyPUzKP60RqB4+uQQOdKi/SaT/Gl8b/APIMtPX+07H/ANKY6V3K+PUQAfvNLY5/3ZV/+KoA2/sNr9qF19ni+0KCol2DcAeoz1qeiigDnPiCN/hK9hHW4MVv/wB/JVT/ANmroU6fia53xs5ez023AB87VbNceoWZXP6IT+FdFHyufWgB1FFFABRRSN0NAHFHUn0zxdrdwsLSQFLNJnQFjEu2Uh8DqM4B9ASegNdZYaja6hbia1uobhD/ABRuGH6V5VdandaB4g1W8uNS1DTrm5uWDNPHG1u0KkiLaZdoxtIPyyDk8irI1M6mFuSPD+psTzOdNuIWP/A4zID9c0AepuRjGcGuY1DwiNaupZtQaCJGPH2WFVlI6AtKQWzgfw7ceprmjPOUGy30iPH/AE9XuP8AvkIKF8R3emQFBrel2IJJKDTrmQk/78sqAfjQBG2lzxeA9X1RNd1wXdot+Ij9vk2r5UkqpwTzgKv1x711WmeD49JuIrqxu33BgZDcxpM7Dv8AvCN4JHGSxHtXAR601x4Ou9KbWrSKzu9WlsZNTaNNiRzxNM54crkO7KCGOPwrpf8AhKtShcxW/iTQ9R6YKabPt5H9+ORx+lAHoQYdzzUF7ewWFrLcXEqxRxqWZm7CvOZ9W1maZpH1nTLYtj5EvJolA9laI4qrJqLwOt1f6/ogMbZSaZbm92H1C7kUH3ABoA6h7i4u9f8AC895GIpXW6Yp3QFBgH3xgH3rsBjAxXkdvqL+ItWsLmy1rVdSurW4jaKSG3SK1CGRBLu2ZODHu++2MjgZr1pPuD6elADqKKKACiiigAooooAKKKKACiiigApG5UiloPQ0Ac54F/daXeWeDm01G7i59DMzj9HFdHXOeGVMOveJoCQM3kU4Hs8EYz+amujoAK5nT18zx3rcytny7K0i+h3TNj8mFdNXN+GwJtc8T3XHN8kAPskEf/szNQAvhvMPiHxLbHODcw3K/R4EU/rG1dHXNWuLbx9fLn/j702GQc945JAf/Ri10o6c0AFc7cIZfHtkRysGmzkj0Z5IgD+SGuirmrA/aPH2ry84trK1tx6ZLSuf0KfpQB0tFFFABRRRQAUjjK0tI3SgDmvDBEGseJ7YcEaisv4PbQn+YNdNXM6SPK8Z69HgDzYbSf65WRP/AGQV01ABXOePSRokKj+PULJT+NzHXR1z3jYbtPsEP8WqWY/KZT/SgCPxSwGoeGH6/wDE02/nbT10tc14tjLXXh4rxs1VD+cMo/rXS0AFI4yMUtMlcRxlycBRkn2oAwPh+qnwpZyAY855p/8AvuZ3/wDZq6Kue+HsbR+BtBD/AHzYws31Kg/1roaACiiigAooooAr6jALrT7mAgkSRMhx7gisvwRO114R0eZ872s4d3OeQgBq5rOsQaJp8t7crI6R7QEjG53ZmCqqj1JIA7c1yvhTU9Y0jRY7FvCmqv5Uku0ia2HyGRinWX+4V/GgDuqD0rntI8XJqesSaPPpd9YXaRNNtnMTKwBQEAo7cjzE4OODW+7bR0oA5zwrue51+4ccz6pJgj0SOOMf+gGn+AM/8I0iMcmO6u4/++biQf0pngX59Dec/wDLa9u5gfUNcSEH8sU7wXmKPWbQjH2bVbgAezkS/wDtSgDo6Kz9c1q28P6c9/diQxK6RhYkLszMwVQAOpJIFZUXjeOaNZI9D150YAqy2ZIYEZBHNAC6IPtHi/xDcnkRC2swf92MyH/0bXSVxvgbVFn1LW4Jre7tbu5vGvBDdRNGxhKrGrDPBH7vt0yM9a7KgAooooAKKKKACub8SZh8QeGrgcf6ZJAxPYPBIf5qtdJXOeNysOmWt62f9E1C0lGOoBmRT/46zfnQB0dFAooA534hPt8GatHyTPAbcAd/MIT/ANmqPxqoh0a0mHC22oWUhz6C4jB/TNP8cHdp9hDn/XapZKR6gToxH5KaXx9Hv8F6u3XyrZp1+qfOP1WgDoFp1RQN5kYcdGAIqWgCOdtkZbsBk1geAEz4Q0qbnM8X2g5HeRi5/wDQqu+K746Z4a1W8U4aC0mkX6hCR+tWNDsv7N0WwssY+z28cX/fKgf0oAvUUUUAFFFFABRRRQBW1C2+2Wk9sRlZo2jP4gj+tZXgW4N14R0WQ/e+xRK/+8qgN+oNb1c34DXy9Hmt8AC2vruEDHRRO+B+WKAOkpr/AHadUV0wS3kdjgIpYn0wKAOe8Dr53hUyMMG5uLuY+++eQ5/IipfADFvB2jBvvJaRxt9VXaf1Bp3gNCngvRdwIZrOJzn1Kgn+dReAcR6C1sDn7LeXdv8A983EgH6YoA6Smv0p1Q3UqW8DyyEBEUsxPYAZNAGD4FBk0SW5I+a5vruXPqDcPg/kBXSVg+Aoni8GaN5gw72iSsPdxuP6mt6gAooooAKKKKAA8iuZuAIPH1mxJBuNLmU5/wBiWM/+zmumrlvEVuk/irR43zi4s723JHUAiM/0oA6hegxS1j+Hr+Sa0Wzuf+PuzPkT57kDhx7MMMPrjtWxQBznjPH2LTlP8Wq2Q/KdT/Sluxs8eaa2P9Zpl2v5SwH+tM8bZaPRVHfV7b9GJ/pS6mSvjjQCDw1neqfzgP8ASgDpKKB0prOFOKAOb8VKJNS8NRD+LVN2B/s205/mBXSJ0rlLu/j1XxP4daEnykku3DMPvlY9m5fUfMcH/GutAwKACiiigAooooAb5aEY2jmsm78HeHL9i91oOlzOerPaoT+eK2KKAOe/4V54R/6FvST9bVP8KuWnhTQLHBtdE0yAjoY7ZFI/IVq0UAM8mPbt8tcYxjHFZt14V0C9JNzommTE9TJbIxP4kVq0UAc+Ph94TUYXw5pSjrgWyAfyqxa+DvDlkwe30HTInHO5bZM/nitiigBojUAAKAB046U4DAwKKKACiiigAooooAKKKKACiiigAooooAKD0ooPSgDnLIi28ealH0F1p1tKPqjyqf0ZK6OuZvQYvHekuOk1hdRsfUh4WH/s1dKv3RQAj9ucVzngzMlpqNxj5p9Uu2PPBAlKD9EFdDKQBknAwawPh+hPhDTJ2GGuUa6I95GaT/2agBupgw+ONElAwJrO8gY+vMLD/wBBNdIvQVzviNQPEPhl84P2qaMe+beQ4/8AHf0rol6DvQAtc34YUvq3iK5OD5upbFYHPCQxrj8CDXROSOgrnPAw36bd3I/5etSvJfqPPdR+iigDpaKKKACiiigAooooA5qBGXx/f+kmmWxA+kswP/oQrpa5ycmH4gWxPAuNKlA9yk0f9JK6OgArnvGKs0WkqATnVLY/k+f6V0Nc94wznQwO+qwfoGP9KAG+LOJNDJ/6CsP6hxj9a6Ouc8Y/d0Y+mq2x/NiP610dABWb4kmNt4f1KcdYrWV/yQn+laVYHj5zH4I15lOG+wTgfUoQKALnhmA2vhzSoCMGK0iT8kArTpkKCKJI1GAoAA+lPoAKKKKACiiigDlPiDMsWj2ytIkYk1G0G5+mBMrHP4Ka57wLrep21xcTa/qRMbxqG3SmQSTF8b4wB8keCBg/UgYOen+IlpBc+CdbFxBFOos5SFkQMAdpwQD3HUHsanh8D+GEVMeHtIyoGG+xx5/PFAGJZ6rYXPxBs3gnjklnt7tAoIDbMW5yRnI5QjkDp9CezuZFhieRuiKWOPauI062tLL4mrDDBbwA2VysaxxqnAa2OOAM/eNdR4pmNt4b1WZTgx2czA+hCGgCn4EgeDwbowZTuazjkOeuWG45/E0zw8RF4j8ToTjfdQTY+tvGv/sla2iw/ZtEsIf+edtEn5KBWRpOR428QLj5WtbKQe5zMp/9BFAEXjybFnpkXUS6lAMdc7SX/H7lRavq00PhzZpV5El4kSAorqJVAZVfaHON4G4AMcbsA96i+JUNtd6RZ29xBHOsupWgCSIGBPnLng5zxkH2NT6Z4C8NS2MEp0a1ikeNWYxKY8kgE8Lt/kKAMPwRf6ld+J7V9Tdnkexuo4y7I0hjSWEp5mzC7sSHoBkYOK9JrivDXh3TdI8c6v8AZLZUMdnbGNiSxQOZA4BJOAfLUnHXA9K7WgAooooAKKKKACub+IWR4P1aQZzFAZR7FSGB/MV0lc78QuPBGvH/AKcZv/QDQBvxkkZPfmn0yL7i59KeeBQBzfi3MupeGrdWwX1PzCPUJBK38wtaHiS3W68N6nAf+WlpKn5oRVDWR53i/wAOx/8APNbqfH0RU/8AahrfniE1vJE3IdSp/EUAUvD1yL3QtOuR/wAtrWKT80B/rWjWB4Bk83wVobeljCp+oQA/yrfoA5z4ggSeFbuA5xcNFbnHo8qp/wCzV0S/dFc947G7Rrdf72o2S/8AkzHXQjoKAFooooAKKKKACiiigArm/CoMOqeJLUkny9S8wD0DwxN/MtXSVzelMIvHGuQg/wCttbScj3Pmpn8kFAHSVi+NLs2PhHWbkZDR2UzKR1B2HH64rarnfiB83hS8h/57tFB/33Kq/wDs1AGvpdp9h0y1tMY8iJY8fQAf0rF8GkRy67bj/llqsx/77CSf+z10g6c1znhsCLxJ4mgAwTcwz/XdBGP5oaAOkrD8cTtbeENZlT762c2367Dj9a3K5z4gEnwrdRgZ8+SCAj1DzIh/9CoA2tOtks9PtraMYSGJY1HoAAB/KrNIgwopaACiiigAooooAK5zX8L4p8NMe8tyg/GFj/7LXR1zniPjxH4Wb/p+mH/krNQBLrcb6dcR63ErYhGy6VR9+DOSfqh+YexYd624nEiBlIZTyCD1FJMiywOjgFXUhge4PWqPh2G4t9Fs4LkbZYoVjYZycgY5P0AoAzvFuHm0KPu2qREfgkh/pS60dninw63943MX4GIN/wCy03xQc6v4Zj9dTJ/K3mNL4kUpr/haQHj7dKh/G1m/qBQB0W7C5PFYOq3Umq3b6TZSMsajF5cJ/wAs1Iz5an++R/3yOepFW9cv5LOxxAAbmd1ghB5+djjP0AyT7A1JpemQ6faLDFnHUs3LMTyST3JPJoAy7m3htvFugW8MSRxxWd2EUDG0DyQAPwNdJXPah8vjbQ897O8H45h/wroaACiiigAooooAa5wBzjNcHayeKdea41fTdfhtLWWd1tLaW3VozEh2hifvfMQW69CMDiuh8bXktn4cuvszFbqfbbW2P+espEafkWB/CsOy8C6totpDa6V4nmEMMaxJHd24cKoGBjYydh6UAZfiHxN458Os6TzaBNtsri9Vo7aX5/KMYCYMoxkyDnJxg8Gtv+2/G0WfM8PadIOgKXzDuefuH0/Ue9cT4kTxNc+J5fD++x1G7udNaCOT5oEgDsH3kfMWH7jB56kDnNdq7+PlXK2fh+X/ALepR/OP60Ac/a/FLW52tUbTNOhe52kK9zMwi3MVQOyxbVLEEDJGSOM1r6n4g8b2OlXd82l6VEILd5siWSTG1A3I+XPX17GuF0y2v4NFttevNBuNlqg+0GC+jWOcxSkgkE7jgqMdM4GQeldteap4x17Q5orfw/ZRR3lsyqZ7wdHQ4ztB7EfkaAIrHVPHOs3GoW8F9o8MdtKiCZLRwxV4o5AfmkYA4cjoR8vvirLr4g8N6hp+pajrk99ZPcLbXcUgTZGsmFRxtRcYfbnOeGPpXM6PfeLLfxjc6FHa2umSXVrBMWuT5xzHEI2YBeCpIUZzwQARzXS6j4H13XtPuLTUvFTCOaMqVs7cJ1GByzN0PPAFAHeBg3Q5paxfCOpvrGgWd7KNs7x7ZlH8Mqkq4/Bgw/CtqgAooooAKKKKACiiigAooooAKKKKACiiigDnNfIi8U+GZMffluYc/WBm/wDZK6JTkVgeJxt1bwy/caiw/O2mFdAKAKWtS/Z9KvJv+ecEjfkpNVfCEJtvCeiwnrHYwL+Uail8VsE8M6sx7Wcxx6/IataOAuk2SgYAgjAH/ARQBk+K1A1PwzKTjZqZH528w/rXRDpXN+NPlbQW6Y1aAfmGH9a6NfuigCOdgqknsCawfh/GU8HaSx582ATFvXeS3/s1bd+cWkxzjCMf0rL8Cp5fgvQl9LCAf+OCgDcooooAKKKKACiiigDnNfBi8U+G5w2A8lxbHHcNEXx/5DFdHXO+JFL694ZA6reSv+VvKP610VABXOeMDifw8B/Fq0Q/8hyH+ldHXN+LTvv/AAynrqwP5W85oAXxlg22luP4dUtP1kA/rXRCub8bsV0ywIxxqtj+tzGP610uKACud+IfzeC9WQdXgKfmQP610Vc58QSf+EYlVer3Fqn/AH1cRj+tAHRDgUtIhyopaACiiigAooooAzfEtm2o+HNUs0ID3FpLEpPYlCB+ppvh3VI9U0Owvw+RcW8cv/fSg/1rScZUivO/DngyHUTqkkGqX9rBBqE1vBEiQyLGiEDaDJGxwGU454AA7CgCj4nubi38dwahabQtjFczSsQMFC1qCcleAAeSM4UNzngdX4tv1ufAGs3cW7a+nTMM5B5jPY8irGl+C9P0l5p/Mub2eWMws9ywP7s4yoVQFAOATgDOBnpXG65PJ4d0DxF4buf9RLZTyWEhI/eJsOV4GSw5yST0B/ioA9NtRi1iHog/lWFAVi8d3yAEGTTLZyR32yzDp+Nb9t/x7x/7o/lXKatqEeleM57qRkUDSFxvJAyJmxkgHA55OOBQBifEC9ku9c0uyikZYLW7gnnAHDZkRQDkdyykEEg7WHau60WSP+y7TaRt8lMY9No9AK5rR/DS69o08+pNNFPfypOjqAkkQRt0TYxjdn5yCMZYgg1He+CtQtLOWQeJrnEUZIY2kOQADgcLjp7UAavh8/avE/iK8H3Vkgs1J7lIg5/WYj8K6Sub8AWItfDNhO00k097Ct5PI4ALSyKGY4AAAGcAdgAO1dJQAUUUUAFFFFABXO/EM/8AFE62O5s5FA+qkf1roq5v4gnPha8iwT57w2+B1O+VE/8AZqAOghOVH0qQ9Kaq7RTj0NAHOXoDeOdH/wBmwvD+bwCuiH3a56648eaYPTTbv/0ZBXQnhTQBznw9GzwlYx9RGHj/AO+XZcfpXSVzngA/8U1F/wBfFyP/ACYkro6AOe8b/wDIPsP+wpZf+j0roR0rnPHfy6TaP/d1KxP/AJMxj+tdGOgoAKKKKACiiigAooooAK5yELH8QLgAczaXGf8AviZx/wCz10dc4w/4r+Fsj/kFSDHc/vUOf1oA6Oud8dKJNGt4ifv6jZD8rmM/0roq57xwQml2ch6JqVkT/wCBCD+tAHQDgVzumfJ441le0ljZyfjvnU/yFdEvSudtf+R/vwOg0q2z/wB/p6AOjrnfGjN9l0yFek2qWin6CUOf/Qa6IVzvi35rrw9Hn72qofyikP8ASgDoV6cUtIvSloAKKKKACiiigArnvFA26x4Yl9NSZfztpxXQ1zXjPi58OMDjGrR/rFKP60AdKOlGAOlA6CigDnfEgDa/4YXv9ukb8reX/Gl8WFUu/D0hOCuqIBx1JikX/wBmpNfA/wCEk8NMWAxdTAA9z9nk/wDr03xocNoJ9NXg/kwoA25LOOeSJ5UDGJt6Z/hbBGfyJH41ZAx0oooA5vWGI8a+HfRorxf/AB2M/wBK6Sua1sn/AITHw19bsf8AkPP9K6WgAooooAKKKD0oA5nxADf+I9B01SSEml1CQf7MSbR/4/Kh/Ct+WaGCF3mYKiKWYnoABnP5Vw+qeJodK8cXcz2t5dPbabDCiwW8jqGeR2YFlUhThIzg1S1jxff+II/sdnpNwkch2yCVJI1cYztZnVcLxyE3sRkADqACfwGZtT1+/wBQldiWYjDZJACqcfg0si/VT6V6GB8mMYrnPBOitpNgPMMhd15MnDOSxZnIzhSzszY7ZA7V0p6GgDz+FfO+F04UFQRcLxnj9847c11nh8BvDmncD/j0i5/4AK5bTBv+Gky7c/PcjGM9Lh/cV1HhU7/C+knpmzi6f7goA4vx6W0/xBpGonI8qQbv90bpG79/KA6Dr36D0VGRowVxgjPFc3438Py6xpq/Zji5ibejEA7SCGBx/FhlU4zyMgnmua0vxte6HbLaXNhM6xDasTJK5jA7LJGj7lHbeEYDqKAOo8Ln7Dquv6VnCQ3S3UQ9EmXcf/IglrpRzzXnugeKYNX8cRmO3uLd7uweKeOSJ0AaJw0eC6qT8ssnavQVGAKAFooooAKKKKACiiigAooooAKKKKACiikPQ0Acn401COw1jwzLOH+yreSs7IpbaRBIATjsNxJPYKTXT208dxBHLFIssbjKupyGHqDXN69bSX/izR7UXDQJFb3NyhUKSJAY4wQCCDhZXHI71qaQbCxibTbW5R5IGJkQsN4LHcSQMYzuzwMUAJ4vUv4X1dFBLNZTgY9fLarejOJdHsXUghreMjH+6KyvF+u2emaLfiW4hE/2WVlh3DcxCHAx15OB9SB3rS0K1ay0TT7Vs7oLaOI59VUD+lAGT44YLHohPT+17b/0I10gOFrnPHx8nQBe4B+w3VtdknoESZC5/wC+N1bX2yIxkmRMDg/MOP1oAr6tqun2UBW7uEXzP3aoDlmJ4wAOSaz/AAFI7+DtF3drVFU5+8oGFP4gA1T/ALE0G91e5m068ePUJFLTG2lDYzgHcCCATxx3qX4fLJb6CLCSQyLp9zcWUbkAbkjlZV6egAH4UAdTRRRQAUUUUAFFFFAHOeJZDb694cmYkRG7khb0BeFwufxGPqRXR1yviRXu/FOiWJYLEI57xAekk8WwIG74HmM2B1Kj0q9Hr1/DiO/0a6DjrJa4ljP05DD6FR+NAG5XM+IWz4k8MREdbyaQ/wDAbaQf+zVpWOuw6jPNBEk0UsSqzRzxMjbSSAQCBkZBHHpWdqOZ/G2iRHkRWt3Px2OYlH/oRoAXx4wj8OPPtz5Fzaz/AE23EbZ/SukBzXP+OoTL4O1tFzuFlM69/mCEj9QK2LS5FxaRXCkFZEVwfUEZoAsVzfjpvM0uytB9661KzjBPQYmVyfyQ/iRV648S6fBK8KyvczR5Dx2sTTMp7g7QcH64rnPGF5faj4Z1OSW2FpAixtbiT/XeaJFKyHBIUA7SO/BJx0oA7dDlRzmnU2MYUCnUAFFFFABRRRQAjfdNcV4YvGsvCAm+02sTNc3RSe5fYk5M7kMT23jn2znBrs5WCRsxPAGTXN+ArWObwZpfmorq8XmqCOgYlgPwBFAElv4iup40WPR7uaQjhoZopIjj0feOPqAfasb4h6Y2r+BNR/taFILlY2a3WB93luflUZIGck4PGMGuzttPtbNna2t4oTIdz+WgXcfU46msjx9AJvBmtjv9hmx/3waANyBSkMat94KAfyrjNf0SLVviDYrdlTbNpzP5RXPmmOUHbnsP3ikjvjHTIPZWp3W0JznKKc+vFYFwBN8QLVW/5dtLldPrJKgP6Rj86ALE02uWEkrGzgvoMkoYpPLkUehU8HHqCM+lZ1vrD+IUurOaa1slkgeP7OZC0/IxuIIAAHtn6iusZdwwagmsoLjb5sSvsOV3AEqcYyPwoAyvBUr3PhXR5nQIWs4sqvT7g6e3p7YrdrnfAWU8NW9sWLfYpJrIE+kUrRgfgEA/CuioAKKKKACiiigArnPHB26bZsfupqdizfT7THXR1zPjT/TDpWkAH/Tr+JnP91IT5xP4+WB/wKgDozMmcZ/SlLAqT2rltevZlukuLO31GOe2yvmrbmSFwcEqyg5I4HKjIPtkGS2uNU121jeK8s7e1kyPNsyZJDzjALABDxg8EjnoaAEuSZvHenLHn9xp1y8jHuHeIKPflT+XvXTA/Jn2rko7GHTvG9hCPMWM6ZOkJZixdvNjL7iSSTjafxNdbjdGQfSgDnfAUiDw8Ezho7u7Rx/db7RJkGui8xcE54Fcp4SsUv8ARtQDTXETyapeM0sT7WyJ2UEEeygc+lWLtNc0qJxBex3cWcBpbUtKnvhCA35D8aADxvKk2hLsYEi9syM8ZP2iPA5rpBjAxXA63LZx+C725tLySe6sJor2Y3AIlaZJFcB1IBXO0ADAAGMcAV3y/dH0oAWiiigAooooAKKKKACuYupVXx9YkfKYtMuDKT3DSxBR+atXT1ycpMnjLU5Ftzcm30yCPywQC5eSQ4ySAOFH50AdUsitkg1znj0h9DhQdW1Cxx/4ExVQhN1p9wloZ9V0mGRgqCdI7iIE9FWQZK+gD/QCl1XS1g1/w9C01zcie9eadpX3FzHDIycDAABAOAAM4zQB2SnK1zuntH/wnGsMSdwsLNRkdt9wePxroUGFx9a5PUrUP42t4xJLGNQ0yVJGhcqymKRChBHT/XOPyoA60OpGc8etc34qkD6n4ZRf4tSJ3emLeY4P1qC5vdT0qU2Y1LzkAz5r6XLK6g9y0ZCE/gKo6jLbLZ6df22qtqMtrqlu0kkjA7PMcQsCoA2YWQkDAPGfqAdxH9wcEfWnU2MYQAnP1p1ABRRRQAUUUUAFc14tAbVPDKS8QHUyWP8Ati3lKD/vrH6V0tc14l/0nxF4bsiMqLia8b1xHEyj/wAekU/hQB0SypjGRkcH2pTIg6nFc3qvmadftc2c16sjANJH9neeFu2cAgqfoRx1B60ljHP4iR2udZLRodslvaRNbsp9H3EuDj0K0AO8SZbXvDG3r/aDn8Ps02f6UeOwItLtbzvZ6haTY9R5yqf0Y0azGIPEvhk4/diSeJfZjCSP0Vvzp3jtA+j26kna2o2KsPUfaouKAOgDqABnml8xeRnpVLUdMa8VDHfXVq8Z4aFl5z6hgQfyrE1F9VsQsFzqbGB85nttOd5gO+SpKrx32/QUAP8AETBdb8Mzocv9vkix6o1tKT+qqfwrpUOV5rjb6W2juvC19aTG5tUu2tt/mb+XhcAsSTzuAHPPzV2Uf3euaAHUUUUAFFFB6UAcjoNhZ6jqniS6vLWCYtqXkoXQN8iQRLgZ991dDaWNlaHdbWsEJPdEC9sdR9BXB3WlXupeFdSe21abTQurXtxM8JfMsSyyKVyhDDgAjBzwBg9Kp/D7xMsLkXPiqxn0x4s20U5ZHySGyGlAJ4PIy3UdB1APVQB6UjfdP0rLsfE+j6lcG2s9V0+5nXOYoblHcd+gOasSanarcm0e5t1mwP3RkAbB74JoA4uwuIYfhrMZZliXzLvlgOcXEh6HA6DP05rqvCKPF4W0hJBhls4QR6HYKxo/htpMU7Frm9ktGleY2bMnlEu5ZgSFDMpYk7SxB6EEcV0KarYi6WyF3bGc9IhIu8/8BzmgC8xUYzULw21yQ0kUchHALoCR+dc/8Q/E/wDwivh2S6jlSK7mYQWxkGVDnueRwACcd8Y5JArhfAXxF1GbxFZ6LcTzaul7Iy+Y3lrJbYQsWYLj5DgDpnJHJzigDuvFSJZ6j4bvEQIkWoGJgowMSRSIP/Hin6V0y9BXOeP8r4dMwHMF1az59NlxGxP5A10a8AUALRRRQAUUUUAFFFFABRRRQAUUUUAFB6UUGgDmZkE/j60AHNtpczf99yxgf+izU+teG21S5W4VrJyF2+VeWizoPcfdYH/gWPao9P8A3njvVGzkQ6baRj2JknJ/QCujoA4rxDpMNhpNjpsNnZR3moX1vFvtYBEpKOJWYjJOAsTHBJrs4xhAK5/xRzrXhcHp/aMn/pLPXQrwKAMPxzx4P1vC7z9guML6/u2qtN4WguobaW1tNFLFFMklzYiVpDgc5DLz9c1u39sl5aS20ozHMjRsPUEYNZfgW6e98GaHcSEl3sYSxPc7BzQBo6bZNY2qwuYSw6mKIRqeeyjOKx/BuY01aBuserXX4Bn3j/0Oukrm/DK+VrXiWEk5GorIAfRreI8fjmgDpKKKKACiiigAooooA5a/h+1+O0heSRCmkyGFkIzGWlUMwyCMnC8+1X/+EbEgAm1LVZMel2yZ/wC+NtVov3vj+8JH+o0uEA/78shP/oAro6AM+w0a00zzDawKjSkb3LFmfHTcxyT1PU96yNHTd441xmy5itbSNHPJjyZSVHoD8pPrkegrp65zSsf8Jxrvl/c+yWe8esmZufrt2fpQB0E0aTRPHIoZHUqwPQg9a53wCxfwlp2CzR+WfJLn5jDuIiz77Nua6Wuc8BqF0FlQ/ukvLyOEf3YxcyBR+AAH4UAW5vDGnyzvOsclvLIdztbzPCWPcnYRk/WqGv8Ahq2GgaqhuL+RZLOZCJruSQAFTyAzEAg85rp6pa1bPe6Pe2sZw88Eka/UqQP50AN0C7lv9C067m/1s9tHK/GOWUE/zq/WR4QuEvPCmjXEf3ZLKFh7fIK16ACiiigAooooAz/ENx9j0HUrn/njayyfkhP9KZ4YgFr4e0y3A/1VpCh/BAKq+PH8vwVrp6E2E65+qEf1rYtoxFCkY4CqF/IUASkhQSe1YviZo73wpqjROskcthMVZTkMDGSCKd4iv5baweGAA3N032eAf7bcAn2HLH2U0XNktv4Zmso87IrNoVHsEwKALmiyedpFjJ/et42/NRWROufiBbY76TLn8Jo8fzNXvCj+Z4X0eT+/YwN+ca1Tl58fwH+7pUn6zJ/hQB0DMEUsxwAMk+lNiljmjWSNw6MAVZTkEHoRUV4DJbSIP4lK/nVDw5JH/YthsyFEKLgnkYUD+lAFLwR8tnqUf9zVr79Z3b/2aukrm/B75uvEMeMCPVpAPxjib/2aukoAKKKKACiiigArnNZ+fxn4ej/uxXcuPosa/wDs9dHXO3eJPH2mjPMOm3TY/wB6SAf+ymgDoiAeoFZdzefZtXs7KKFD9pMkkhHBUKBzgdcsVHPrV65mFvEZGZVReWLcAD1rF0Rm1K7m1qRWUTgR2ykYKwg5BIPQsefptHY0AM1bC+NNAJ6G3vB+P7o/yBroiMgiuc8QEp4p8Mt/emuY/wA4Gb/2Wuj/AIaAOe8CDGhyA/e+3Xm4+p+0SVp314bW7sYVQN9qnMRJ/hxG75/8d/Ws7wOytoTMucG8uzz/ANfElP8AFDG3tYb8Ej7Fcx3DY7Jna/5Izn8KAI/GthHceE9bURqJHsZRuA5JCErk98GtnTrj7XYW1x/z1iR+PcA/1qLUI/tWm3ULY+eF0/MEVU8HTef4S0WXOd1jAc+vyCgDYooooAKKKKACiiigArmvDR+0eIPEt3nI+2R2w9hHBGf/AEJ2rpa5zwQA9nqNx3m1O8Yn1xMyD9FAoA6MgHtXOa2f+Kq8OqAMhrlufQRYP6kV0dc3q/8AyOOgf9crsfjtSgDok+7XN6qPs/jXQp8cT293a/iRHIP/AEUa6UdPzrnfEQxrXhg9/wC0JBn2+zTUAdCo+XkVzXj63ij8KandCJfMiRJywAy3lOHGT/wGunAwKzfENpFqOkXWmyuii9ie2G49SykUAaETbowfWnVk+E9RbVvDOl3z/wCsmto2kHo+0bh+ByK1qACiiigAooooARuFJ9K5uYef48tiRxa6bKQfQvKgH6RmukfG01zekD7V4z124PIgt7S1Uj1/eSH/ANGLQB0igEDgUh2Ic4AJ9utOHFZOsXMpvLCxtpCks0vmPgZxEhBbPsSVX/gVAFHxP/yFfDbjgjUj+IMEwpfHAxpFtJj7mpWJ/wDJqIf1pniQM2s+GATx/aTH8raan+Pfl8Pp7X9gf/JuGgDogwPHelwPSszTbyabUdStpSuLeVBHgY+Vo1P487q06AOb8dxLB4bnvY4xnT5otQIUfeEUiyN+aqwroYXDxhl5B5B9ah1K1S/sLi0kAKTxtE2fRgQf51meCbuS88K6c0xJnhi+zTZ6+bGTG/8A48poA3KKKQnFAC5FRTLKyP5RUPt+Xd0zjjOKYXAJ5OcZz2qYNnpzQB5DFD8TPBd1cvBaWOr6QZp5jbbsSgM2/KMO5LN8pB5B5wVrA1PV/B51CVtS0jxD4YvZZC0zwQCaCRsncTsz0bPzEAj6cV748QcYJI+hqvNpdncxNFPAkqOCrK6hgQeo5oA8t8F6f4HTXI9T03xVa6oYIituktxGJIpHGGYqFU5I456cjAxx2114dttckZ9Uunu4WPywJ+7jVewOOWPqScegFVL/AOEPgnUZhNNoNqHClAUUL1OSfc5A5Pp9ayZvgR4SLAwLe2+0FVEc+FA5IGAMcHGPoM5oAzX8PWg+Gl7qcdxqi3cdrcOso1K5HKlgOA+OMAYx2NdpZeHdN0Zkksbu5sUiwzRiQNGVHUHeDgfQjrV6Lw5pkOgDQBbIdPEH2YwnoUIwQfqCa4+3+BHhBGDzx3d0+xY8zzbxgZJ4IPUsSffpigDU8S/EXwFYwPbaxrek3HPNpuWdyef+Wa7j2IyR14rmIPiklxIIPCHgXUZCW2LPcW4tIQCcZ4BYjJyfl6A+ldjp/wAMPCGlyiW20Kz3hDGC6BsDIPAPA5H6n1roo7KCFFjiQIigAKoAAH0FAHk83hL4keOWSXXdUtNLsZPKd9Ot9wVcMxIY8s54TqQOW44GfW7aN4reOOSQyOqgM5ABY+vFSBQtLQAUUUUAFFFFABRRRQAUUUUAFFFFABQelFB6UAc3oahvF/iKUE4VbSL8kZv/AGeukrm/DRz4i8Ue13Cv/kvH/jXSUAc/4m/5C/hg/wDUSb/0mnroK5/xN/yF/DA/6iTf+k09dAKAIrqTyoJJP7ilvyFY/gRPL8E6COn/ABL4D+cYNX9bfy9IvXzgLBIf/HTVTwmGi8LaNFsOUsYFOeORGooA2a5vSh5fjjXo+0lvZzf+jVP/AKAK6He46r+tc9bb18fag5QqjaXajJ6Eiaf+hoA6SikByKWgAooooAKR/umlpG6UAc1om6XxV4kueoSS3tFPssQkx+cprpq5vwipa78Rux+9qz/pDEP6V0lABXO6EQPFfiRcc77Zs+xiwP5GuirnNH/5HTxCe3k2f54k/pigDom6Guc+Hv8AyK9v6ia5B+vnyV0hrnvAqhNEkT+5fXq/ldS0AdDTJBkfjT6RhkUAc94BBh8LWtsylTayT220noI5nQfooroq5nwaCiaumT8mrXOP+BNu/wDZq6agAooooAKKKKAOc+I3/Ija1j/n1etya6itYGmlfZGgLMx4CgDkk+lZHj1Q3gnXc9rGY/iEJFRXA/t7U1s5hmytFSadO0spyVQ+wA3Ed8rnjNAEmkI+ragdanUiEgpZRsMbYz1kI7M2B15C4HUmtTU8fYpwehifn04qwqjAPfFVdYYR6dcyHOEhcn6YNAGf4QYxeFtGi5+SxgXnGRiNevvVch28fOQpKppSDPYFpm/+JFWPC4P/AAjeksSTmzh5bAz8gPOKgs7kXPjDVICp3QWdrz2+Z5uP0oA3CSVIAb8e9ZOmS/YtRudMlCq2TcQED70bH5vxDkg+xX1rYVdxBPI9/wCVZ3iDTnu7ZZrX5L20Jmt29WA5Q/7LDIP1yOQKAKfhkmPXvE8HYX0Un/fVtD/hXR1yXg++TUNd1y6QFVuVtJ9p6jdCBj9K62gAooooAKKKKACuanB/4WJbkf8AQIl/9HR10tcb4vvJdN8QQ3NuQsx0e+2t6ESW+D+BagC5N5viS/exTH9m27Yun7XDg/6oeoB+8f8AgP8AeA6OJSiAEAYqtpllBp9tFbW67YokCKPb/Hufc1coA57xIhOu+GHAzi+lB/G2mroD92ue8SOTr/hiNTyb2Z/wFtL/AIit9m2xlmPQE0Ac/wDD8Z8LW7/35Z3/ADmc/wBa3rmJJ7eWKRA6OpVlIyGBGCDWH8PUZPBWjb+r2qSf99Dd/WuhIyKAOd0i6Npbz6NdyM9xap+7kbrPCc7Xz3I+6fcZ6EU74ff8iPoX/XjD/wCgim+LYltra21BB++t50QHuUdgjL9CDn6qPSnfD4Y8DaCP+nCD/wBAFAHQUUUE4FABRUYlzwAWpdz/AN0fnQA+imeYR1UgevWnKwbpzQAjyLGCWOAOTXO/D8MfCmnSvjNyjXRI7+a5kz/49Wh4lu/sGg6ldk48i1lkz6YUn+lVtKlg8P8AhSwa6kWOG0s4Y2YjphAO35AUASeI7mVIEs7VmW8vm8mEjqg6u/8AwFcn64HeqWuuIvFHhkkffkuY8/8AbEt/7LVjSLWW7nk1i/jMdxMuyKFutvFnIX/ePBb8B2qDxOfJ1fwzcdl1Foz7B7eYfzxQB0i/drnfEGP+Eh8Mp3+2Sv8AlbS/410S/drmtbHmeMPDa/3BdS/lGF/9noA6YdKx/Ex8q3srknAt72FifQFthP4b8/hWuuMcVn+ILN9Q0a7tYjiSSJgh9GxwfzxQBk+CD5GnXlh1NlqNzDj0UyGRR/3xItdPXI+ELuO41vWnQnZdi0v1H90SQhf5xGuuoAKKKKACiiigBG+6a5zwaPOm16/xxc6nIqn1ESrD/OM10E8ixQySMQFVSxJ7ACsLwBGU8I6a7Aq9xEbpgf70rGQ/qxoA33OEJrD0MNqN9eawfuu32e39PKQnLD/efcc9wFqTxHdzJBHY27hJ75/s8bDqgIJZx7qoYjtkD1rSsbaOztYreJQscSBFA6AAYA/IUAYXiMAa34aJ4/4mLfn9ml4p3j//AJF4f9f1ifyu4qTxSu3VPDb/AN3U/wCcEw/rS+O8v4dIyB/plkeen/HzEaALC/6H4qycBL61A6fxxMf5iT/x2tsHNYniRWhtIdSQEvp8onI/6Z4KyD/vhmP1ArWgcSxhgwYHoR0IoAfJjbzXN+Fj9kbWLQE/utRmcKcdJAshx7Zc/lXSOMrjpXNWhFt4x1K3yR59rBcgYGCQzqcH8FoA6MuNuQMk9BTNxB6N6+wpCc4B4GOo9KFXjaP8+4oAVU3nopI9akVMdeSaVUVegp1ABRRRQAUUUUAGBRRRQAUUUUAFFFFABRRRQAUUUUAFFFFABRRRQAUUUUAFB4FFB6UAc34aGPEXikHveQn/AMl4/wDCukrnNEYp4v8AEUOMZW0mz65Rl/8AaddHQBzvibnXPCw/6iEp/K1mroC21fc9K5/xCN3iTwuv/T1O35W8g/rW8Pmcn04oApa2wj0e+lZh8tvI2TwB8pp+lMDptqIxlRCmD2+6Ko+LwX8K62Bk4sJ/xPltV7S49umWgYYAhQYPQfKKALO5v9g+2axrOeKXxbqMeMSRWlsG9OWlI5rZBjPB21i6XbRrr2uXa8l5IYSD6JHuGP8Avs0Abf8Aqzx93+VSVEuPuk5HUfSnITjHpxQA+iiigApG6UtI33TQByegPOB4p+zAGZNSm8sEZBbyYiP1NdDpd6uo2Ftdp92eJZB+IzisXw0gj1fxNCDz/aayH6NbQn+hqfSpDo+oPpMvyQTM81mx6MCctH9QSSB/dPsaAN+ub0RQfGPiN++LVfyjY/1rpAciud0EZ8U+JH/6a26/lCp/rQB0Vc94HP8AxKrsemp34/8AJqWuhPSuc8DqUstSQn7urXp/76ndh+jCgDozxVSbUYYbyC1feJJw5Q7eDtAJGfXBz+Bq2frWDLJ9u8SW0SEFbGJ5Zj/dZxtQfiN59gB6igCDwa286246HVrgfkQv9K6Wub8Ec6ZeTg5E+p3rflcSL/7LXSUAFFFFABRRRQBznj+QnwnfwqxRpwluCOxd1T/2atOws5bfUdQnbb5dy0bpg8ghApB/75H51neOoJJfC99JEhd7YJdBB1bynEmB7kLitu1njuYVmicPHIodWHQgjIP5UASCQEkehxWP4umSPw3qhZyi/ZJQWH8Pynmobm61DR7yaVopL6wkct+7G6aAnqAo++nGePmGcYPah4r1C21XwXq0lnOk6/Z3DgHlcjkEdQQM8HpigDoLGBLWzt7aMYSKNY1B9AABWVozm58S6+QqjyWt4N3cgR78H6eZW6iDYu0/LjisPwugGueKmHfUIh+VpBQB0Srtqlqt/FptnLczciNMhR1Y9Ao9STgAepFWbl5I4HaIAuB8oboT6Gsa30m6u7qO+1iZJpYjmG3iBEMJ/vc8s2CRuOOvAFAGX4EspLDU9Xt5ceZDHaRyAdn8ncw/8eFdlXN+HefFHigjp9otx+P2ePP6YrpKACiiigAooooAK5XVbWLU/GsNlOpaI6RcqwBwcPLED/6DXVVzN0pt/iFZSsfkudMmiX/eSSNsfk36UAb0k0VjH5k8iohIXcTgZJwOT6kgVMG3LkA81FeW8F7bvb3ESSxOCrI4yrA9iKxVg1nRfls2/tOyXkRTPidB6K54f6Ng/wC1QBHqgNx420OHIAhtbu4x75iQfo5rV1+4+y6BqFx08q1lf8kJrmrPUotW8c2MyiVGTTblGSRCrIwmhyCD0PQ+4ORwRW141O3wZrh9LCf/ANFmgCfwtbGy8N6VbdfJs4Y8/RAP6VoPMqhs7vl64FRaeMWcA9I1H6VTvLfT9XuJLCd3cwlZJIVkZQwbIAbGMg4PHTjmgDMvbxPEEpNuS2m2G6aaXnbNIoO1VPcKRkn1AHri94ITy/B2hr6WEH/oAq9c2sUenS20SJHH5TIFUYCjaQAAKoeCZfP8HaHIP4rCD/0AUAbZIAyajGX5PT0pX5Kr+NI5OQB1P6UABcZwoyf5UhZh/cH40BcjA4Uenej92vHy0AKJMfeGPccigqOGXr7d6QqOqcfToaRTtOegPBHoaAMLx7IT4P1ONcZuYfswz6yMIx+rU2G1Os6q4Jzp+nOFjQ9JJwBlj6hMgAeuT2FJ40y0GmWqkYudUtBg9wsokP6Iam0G6jtLy80y4ZYrjz5Jow3HmxuxYMvrjODjoR7gkA3YkKJtPasDxsNlnptwTgQapaMT7NIE/wDZ66LIrnPH6hvDTsTxHdWkp9gtxGf6UAdChyua528PmePtLT/nnpt2/wCJkgGf510SDC9c1zy7ZfiDt7waTn/v5N/9roA6MdKZKMqPrT6zNf1B7CwJtwHu5SIreP8AvyHoPoOSfQAmgDl/C2LLXrFQQEvtLZF9/s85A/Seu7rjrmxGjax4RjXLLG01iZDxndAWyfqYh+NdjQAUUUUAFFFFAGB46u3tfCGrtCSJntnhj/33GxcfiwrVs4YrC1jgjXbFCgjUeigYArD8Zj7QulaaBk3upQBh/sxkzH9IiPxrS169aw0ySSEbp3xFCp7yOQq59skZ9s0AVdOI1PXbrUScw2ubO39zwZG/MBf+AH1reqlpOmxaXYQWsRLCNAu4/wAR7k+5PNWZJVjZVZ1Bc4UE9T6CgDA8YNsbQ39NVhH5hx/Wk8cjdocUQ5Mmo2Kj3/0qI/yBpPGuDb6Sw/h1a0P5yAf1o8Z5ZdEj5w+rW+cexLf+y0AdDKqvCysAVIwQe4rF8NTizhm0eQsZLFgiEnl4SMofwAKn3U1q6hdxWNo9xMSI1KgkDOMkD+tZOuxNZSw6xboWe1UrMg5MkB5YAdyPvD6Ed6ANuRwE4OM1z2pzfYvFmkTeWGW7hntmkPYjbIo/JXrcSWK4iSaF1eORQUdTkMDyPzrE8WyG0j0y/UACDUYFkzjAWRvKJ/8AIgoA3VQnOMev/wBepVTHPekRcd85p9ABRRRQAUUUUAFFFFABRRRQAUUUUAFFFFABRRRQAUUUUAFFFFABRRRQAUUUUAFB6UUHpQBzUX+i+Ppuy3ulofqYpW/pMK6UHIzXMawnkeMPD05z+/S6tPxKLJ/7RNdMv3RQBz2u8+KvDQ9HuT/5BI/rW9H/ABfWsHXOfFvhv/t6/wDRYreXhyPXmgDO8Qc6DqQ9beUf+Omrdp81rbKenlj+Qqh4q3L4d1YqdpNnMQfQhDVnSZfO0qykY4YwI2e3KigC2z9cKCorn/CErXD6xcEttl1KfZz2QiLH0yhrcldYo2ckHAJJ9BisLwBGf+EV06dic3MZuTxjLSs0h/8AQ6AOgBwwHo2PwxT0++1MHzPn3z/SnpyS3rQA+iiigApHPy0tBGaAOZ0f914x8Qx4wZUtJ/zRk/8AadbWo6Zb6pbeRcLkAhlZSVZGHRlYcgj1FY8S+X4/vSCcSaXAWHoVllx/6EfyrpOlAHOC/vtBljg1Z1ubVjtW+UYKknAEqjgEkj5hwT1ApPCo36x4mnzkPqCoPbbbxAj881uXlpDfQSwTKrxyoUYHuCMGue8Bwtbx6zE0jSsmpSIXbq22ONcn34oA6muY8N3cGnxeIJriRY4YdUnZnPRRtRiT+Zrp65nwzbw3T+I4J40lifVJVZHGVYGKPgjvwaAJZNR1HV3X+yrR7aM9bu8QqAPVY+GJ+u0fXpWhp2lRaRbGKIs7sS0k0hy8rnqzHv8AyAwAAABVVvDcMDZsb7ULIjoI5yyL7BX3DHsBVTXE1200LU2GowylLOYxSCApIrhCVOQ2Dg+gFAD/AIfjHheB85ElxdSqfUNcSMD9CCDXR1neHEtk0DTVtIxHbC2j8pR2TaMD8sVo0AFFFFABRRRQBHPGssMkbgFWUqR6giuM8Ja2IfDen6bCPtF9AjQeXn7qRu0Ydj2B2/U84FdZqN2tlZXFw7BUhiaRmPQAAnNc/wCB9Bt9G8OWij97POnnTzHIaRn+Y5/PAHYCgDoRyoI5Uj8c1ka14Yt9XgusAQzT28kDSIMbwykAN64JB56EcHrnZVAeAaqavrNpo6I91MF3g7V6lsDJIHoACSeg70AR+FNTOr+GtMvWGHmto2cej7RuH55qr4Z/5DPij/sIp/6SwUeBbZ7Twho0cmQxtI5GB7FhuI/DJFVdHvI7LxV4gtJZkSS5uILiNWOC26BUwPU5hY0AbOvW93Np7NZEfaInSVULbRJtYEqT7gEfjRpOs2upQM8TMrocSxOMPE3oy9Qf59RxWhwwHP61k6voVvqJ86J3tbxVKx3MPDr7Hsy5wdpyP5gAo+Bz9ph1PUxlk1HUJpo2P8Ua4iQj2Kxgj6101c38PmI8J6bbOAJbKL7DMB0MkJMTkexZCR7EV0lABRRRQAUUUUAFc14uBgvNCv0Y7odRjiIz95ZVaMg/QsD/AMBrpa47x5bz6td6PpFs22SaWWcknGAkTDOexDSKfqBQBetJrvxBcCa1lNtpkbZWVfv3eD/Dn7sfv1btgcnoEQrEFOCajtoo7aNIo1WONFCooGAAOwH0xVS/1/T9PYxz3kKy/wAMQbLk+gUZJ/KgDJ8RwfY9e8PajGAGa6ezl2jGUljY8/8AA446t+N/+RJ13P8A0D58/wDfs1kapf3eq6loMMlq1rG+pCWNZOJGSOGVizL/AA87QAeeecHiuh8S2Z1Dw5qdmvBntJYx9ShH9aALdh/x5w+uwfyrO1XTbpLtdV03yftKKUlikO1LhOoBODhgc4PI5IPXIztF8WQnSLC4v4prOOe2ilSaRf3T7kBxuGQuM4w2PxrTl8VaJDF5kmsWCrjOfPX/ABoAzdU8X2kGhaldOskF1aWzyPazjbIpAOOAcEE4AYEg+tbHh7TjpHh/TtOY5a1to4SfdVAP6isTx9YW954S1K6SON57a2knicYyNqkkD2IHTpXUQOksEbocoyhlPqCOKAA/6z8KG/1n/AaV+HVvwpH7N6UAJkiIY9qX7uFUCmggKQeVPSgEbgSwb2oAXOCCOOcEUj8E+4P6UuOQD1JyaSQ5bH4fnQBgeKyDqfhhe7ap/K3nP9K2b7SrTUoxHe20FwgOQJEDYPqPQ1i6qftfjXRLTOFtLe5vmJ/vYWJR+Urn8K6G4uIrZA80qRqzBQWIAJJwB9SaAMpPDMcbExX+pxLnhVu3YAenzE1W8U6PLL4P1Ozgkmmm+yyeU0jFnLgFl578gV0SNuGcg0koDIQehGKAK+l3sepaba30OPLuIklX6MAR/OsbTiJvHWsvj/VWFnEPxedj/MUvw/b/AIpDT4sEfZg9rz/0ykaP/wBlpNGIHjTxCvcw2jfhiQf+ymgDom+6cDJx0rG03SZ3ujqWpmOS7IKxRoSUtkPZcjknjLcZxgAAYraPSk4HegDnPHKmLRY7xcCWyu7a5RvTEqhvzRmH410YbNYHjuCW68I6stupeVbdpEUfxFfmAH1xWxY3UV7bxXMDh4pUEiMO6kAg/lQBYooooAKKKKAOa1U/aPG2h24GRbwXV2f9k4SMH8pGH4VYu2/tHxDBbjmKwj+0OO3mPlU/IBz+INQacftXjfWpiMi0tba1U/3STJIw/EPH+Qq14aUXEN3qJ63lw7r7Ip2J+YUH8aANlPuD6Vj6uBJreixHtJLN+UZX/wBnrZA4rHvwD4l0vPa3uT+sVAFPxt8mmWbj+HU7E/ncxj+tO8UnOo+HIv72p5/KCZv6UeOwBoCv/cvrJ/yuojUfiZsa54VXP/MRkOPpaT0AaXiiE3Hh3Uo1+8bdyv1AyP1Aq0GEi5XBzyRjPFQ6sxbS7xVKs3kvgD/dNJpbGbTrWQghmiQn2OBmgDNtmi0G7S0c7bO5kP2cdo3OSY/ZTjI7DkelL41tzdeEdUSP5pBbvLH/AL6jcv6gH8q1NR0yDULOS3nQkMuARwVPUEehBAIPYgVR0q5eaO40rUADdQDDkjAnjIO2THuAQR2IPtQBqWF2l/Z29zGcpNGsikdwQD/WrFc34Adj4VsLeRtz2YayY+piYx/+y10lABQTiiszxHq39g6FqWqld62VpLcFP72xC2P0oAv+ehwQc56e9PRg67h0NefaJ8OtK1fRbe/8Swtq2rXcSzTzzyuRG7AErEAcIozgAY4wTzVPSfEt/wCDG1XRrmWTULPSdQtkFxcSFpYrO4A2kt1bYxIyeqjk5FAHp1FYviHX20qTTbW2jSa71C6WCNCcAIAWkc47Kisfc4HesNPEfizVde1rT9IstFEGlzxwb7ueQPIWhSTOFUgD58de1AHbUVx2teJPENtrumaJpdppcl1dWc11M9zK6opjaNSF2qScmTqewq/4T8SXOvWt6Ly1jtb3T7lrS5ijk3p5igNlWIBIKsp5APJHagDoqK4zwn49k8R65qOnSWi28MYMthMGz9qhWRonfGOMOvqeGU961bHxBNd+JtU0cwqqWMNvKJAcljJvyCMcY2frQBvUVgxeIZZfGE+gmFRHFYR3glzyS0jLjHphc/jW6udoz170ALRRRQAUUUUAFFFFABRRRQAUUUUAFFFFAHN+Nj5EOkXwODaapbnPtITCf0lroo+UGf1rnPiOSvgvVHUEvHD5ikfwspDBvoCAT9KfpviuK71FdMe3miucEkK0cigDnJKMdoI6ZA/OgA1s/wDFX+Gx3xdn8Ni/4it9lLAEcEciucvWNx490uNjgQaddSr7lpIV/QfzrpV5FAFLVUW40u8hdch4XUr65UimaGv/ABJLDY3ym2iwCM8bBS6/cR2ejX11KdqQ28khPoApJ/lVDRpP7H8H2L3buGtNPiM2PmbKxjdgYJJ4NAFnxI5g0DUJC2MW8mMcc7Tj9atWFqlnY29nCoSOGJYhjoAABgflXIeKtbXVdCCW9tetazT2we5kTYmxpkBABILZBxwD9a7lAAgwMcUARhTyAMZ7+gqYdBRiigAooooAKKKKAOW1yZdI8W6ZqDNiG9hkspR1IKhpUYfQLID/ALw9KvP4mhnwljY6heMf7sBjXj/ak2j8iaq+JyE17w0zjKG9kQj0YwS4P6EfjV648M6bNK8zx3JkdtxIupRg+wDYA9hgUAT6dLfziR721itRkbEWXzGx33cADt0z9ayvBBE0GqXif6i71KeSE+qgiMn8SjH6EVr2NidPR0S4upo2OVWeQyFPYMeSPqTWR4FB+x6iyjFu2p3fkjsAJWBx7Fw5/GgDpT0rmvCUgTUPEVuwxImpFyuedrQxFT9Dz+R9K6U1y/hRAb7xGxGZ/wC1GV37lfJiKD6BSooA1tSnv4THLZWiXSgnfH5gRyMcFSeCc9iR9a5/xdriaj4Zv7COO6tLu5Edp5c0ZVl86RYshuVbG/OQTWyfDNncO0t297cyMxP7y5cAZPQKpCj8qzPFWnW2naPZ29qrr5urWRAaVnORcRseWJPRSfwoA6iBEjhSONQqKNqqBwAO1SUiZ2DNLQAUUU122jNADqjkfHTHrk9qN5I44OQOe1MZS6kHJ7GgCnrNkNT0m+snJC3FvJC23rhlIyPzqDwxcLf+H9Nuo2JWS2Q9MfwjIx9c1pBGII5YnuRisTwAFHhiBRjas9yq/wC6J5AP0AoApXVt4qubqXdsjt97BFguRFlcnGW8t2zjGcFep+tZ2u2s+neG9bI0V4bh7CcfahdC4LYQkAu2H59MYr0D5e5/WqWr29tdadc2tzIkcNxE0TFzgYYbe/1oAlswqWEAQAIIl2gdMYGK5y00201fxN4kFzBHPEv2W3dJFyNyxmT+Uoq74Nv5L/wtpzzcTRwiCYZ6SR/I4/76U1B4KnilXVp2lQz3Op3LMhI3AI5hXI9MRCgCo+halNKYrFbuyhDEeZNqDuMA9Qgyce25auy7vBnhm+up7ue/ktoZLktM5O4hSQoySQMgADJ69a3Z0IjcxMEkIwrEbgD2OM81y3iBtYv9A1LTL3SXmkntpIVubRkKElSA21mDLg845x6mgDa8MaS+jaLaWsz+ZcBTJcP/AH5nJeRvxdmNa1Z3h/UTq2iafqH/AD9Wsc//AH0oP9a0aACiiigAooooAK5rX/8ARvFfhu7IO15LizJ7DfFvH6w4/Gulrm/Ggwmjuo+ddWtMe2ZAD+hNAGnrmkHWrL7L9qlthvDM0eMsB2PqPb2rNs/CMmmxbbLVriBsc7Le3Cn8BGK6IkDqQKrz6hZ2yO813bxBM7i8gAH1zQBzTwXUPi/RY72eO4cWl6yOsewZ3Q9snnBP51v63dLYaJfXTnCwW8khPsFJrmNY1q3utU0TUrR5JYLW/FvJMEIjZZlaPCsfvfOY+mR71oeP5GHhDUY1PE6Jbn6SOsZ/RjQBPoGnXUXhHSrJJlgnisoYy5TfghACcH6U3/hE7WVw1/PPfyZHEuFjH/AFAU/iDV3SdYtL1pLdHMU8PDW8o2Og9cHqPQjI96fqVib9V8u5ntpom3xywt8ynB7EEMME8EEUAZ/jaRrPwlqZjUNLLA0Eanu8nyL+rCtqxthZ2cFspLCKNYwT3AAH9K5LxjFq0Hhm9lvbq3uobQR3PyW5jc+XIrnJ3EdFPYV2aHcgPtQAMu4YpgJX5W/P1qSggHqKAI/Lx904Hp1FG1v7wH0FBjAPy5H40bMkZZjQAAheFGWppUqc43H+tShQOgobhTQBzNsDP4+vzkMtvplshz1DPLMT+irXQXtpDfWr21xGksUgwyOMgj3Fc7oU0La54ov5ZEjWK6ity7nAVY7eNjkntmRquL4guL5saTp8t2n/AD3lbyYT9GIJb6gEe9ADFsNW0fiymS+th0trhyroP9mTkkezA+m6rEfiBt6R3Ok6lbu3Q+WJV+uULYH1xTGtPEFwQ0moWVuOf3cVqz4/4EzDP5ClbTdaUZTXFJ/27RSP0I/nQBV8HSCA63p/X7LqcxHsJcTfzlNM8NOJNc8SXsnX7ZHaKe2yOFCB/wB9O/503wrG8eteJhKwLfboySBjI+zQjOM+oNR+ErO21XRLqe6giuYrzULq4CyoGBHnOqnBH91VoA2LrxNpVrIYXu0ecf8ALGHMkh/4CuT+lU7Aarql6t1KG0+0izttyQzy8dX6hQM52g59SOlPtNG1OwBWzvbCOLJIiNhtHt91x/KlN7rlllp9LhukHG60m+c/8BcD/wBCNAG1szEUYA5BBHb6Vz/w9JHhOxgJJNp5loc9cxSNH/7JWhp2t2ups8cMrLPHjzIJUKSJ9VYA49D096zvCpFvq/iKwGAiXq3KAH+GWJWJ/FxIfxoA6SiiigApGbaOmaWormZIImlkYKiAsxPYAZJoA5PR7zytN8TeIBtzNd3LqT/dgUQj/wBE/rXR6LZf2dpdraYA8mFEPuQACa5nS7Gab4Z26CFmnu7YTtGvUmVt7f8AoZrsYwQOaAH1jar8niDRpP73nxfmob/2StknArD199s2lTk7RHeqCf8AfVo/5uKAI/HUUk/ha8WIZdDFIB/uyK39Kr+IGMniHwt93i8nb8raUf1q34sdl8LarJ94pZyyAeuEJx+lUb7yZ9b8NtvYt+/mjTHH+qwef+BigDX1l/J0e+kBYBIJH6dMKT1qzpII021Dfe8pM/XAql4nYxeGtS4yXt3TA7lht/rWrCgSMKvQDFAD6wvEyG1EWrwrmWyyZAOskJ++v6Bh7qPWt2mvGkgIdcgjBHqKAOb8ITBL7XbEEFYb7zoyBwUljSTP/fTNXTVyumQRaZ44ubaFVSG50yExIOg8l2Uj8pErqs5oAKzvEGkpruiajpcjbUvbWW2ZvQOpXP61o0UAefaD46i0TSbXSvEtjqdpq9pEsEiR2M06XBUAb4njVlYNjIGcjOCBUmgeGJ/EFl4kv9ds3s/+EhPlrauQXht1j8tA2DgOeWIB4yB2ruhEgzhRzyacFCjA4oA87+H8Wra1qn9pa5azwzaNbDS4jKpUSzZHnzLnqG2xgH6461kzwaBa+OvE0+vRaykkl5BJbG3ivDG6C2iGf3IKt8wI554x7V6yEVegpSinqAaAOA8S6XdeIPF+jPY3eo6cp0q7K3tugBXLwFVYOpHPJwQD8tZ+mSahpXgO/wBHs9OuYNf+0mwllKu6y3MpA+17znchDeYTnjG3jFeneWuc4o8pM52jNAHmEnhbXfCc3hzUG1C1v7TSGSx8i009o5Ps0m2MknzG3AEIxGP4SavjXrPwz8QNfm1FL5Yrm0sxE8NjNMrFRLu5jRhxkfnXoJQHqKTYp7UAcDfa5aaL8QpNUvY75bS60eGOKWKymlBYTSMQdiHBwwODjrXc2d3FfWsV1AXMUqh13oUbB5GQwBH0IzUhiQ5yOvvT6ACiiigAooooAKKKKACiiigAooooAKKKKAILuITQMjKrgggq3RuOhrnfAaovgzSxGAri2VHGOjqNpB+hBH4V07gkcVw39tx+DtV1LT7tDFaTTG8t5ZAwj/ecuu7aVBDiQkEjAYevABFoMkz+OLSO+lme/i0+7+0LIw2g+Zb4KAYAQjkHGeoPIOPQF6VwWna9b69420ubTjDPHFZXSTTQMZFUFoyFLAYByuQM55PHFd4n3RQBDe20d5bSW8yh4ZUKOp6MpGCPyzXG/DWe5vdFgSe4a5hjtrYh5BlhI0QZ1z3AypGeRkjoBXbtg4BrzXwh4l0zw7oUWnzX2jWlzb7o5Y7m+8mXcvyAsrLnkKOnGMGgDY13Q9Ph8R+HoobaONbi7llljjG1XKRM6sR0wHCn67T2rs1+6K4/w/dN4o8Q3Gs8NaWUP2S1dNxSR3IaR1JAyMCNcjjIYV2C/dFAC0UUUAFFFFABRRRQByfxFvo9O0a3vCkkk9vfWskKRqWZm80AgAc8qXFTj4haAFBlnuYCe09pNH/6EoFJ4/tXm0IzRWkt29tc21x5UUZkZgkylgFAJPy7uB1qvD4p8EowD3unWT7t2y6X7OwbGM4cA5xx9KALI+Ifhxh+7vpJj2WG3kkJ+gVTVb4b6rb3+lXVvElxG9te3JdJ4WjYB5mkQ4YA8q4P6dRSN4l8Cxjyor7SrnChBFa4nYgHIAVMk4PPSpvBwaW/1m9SxurS1uZ0aAXEBhZ1ESgna2CPmDdQM0AdSelcHoHjHw/Y614liutXsrZm1L5fPlEe4rBFG2N2M4ZGHHcEV3h6GvPdI1LQ9HW6tNfiawmTULqZZLqB40kVppCjCTG1htf14yeBQB058beGv+hg0j/wMj/xrn9b8XaFq+v+HbO01O1u0W+aSTyHEigiGQICVyASzDGT2qUal8PHVdus6MNi7QRqAU9QeTuyTx1PPbpVR7nQdY1rRLTQD9tVL43F1Pb7pUjVI5CN0gyoBcqAM/SgDv42DKCKdTUGFAp1ABTJOgHqcU+kYZGKAK4BIx65wakQHIP+TR5Zznj61IowPYUAI33D9K5rwIA3h77PkCW1urqBx6MJ3H8sH6EV0zfdOK4u5uNT8Ka3qM1tplze6dqGy6BgiZzFOF2upCgtghYyMA8ls9hQBcvbi8jUW+pRX8QRsrdaZllkHT5lALKfbBHvUEbaOkyTG11jUrhPmQ3ME0hU+oDgIp9+PrUL/ECGHAm0++idjyHs7lSOmesQ9/ypT47eYqbXTL6fOB+7srlsde/kgDt3oAteCZGdNZjVTHHFqk21DjKbwshHBI4Z26HvWfa6XbHXvEFq6yGO1eO+hnhyJYHmDGRFK8nJQPjv5mCCOuz4Nsry10Xzr+AwXl3NLdzRY5QySFgp9wu0fhWE2uTeFvEeuy3+lai1teTxzRXUNu8iFBbxLgkDC/MrDkj9cgAuLqOugommm5vEJGGv7Hyto9S25M/QKTXV2vmPbr5+wy4+fYCFJxzgHtXKn4meGsENq1oMZyDcRA8Z7FuOn6j6COX4gx3UMiaFY3mqSgkKYIy8bcHB8xcoMnA5Ydc0AaXw9kL+DdJB6JBsX/dBIH6AV0lZHhbT5dL8PaZZTLslgtY0lUHI3hRu5+ua16ACiiigAooooAK5vxu4hs9OuW4jt9TtHkPoDIFyfYFga6Ss3XtJj1zSbzTpSyLcxNHvXqpI4I9wcH8KAHalZS6jCggu5bOWNtyyJgg+zKeCPUfkQeayfsV+k7Sz6DpFzPkHz432sx9cMhI/M/Wsux8YazaW0Cavo+oRXYULN5VhNIm4H5iGjDjGORnBPoOgk/4WHFja1tNvwOPs111x0x5Hrx9OfagA8Z/2vL4Y1SW5t7O1jt7dp08uZpJDImGTB2qB8yj1rZ8XWX9oeFNUiY4LWkjL/suFJU/gQD+Fc5qesaj4qRNJg0i+W2nuYhNNJazRKIVk3MSZFUcouOMnLd8V1fiS3ubzwzqltaIWuZrOWOJemWKEAfnQBQurZ9b0jT5xptpfNJGsuZ5TGY8qDlSFJB57Yo0fw9qFvcrc3OoypCuCtpHPJIoP+0zkkj2wKyrDx3BZW8Frf2stgUQJi6iktwAAf4nQKeijIY9T2FTt8SdGVAU1HSy3Iw2oQ4J2gj7pJPPHTPfFAG14xEbeFdYWXHlmxnDZ9PLOat6N5n9kWJlJMhgj3E+u0ZrjNZ1fUPFtnPpGnWl1JBdMIJZxaukawkgOfMfaCdmeFDc8e9d9GAEXjHHT0oAdRRRQAUUUUAFNkBK8HBp1Ml37DsAJ96AOa8IwLdwazLIqkT6rdA987H8v+UYH4V0qR7enTGK8006Txp4VSS2k0ya6jNzLP5luqvGweZ5DnBL5O/HCcY/OynxOurVkj1PTprdtvzM1u8Ck56gzbcDH159qAPRaDzXnsXxXsmVd8mng8ZI1G24POesv0x9T6U1vibK8scdvFbTs23Ihfz88HOPJLnGcYOPXigDcgf8As/xrrEZ6XVjBdKenKmRG/Ty6seAVK+DNFJGGezjkb6soY/qTXLabceJNb8QjULjTJ44Y9PuIdzwtCCzeUVUBwrHJRjyOM9aqaL451Lw5pNhp+qaZNaiC3jiHmQPGF2pg5eQKh5A5BIxnr1oA9Uorz3/hbVh5RKyWBcA/f1C3AJwMdJPXP4Y78VFJ8VvN8xLK3iuHJIiMDrcduCwiYnr1A7d6AO01bRIdUAdmaG4j5huIuJIjjqD6HuDkHuKw9P8AtGmeMoxdGJ5dS03EhiBCmSCTqM9Mibp7d6yT4s8W6gjra6FfENkApbtCVyMZPnhRwecg/njl2leHfFlz4hsdb1Rre2S3Z2NuszSEhoyu3aQQnJBO1iDjpQB6GpyM0U2MkoMgg+9OoAK5/wAfTvb+DtWMTbZJLZ4UOf4nGxfxywroKwvGej3mu6DJY2MscU5lhlVnJAOyVXxkA4ztxnB69KANa1SO3gigjUKkahFUdgBgD9Knrzfd440XCmyu7oLgb4HjuR0bklmjP8WeEPQehqf/AITfxBbMWuNMkWNAS3nWV0vJHygMsRGAevXj07gHoDHCniqk9vHcLtlQOoKvtPTIIII9wQK4b/habqrGW2sU2qcl7wR/NgYGHCnGc+/A4psnxThLFYk05zztzqEbHrxwpJ5HX3oA7LW7c3Gh6hBjcHtpU490P+Nc5pMhv9U8Gy5yf7FmnYfVbcA/qaoHxzrN+jpaac8qSsQDBa3D4GRxkxbOmR1A5rOhm8ReFx4duJdLnLW2iC0lIgkmET7oyQfLBwcR9yBz1NAHpup2A1OzNs0hjDOjEgZyFYNj8cY/GrSgqMGvPo/izZDC3Aggb0kuoY2Hzf3XcH7uOw546c0SfFmyCL5cmnMxK5H9o2/T+L+Pr0x6+1AHoVFecr8Tb28mC2OmzTKApYx28swJycgGIMMYxz2yetJJr/ji/AW10a8UsFO4RrGoIJJz5pVgDkAjB6dqAOg1wi38U+HLsZxI9xZn0w8fmfzhFdKh3KD615zB4T8V6hqdhqGrXkMK2lytx5UUjzEgMSVAIAXqRnLYBwK9Fizs5z9MUAPooooARjjtmuan8ah7+7sNM0fUNTns38uYxGONEbAONzsvYjoDXSMARXH6QBaeOPEFmC4W4EN3jnAyiofbqh9z+FAG74d16PxDpy3iW8lsS7xvDIQWRkYqQce4rVrzT4ZXzaf4q8U6BKUSI3ZurRRnGNkYkUbueCVP/AjXpec0AFFFITgGgDK8TeIYvDOmfbpYJLgtKkMcSMAXd2CgZJAHXJ9gaoW3jQf2hZafqejahps98xSBpDHJG7AFiN0bMRwOpAFc18Sr24v/ABL4Y0S0Y/JdfbJ9pIP+rkWMHbyOdzZ7bK1daxc+PvDluCMW/m3BAY5H7t15HTuOfrQB2tFFFABRRRQAUUUUAFFFFABRRRQAUUUUAFFFFABTTGCc+tOooAbsHanAYFFFADWXdUZtkY7iqlvUjOKmooARVwT70tFFABRRRQAUUUUAFFFFABjNRtArDBVSPQipKKAI1gVOFCqPQDFSAYoooAKYI+uTkHtT6KAImtom6xofqop6Js6YA9BTqKACiiigAooooAKKKKACiiigBhTPOaVV2+lOooAKay7j1xTqKAIWtY2wSisR3YZp/l+mPyp9FABRRRQAUUUUAFFFFABRRRQAjLuxSbB6DPrinUUAIBilIyKKKAGGMnoRTFtY0OVRAfULzU1FADVQKTjvTqKKACiiigAooooAKKKKACm7Oc5p1FAEf2eMnJjQn/dFAi2jC4A9qkooAQDA60mz6U6igCI20ROTFGT/ALopwiAwBwB2HFPooAAMCiiigAooooAKKKKACkZSe+KWigBgjA64P4UpQdgKdRQA1UC0Mm7vg06igBhiRh8yqfqKT7PGOVRQfYVJRQAwR4Oc0+iigAooooAKKKKACuNu82vxKifGRdaeo+7n7jPnBzx99a7KuO8Xotv4m8O35dFPmyWx3YHDBXOCeBxEfT0B5oA5HW3uNI8b6lqtuHZrA292U3FvMjYMsgGQD90qAASN2z049Zs54rq0inhkWSKVA6OpyrKeQR7Yridbihj8f2KXDjyr+yltSrHhiSGAGT1/dt2HX8pfBF7LpN9deFLolRaEyWbMR+8gJyQMcfKSOOMKyDHBoA7eo5pFhieSRgqKpLE9AB3p+4etcd4+vp7uO38N2LN9o1VvLlKjPlW/AdjyODkL64YkdDQByWkXJ8QeNNP1STpeTT3MJYtkQpsSEcAbeBK2CcZdsnnFdRaE3/xNncFXTT7IxjBPymQxnkHgH5G6VW0uzhj+IL2cBURaVpkMKjechssTx3ysi8k/zq34KkF94j8Q34bzEWWO1Vw24Hbuk9B2lX8upoA7WiiigAooooAKKKKACiiigAooooAKKKKACiiigAooooAKKKKACiiigAooooAKKKKACiiigAooooAKKKKACiiigAooooAKKKKACiiigAooooAKKKKACiiigAooooAKKKKACiiigAooooAKKKKACiiigAooooAKKKKACiiigAooooAKKKKACiiigAooooAKKKKACiiigAooooAKKKKACiiigAooooAKKKKACiiigAooooAKKKKACiiigAooooAKKKKACiiigAooooAK4/4kxsmk216gy1rewtwxHDnyjyOf+WnauwrC8bWjXvhTV4UXc/2V3Qf7SjcP1AoA4z4wpcJpOlavZkLc2V1FOinAZ/mVSoBGSdrPxkcnoa0/EkMuqaZp3ifStn220Anj+Y7ZFx8ykjPBBYHjvnqBUPiSUX3wzF3bc+VAskWWKhiBhcj5s84wCeuDmjwP4h07T/Csgv7pEt7GV4Y2ckl0DsEAGMsSAMAZJz+FAHUWniOxvNEXWRJ5VqImlkaT5TFjO4MD0KkEEeoxWD4Ut5L+6vfF2qKY5JgRbxup3QQDO1SCODjJOO7NyRjHn9zcai9tf3GnW80Xh03q3Etm0BZjtPP7wZVc4Q7cNkqNxG5q7LxJ4osZ/AAfQpGTzWSzRFG17dyduHAIK4OAee46g0AJ8O9aGrjxH4hZt0Ut5IyMWAXamYwO/wDDGp3Z5Bzgc1tfDaP/AIkc1z8xN1ezybmYMWCv5YORjPCDmsDwpCPC/wAJ/McNFi3MvLMMEgDg8kc+gx39TXaeDrFtO8K6TbSD96trGZPdyoLH8yaANmiiigAooooAKKKKACiiigAooooAKKKKACiio5Z44UaSV1REGWZjgKPUmgCSiq9rf2t6rPa3MM6g4JjcMAfwqfcB3oAWikJA6mjcuOooAWim719cfWl3qe9AC0Um4etG4HoaAFooooAKKKKACiimmRF6sBigB1FIGDDIORS0AFFFFABRRRQAUUUUAFFFFABRRRQAUUUUAFFNMijv3xShgehoAWiiigAooooAKKKKACiiigAooooAKKKKACiikLAcZoAWim+Yn96nAgjIOQaACiiigAooooAKKKKACiiigAooooAKKKCQBk0AFFN8xAcbqUOrHAOaAFooooAKKKKACiiigAooooAKKKKACiiigAopNwJxnmloAKKKKACiiigAooooAKKKKACiiigAooooAKhvHaO0mdITOyxsREOshAPy/j0qakPQ0AeLeHvEWp2fgi705rfT0TTLdhcq8kyzRAqTgR+UpJx75znmq/wx8ESalc3z67cuRZTxxxxEhWK+RFtI2syplcZKnJzyR0rjNZ0ax1W7/tSfThqMGoJK7JC+HjkZ3YFsdsOACcDjGR1PrXh34f8AhOPRrKK/tdMbUBCiXJhZeZFUBunpsPT0NAHdxWtrBCsMSpHGF2hFUBcemOleP/FHwH/Zk9te+H5DALycwzQRhSFUQyMWAYgEALwMjHY9q7kfDnwgwIjs7Rt3ckHB56f99foKoeJfh34buNC1FbOy08X5t5jbu+3AlKPt5Ppk/QAelAHNa/rd+3gix0yGysBFqMAe0jgmn85xjcVaIRMQSCeCepr2OxYvZQMYzESikoeqnHT8K+ZdH8M2+iyJqq2KaY2mxwyBJ5BukmSZHLoCQfuRsCckHtnJx9PwkGJCOmKAH0UUUAFFFFABRRRQAUUUUAFFFFABRRRQAVBc2kN5FJDcRpLFIpV43UMrA9QQeoqemTSLDE8jsFRFLMxPAA70Aec+HrjTPBl38Qb1beK1sLG8jmMNvGEUKLOEnaowMk/qauyXfxBGmf2wBoXyp9oOleRJ5m3GfL87fjf2zsxn25rM0zSl8daR45NpMRZa7cGOzuj92QLbRx+Yvqu9Tg9wOODWgPFniGTR/wCzj4S1RdaaLySGCC1EhGN/nbsFM89N2O2aAJ7rx3PrEWhW/hqCF73WbT+0Fe7BMdrbAJl2VSCxzIqhQRkk5IxWppA8S21zK2tXuk3VnsyrWtvJC6uMcEM7AjGecg1zKeGNT8ETeGtRsbOXV49N0o6ReQ2+BKUJjYTIpIDYaM5XOcNxnFa1hqereIfEWwaZqdjoosZVlN5CsfmTl02bQSW4Xf2A5oAraVrfi7xZZDWNIn0fTNPny1pFd20k8sseeHYiRQu4cgAHAI5NWfFOueINIstBhtn02HUdRvUtJpJI3khjzG7EqNyk8rgZPesvwxqmq+DtCt/D2oeHNXup7CP7PDcWMSyxXEa8I4O4bSRjIbGDnrUOv6ZqepeEvCLeI9GuNXube6hn1G1jiWVsiKQMSoODhiOlAG5qeqeI9A8Ja7q19e6VfXFnaSXFsLe1eJAVQthwZGJ6DoR3qtY+IPEum63oVrrUulX1rrG+JGs4HhlgkEZkBIZ23JgEE8EEj1qG9t4L3wH4j0zQfDN7pjy2cyx2stqIfPkdCPlAJBPAB/CotJ8KzeFvFOmalDbXuoW13bi0kM87zy6e+C25S7EiNvusB0IXtnAB6NRSLzmloAKKKKAA15N4ZsbDxfeajHrmr6pH4kiu5lktI9QltjaRiQiPyo1YAoU2kNg7snJPSvVZW2gnBOBnivK/HGueE/FOkzLbRXD+JYlZdPjjtpIr6C4wdmDtBUbjySduM5yKAOh8T+LPEPhZ4VttBsbuyluILSGWS/ZJGeRgoLL5ZwNzcnJqzq/izW9F0S0uLrRbP+0ru+iso7ZLwmLMj7Qxk8sEep+WqfjBLtvDnh5bseZdjVdNMxQZBYTJuIx2zn8Kn+KFrcXelaRDayyW8zazZ7Zo0DNF+8+9ggjj34oAt6J4rv7rWrjQtY0lLC/ht1ukMNx50U8RYqSrbVIIIGQR3FR3Xj6K28aW3hwWTSRSAJLehxsinZWdIiO5KIxz2+X1FYvh9pPDviXXP+Eiubi61IwCeHUZEAWazTJ2KqgBSjMdwAy24NznAxI/DPi/UPDF1qnmaZHcXtwNbjgeCQXCSqQ8UZYNjIVVTp0yO9AHpGo+IlsNc0nSjDubURMVfdjZ5ahjxjvn2rJl8ZapqGp3un+HdHgvhp8nk3N1c3XkQrKACY1wrMzAEZOABnGc5qjPqEeteJPA2qRQyiK4gupRuU5TdCpAPoe3Peqega7Y+B73XNM8QyNp5m1K5v7aeVG8q4imfeCrgYypJUrnIwDjBFAHQal4uv8ARvCVzrmpaN9muLdgr2ouBIDlwuQ4HIOcjIHvir/inxF/wjXh+51f7ObjyAh8oNt3bmC9f+BVxXiLV5/F3wv16cwSLHJdNDbGON0aSJZ1CuARnJAzn8ab4/8AA8Nl4QvrqHU/EFzIgjZYZtQllRv3i8FCeRjt7UAdB428Xa74Wt5b600OyvrCIRhpHvWik3M4XAXyzxlhzn1rd0K71e7gdtY0+1sZg2FS3uTMpXA5JKrg9eMVhfE5Gl8EXiRozsZbfhVJP+vj9Pauujxg4GKAH0UUUAFFFFAHnPji3sr/AMf6BZ6nf3FtZPY3sjLHeyWys6vAFJKsuSAzY/Gr4v8ASvA2nwposd1qs+qXIhtoPtzzmWQKScO7NtVVUlj2x0JIFHiPSLLWPiPoEWoadBe2y6bfErcQiRA2+3xwwIzjP61H4t0qHw9qfhvV9P01I9M0yadbqGzhAEMcsZBlCKOcEDOBnBJoAt2/i/WbLVLK08RaJb2cGoSeTBdWd0Z0WUjIjkDIpUnBwRkE8cUy98YeIDrWrWOk+H7W+h0zyt7SXphklLoHwi7CMgHHJHNZ2ta1Y+Nr7RdM0CRrxYNSgv7qdImEdvHE2/liANzMAoUc8kkYrO1XR9f1DxH41l0fUby2wtqBbRqii5xCu4CQqSrEZUEHgnmgDodZ+JUFh4Bg8X2GnXF6lysDQ2gO2RzI6qV78jJ/KrHizx/a+HPB58SWsP8AaKyxo9rDE2DcFuQAcHtkn0ANYzNYalpfgm00e2kh083yERNGQYFhgkbawPQhkAOe4qpovgnUo9Zn0zUbdV0DRUnGlPuB8/7Qp4I6jylZ4xnqG4oA7u58QWtn4cfXpmC2qWv2tj/sbd351U8GeKW8V6Q13PYvp93DM8FxaO25oXGDgn3UqR7EVwyLqniHwV4N8N2e2K5ubaG5u2uYmaNYoApKOAQTufYMZGRn0rZ0SDW9A8dTpq8tpLFr1v5qtZwuiJPCADnLNyyEc5APl+tAHS+FvER8SWU119m8gRXdza7d27PlTNHnp325/GtuvOvh74r0WxguNGubwQ6hJq9+FgeNwx3XUhXnGOQQRzXoisGGQcigBaKKKACiiigArnvHNzqtl4T1e50SN5NSitna3VE3sWx1C9yOSB3Iroaztb1SHRrCa+uI55IYQGcQxNIwGQCQq5JxnPA7UAcj4K0bw3qS2mtaLr2q6k8QPmTSalNIZGKkESxs2ARnOCBgjgDFaXizx5D4Sv8ATrN7N7kXL7rh1cD7LDvVDK3HI3yIPoSe1czc3eha34w0TUvBvz6l9o3ajc2kbJEbTa24TnADMSV2g/MD04Bpg0PX/Gdz4g1WCTTY9P1NG02FbyCRnFvHuQkYYY3OXYcdNpoA7vxL4i/4R+1s5xbicXV9b2WN23b5sgTd0PTOcUDxGD4pGgi3yTY/bRLu7eZs24x+Oa4q5vb3UvBPh5b9Ha/tNbsbW7+U8yxXKq7fQ7dwPoa0NZ1zTfD/AMTY7rU7lbS3l0UxLI6naX8/OOB1xzQBr6r4uvv7al0PQNLj1G9t40luJJ7jyYLcPnaGYKxLEKTgDpySMipPD3i6bU76+0nUdMOnatYokkkHmiSOWN87XjcAbgSpByAQR06Z5vT/ABFp/hzxVrOo6hMYtJ10W95Z6gUbyWKxCNo2YD5SNoIzjIbjoau6DN/wkPjTUPElrHMNMjsI7G3neMoLl97O7qGAJUZUA4wcnHHUAh0r4l6rNpeka3qfh6C20jVXhSOe3vfNeEykLGZEKLwWZRwTjPSvQQcgGvEPDWm3+l+G/BF/rd9d3+gJHFvtDGqLYzYXyZGCqC6K3HzE4JDdjj26P7i/SgB1FFFABRRRQAUjDcMUtIxwDQB5xJ4etvEfxH8Qw6jdaiYba0sjDHBfTQrGW83JARwMnaOfapvB+vtovh7xHcX97Pf2Wh31zDDczOXklhRVbBbq7BiyZ6naM81BN4XtfEHxI8QyXj6lHEtlZKv2a7lgWT/W5B2MN3br0zU3ibRnZdG8G+GoLazh3m8mWSItCsULKQrAEE7pChPOThs0AdL4P8TN4o0YXk9mbC7jleC5tWcMYJFOCpI68YI9iKl8KeIf+Em0ldQ+z/ZwZp4dm7d/q5njznHfZn2zXLaBBrXh/wAc3cGrvZyR67CLmNrOJ0jSaEBHDbicFkKEHPOw1H8OPFejWWjxaHPerFqQvr1fs7IwbLXUrDtjkEGgDc8R+Oo/D/iLTNINm86XRX7TcK+BaK7iOIsMc73O0dOhPatLWr3XLcRf2Pp1leE5Mn2m6aAKOMYwjZ7+nSvP08NeJfGWna/qUNzplvb6+xEIubeRp4YYwVhIIcAHI8wccFzVjWPiDPH4T0iEzHT9W1ZDBNcSRttsSnyzyHjkg5CjuSO2aANzw94z13XLnWbc6JYqdO/dJNDfM8MtxgkxbjGCNvy5IBAzjkgiobvxr4n07WNM0y78P6W02oS7Vjt9Sd3WMcvIQYgNqjvnkkAcmpNA8TeE9F8NzwaTdi4t9ItjNKsSM0jAZJY5GWZjkk9STWL4J8U+H5buXW9X1O2OuaoVjEADEWkOf3cC8dRnLHuxPYDAB0V74w1S41i80nw9o0V9JYbBc3FzcmGGN2UMIwQrFm2kE4GACOcnFX/C/id9ekvbK8sW07UtPZVubYuHADDKurAAMpAODgHIIIBFczper2vgvxD4jt9cZrS3v70X9rdujGKVXjRWTcAQGVkI2nnBBFaXg2WTWPE2u+IYoZo9PuYra1tGlQoZxHvLSbSAQCZMAkc7SRxQB2dFFFABRRRQByHgaeea98VedNJIItalSMO5YIvlxkKMngZJOBxTtR8V63/wk1zoej6PZXZtrWK6klubxoRh2dQABG2fuH86w/D3jLQvDmseKrTV70Wkz6zLKiPE53IY4gCCFIIyDWf4gn0KX4iXl3quqahYW0uk2ht5ba4mgEvzzE52YzgFeD0zQB2GpeL7zS4dPtZNJW41y+LCOwt58qAoyzmRgMIoIycZyQADmrOjav4huL17bWNDtbSPyjIlxa3vnITkDYQyKwPJOcEcVzOoX9tpviPw/wCLI2nvNDFhPYS3SI8pgLtGyyMMFipMRUnHBIJ4rUtfGtn4j8SR6Vo80d3YtYzSz3McT/u5A8aooYgDkMxx14oAbbeNtb10S3Hhzw/b3dhHI0aXN3e+R9pKkgmMBGyuQQGbGcZ6c1f1DxbcabBojXOmNFPqd3HaPC0oJgZlYk5AIbG3t1zXMeDPFemeEvDdn4e1+VtN1HS4/szRSRP++CkhZIyAd4YAEYyecHkVJd399ruh+BtRvrVorqbVbeaeMRMvl5jk6g8gdOtAG1ffEK30zxvD4ZvLR447iCN473d+7812cLE3HBIjbB7kY64zpp4kDeJ7jQzBjybGO8Mxbrud124x22ZznvXN6n4ftPEvjLxDp99DIba40iyUSLlSjiWchlbsynaQexxWb4R/ti88Wazp2tRSDUbXSILOS9Ee2O6/eSlZV7chgSOxyOwoA3o/GWuaxD9u8O+H7a90/J2TXF6YWuQCRmMBGG044LEZznGOataz4xutOXSLWDSTLquq5EdrJOESEqm5y8gBGF4HAJJIwK53wt4x0vwx4UstE1iV7HVdLtEtHtpIXJkeNdoaPA+dWxkFc5B9c1Pqt7oOs+FdBm8YRyWFxdW8V0kqLJG1pOYwTtkUZjYFiBkjPI5oA7DQ7/U723P9q6dFZXCuylYZ/NRgMYYNgHnnggYxWpXHfDe71K8065N3dXN9ZxXLx2N5cx+XLcwBVwzDAz8xYBsDIUHHOa7GgAooooAKzvEOojS9C1G9yB9ntpJcn2Un+laNc18QXC+Fr6Lq135doB/11dY//ZqAMPwB4e0+Wxntrqyt5xbrBBmSIMMrGucZz6100ngzw/KQTpFivXOyELn8se/51i6KskPhDU7mHdFLObmUMCVKkZUEZ5H3RWD4T0Ndf0SzvdO8Xaqs01vG8kb3UrlGKjP8Y4znnnvzQB2h8DaCPu2Cp3+V2H9fYflSr4H8PrjOmwv/AL+WB/MmvOPEWp3XhvURp8ninW7qREEs7QKWECE8FsuCe3Az1HqM9JH4VnltFu7zxpqkls6hwyzOmQeRjDd8jt3oAT4g+GNOg0iBbHT7S3aWR4WaKFVJDROOSME846//AK+x8O3o1LQNNvV6XFrFMB6bkB/rXn+m3S3fhfUvLvbi+h03VsLLNIXcoGQnnk4Ac/QcYFdT8PZP+KXtrcZxaSzWgB4wI5GUcfQCgDqKKKKACiiigAooooAKKKKACiiigAooooAKZLEk8TxSIro4KsrDIIPUEd6fRQBFBbpboEjUKqgAKBgAewp5QZzSs6oMscCjeD3oAGXdSeWAKdRQA3yxnrSCPBzk0/NGaAGtGG9aTyx3NL5i5xnmnAgjI6GgBAMUtFFABRRRQAhUMeaZ5CVJRQBGIRjBJNPZdwx0paaJFPegBvkqTk0piGMZNLvUHGadQBGIVXgDigwAnJJNSUhYCgBnkj1OPSnMgYc0b16Z60LIrHAOe9ACeWMYPNOC4paKACiiigAooooAZ5Q37u9K8avjPanU1nVepxmgBohCjC8D0FAhAJ56+1KJkJwG5pwcHoaAGCJQcinFARS7h60bh60ANWMK2c0NGGbOe2KXzF9aQyoMc9fagBot1Bzk1IqhBgUtFABRRRQAUUUUAFNKBqdRQBGYEPTinBAq7RR5i4Jz0pQ4PSgCNbdQTyT/AEoMAJ5ORUtFAEXkIRgjIHalEIAxk1ISBTS4UEk9KAGmFSMZxUgGBj0pFdXGQc0tABRRRQAUUUUAFIwDDBpaKAGeUM5yaFiCHIp9FADGiDnJppgU095FThjihZFf7pzQAJGEXA6ZzTBAM5yT9e1S0UAReQuc0vkrnOKkooAj8helOVApzTqKACiiigAooooAjMKkk9Ce+KURKowBT6M0AR+QuSc8HtQIVBGDjHan716ZpQc9KAIxAgOcZPvR5QxwSOc1JRQAxYVU5FBjBOaeTim+YucZoAYIEBz3zmjyF55NPWRWOAefSnUARpCEIwTxUlFFABRRRQAVw3xOvVih0y2ZQ4Nw1wyDqVijZgeh6OY+1dySF615v4iP9v8AxAgsl+aK2WO3Y4PBJ82UemdqxD8aAOlGntZeDGtHPzpYsHI7sUO79Sa5vw54RjvfC+k6lp8zWGprAMzKMrL2w43HPAHIIPA7fLXe6lF51jPEMAyRsg/EEVy/w71OM+HrbTrhil7ZKIZ4nGGRgeR1PTp15GD0YUAcxrfgXVfEOoR395p7pcqgimNtcJtuFBx1JBHGRkAE8HqAB0Nn4WvtW2Sa7KsVtCu2PT4DhQAMDcw7YONo6jqzDgdn58B/iWq97qdlZWss88yIiKWPr+A7mgDi/DOmLcab4w0+3QQqdQlgjjGAq/6NCAAMDA6dhUnw1vgz6lYgYUyRXkak8qkiBSDwOd8bnp3q98PRLc2mrakYXjg1LUGurbeAC0ZijUNwemVbB7gA96xNMB8PfEAQ/chuZJbVhzzuHnRHpjAG9fqaAPSqKQMD0paACiiigAooooAKKKKACiiigAooooAKKKRvun6UAcP8QvERsJ7GxOpTaYhSW7nuYRyqRrhVLFSq7nZeSOQpFY+neIvEC28Utr4j02+hEgiL3dqGHywmSRt0TKMAgqBjqDyaxdf8Txv4i1DUJb8WlpJKbdFvLV/InhtlY/LKMDmZmBAJBwuRzyeRa3trZTX3h6yu47RoLQvp8kUxmcsgkYk7W6AqMA5+bPY0AdXp/jLxVcXMttPp+hRtFbxzO8l1JEqlgCVOVPTIGfXI7Vpx654qkGRYeHGB7jVH5/8AINcZoFrqd5qWt3nhuKGOFLn7PPDqQc7yu9sANngB1BGRnHXg5wvE/wAQ5vD18llf6FpDMkm26ng08SiLgnAAlJZhjkHpzznoAeoPrnipCo+weHAWOBnVH5PoP3NY0njnxQbiO3NjodoZJ3g3PPJIEZJdjE/KvbDD1BArmfB3iTWPFiCPTdN8P2U6/MW+y+W2BjLJln6cZypxkdiCTxDpx0jxBLJqejw6tfXUEE8k0USFVdduSpcjH+pYcdSy8c4oAuDxvql7Oy3niWGNFmKGLR7INKYySqyDcZDjcACMZAIPFegeB9VudV8N2Ul5v+2Rq1vc+YAH82NijFgOASVJwPWvNL2+ubSKazmu9A0WyEV1awtJMJCfMRJEUn5QOOA3zAYAweM9X8NtVSS/1SxU6i6zumoxSX1uYXcSLh8DaoIDoeQMfOOTQB6BRRRQAUUUUAFFFFAGdr+sJoWk3eoyKXW3iLhB1duyj3JwB7muXttF8bRQJIfFELzuoeSOW0QorEZIXABIB4GTnFXPHNkNcudH0IySot3c+fKYmwwjhG/Pcf6zyuo71WbwRqVjETp/inUYuAFS5SORBxgcKFPT1PYUAYf/AAk3jmHXW0/fot1Kt59jECwPGsgFr55feXJB5C4wRWrq/i/xlo1p9on8N6e6+dHDuW9IyXkVBgFfVs/SuX8M2finWfEV7LBPZKNP1CSX7ZPDIpnYxm3KheRgeVnIc/eA68DZ8ZWfjiDRGnuL3RJ4Ybi2kZBG6lys0ZxnB6kUAT6X8QfEGuXElvp+mWBkVS6mR5FWVA20uhIAZc9x2I9RmHxB4j8dWDxRuulWQkhuJIysLTF3jjLhD+8GAQp568VQs9N8R+ENdtbax0vw8t1qTSRw7764dIFCtIwUFPlUlR09ADxjGnruieOL5ba4uE8ON9lMpMYuJVDB4Xj+8Yz/AHienPrQBatbDxlqlnFPP4hhgEyLIFtYUUAEZx8ysTx71qeEpr+y1DUdD1O9kvZrfbc29xKAGlgfPBxwSrKwJHYr0zXI+AoPFviPw9CLrXodP+zgWxjt7bMvyKEbLF+DuVhkDBIJHGK15PDcvhXxBpOsvq2o35nlbT7iS7dTtWUZUjaox+8SMc/3qAPQKKRfuiloAKKKKACiiigArjviBqNxFJpumW+vQaAbtndr2Xb0TaRGu4gZYsO+cA49R2D/AHTXEavYWPi/xFNFqSpLpeixfMHYqv2lxksWBGCkeOewlNAHJa3e+K9FSHyfGUOoLJFMyNEkZ+dQNu75TgbiM8nrUkfinx3FqQsnv9PmlNw8BzbM653qqEFFB5JbJIAGB0p1r8O/Depafqev3dtqEWnvuNnBFdygvbqB82C3PmEZweCNnArc/wCFMaCdrxXOrQ4BCqLhSEDHcQoZTtyeeMUActpHxQ8a63aTy2P9hF4JUtyZraYKZHJCD5XPpznBHcAEZWb4j+PHneEPoGCzwoY7ScnzVIU55OBuJGcY4znFXdJ+FGm3ep65pkmp6qIbOZIomRog5VoUY5by8kgscHqBgdhUnhX4SaNq2lW+p3N7qTzyq6uvmR7MhipIXZgEhRyOeBzQBm3Pi3xmIGupdZtUttsnlGKFFkyIVlBYEEAYY9D6VPo/iPxCuo29zfeLLKZItSjs2tA0TreB3EbGNgFJ27s/d4KkcitNvg/4WuLi+sCmrfaUtlxcPfSFiHRowQQwJwI8YPGMCmaP4R0Wbw5I9rpcdt4j0hgzAOzul1FhlILEnY+AR6q/4UAeqjoKKqaTqMOr6baahAcxXMKTIfZlBH6GrdABRRRQAUUUUAFIehpay/EWrpoej3moMhkMEZZIx1kfoqj3JIH40AcnDdT6jf61er4l1CzjgvTbRW1skcwUIiq3yFGY5cOfpzUsWsaikhWLxnocjZwI76y8t/yEqn9KxPEemaf4W0rSrObQ9K1PVbxnaW7u4AwMh+aRiwG7JZjjkf0o8I6RZeKlSaBtS06CGMrNDbX83lNKXIG0FiMAJnGP4+9AHWR6l4ncZjvvC1wv95WkXP8A481ON/4rwefDY9/OlP8ASqrfDa3YktrGpHP95LZv/QoTn8aytN+H1vfTXyS6nd7YLowrttbMEqFU8/ufVjQBuPd+KMZk1bwxbL3JhkfH5yLVGe6uSxW68e2aZ/gsbeFWH4MZCfyqQ/DPTY49jahqbA/3GjiI/GNFNeeXt5baTL9lk0+K+/s+MC7Gp3c0hmcMVJRWcqORnJHf6CgD03wldTxazrWlTarcaktuLeeOSfZuVZFYFfkUDrGTyO9dWK4j+zLDw5q+jappljBp1pfKbK5iiiEYy43xFgB1Dgr/ANtDXbjoKACiiigAooooAKKKKACqOtarHoumXGoSpJIkC7ikYBZznAABIGSSAMkdavVx/jKKbXL3T/DtrcyQNO/224ljCs0UUTqVwGBGTJsHIPAagDO8TeMNWu4YdL0jSNTs9UuySDPEqFYk+aQq2Shcj5VycZYE8A1kaZ40udMfa+rSQXca5m0/xCRArepimKggnr8wYHtgc1b1q18UJrto9lqcN7cWkpiiFxbrEZTJExcb1yAFUK33TlsDgZNWLbVfHWt2oaLTdOghYuplkZUxtJUkHMmBkHnaaAL2l/Fzw1qjPCty6XUQBkt1iaVl9SGj3Ky+4JFaK/Ebwu6uV1uxZ04aJZA0qnsDGPmBPpivM1g8QHV9P8UW0thFc6pMY4Iog4VYQSqylm3A5LjA2DhweDxTB9phv5L3WNIa8udUuXXzLJ5UktJokCSQkxjfkhdwKghgCSAAKAPR7j4i2sEZnGk6vJbDnzjbeUPwErKzfgDmmyfEi2/s0anb6LrVxYmMTG5+ziNBGcfN87KSMHPANefzr4QGnX6mO6N7HbsIbGe4YmVzkANHtDFcjkuMAZyOK6zT/Bmt33h640HUvENxb20UQskFnaxRrJF5YAILBj0ODjHK0AegxP5kYf1p9YvhLVpdV0G1mulC3aBoLlQOFlRij/QblOPbFbVABRRRQAUUUUAFVtQvI9PtJrqZlWKGNpHZugAGSfyqzXM+Oj9qsrHR1POqXkdu49YhmSX8CiMPxoA5XSvEzXtul5e+M5NFvLnM32S/tEjjgDElUHmIpOAQM7jkgmt621PWnUfY/FXhe/UjOTbtuP4rMR+ldeY0eMK6KykdCMis258MaJdHM2j6dJnqXt0JP5igDMjvfFTKNsvhyQ+oeVR/WnNdeLsdfDi+/mSn+gqceAvCqjI8NaOD7Wcf+FYWh+DfDk/iPxFFLoOlyRxS26xo1shCAwqTgY4yTmgDRkvPFRwG1PwzAO5MMr4/8iLWddam8RI1P4i6ZaA/wWscETZ9B5jOT+Vby+BfC0ZynhvR1PqLOP8AwrSs9H06x/49bC0t/TyolX+QoA5LwT4gW516+0n+0b7UojEt3a3d1CULr92RAdqhgp2nIGP3gHau5rmPGKfYTpethdv2C8QSv6QSny3z7DcrH/cFdLH9wf1oAdRRRQAUUUUAVNVvodL0+4v7hxHBbRtNI5/hVQST+QryXwB4u0N9Vu9V1TUIrO4mzJi4UxhXlO8gswwdqhEBz0U/Wuv+Kk1xc+H7fSbKGeebU7lIDHFgOYgDI+NxAxtQg896838I6FqfhrWEvNa0u+t7WKBodllpjz+epIYiXCkD7oAIyeR2zQB7MPFWgzxeZFrmmMo+bct1GRj65rMv/Dmg+I54tRjv3jm2BfPsbgDzFDZAbGQ2D0yOOcVxuva74E1a5060tra0j1GS/tAY5YPLkVBMhbIPQbY8fiPWoPDdt8OLrSN99JpiX0ss8khYhXUmZu+OOo6UAdonw+09VCrq2pbB0Akj9MddnoB+VRHwBoKE/ar++miGC0U11iNwOdrAABlOBkHg45rGi0v4ZyHKXGnMCAcGQYHJ9enf8hUGpaX8L2064UvpLM8LqpZwT909PQ/MOfp6cAHfR+ItEhiL/wBracsQ43G5QKMds5rzj4i+J9Be9ivdN1nT7m8AXyxbSCVlljYPF9zJALZB9sCqXh+98D2N0JNdj0rzrvT9PuIUdE3fNDhsD6pk/Q1h+NbV/EGspeaDpdzqVkYSkcKabIkdux5yGQEHkgk9QVHBFAHu+iajFrGm22owf6q5iSVfUAjOCOxGelaFcH8Ipby20S60bUIZ4rjTZgo84fM6OBIG/NmHPPy13lABRRRQAUUUUAFFFFABRRRQAUUUUAFZniPVf7E0PUNRKhxbW7yhcfeIBwPxOB+Nadcp8RtQtLDRIVvZ4oIbm+tYWklYBQvmqzZJ7bVagBbHwlDDo+j2F0Uf7JGguGKgtOwG4gn0L/MR3wK5658GaLf+K4YVtbS4kS1ubyS4C7W815FWPLLzhdsgAzxj1rS1PxrYXAaKHWNItIM4+1fbY5HKn+5GpJLemeh7HpV/wZpbIl3qnkPAl2UjtY5QQ6W0a4QMDyCSXfB5+fnnNAHCP4bk8PaJPe6Tf6xDGJHUPHevsYqBCrFSSMtIQ3TAVAOO/K61oNvaKivqV3K0+lC/A3KweWRgGUEqSRt5JznCZyOa96k0K2bTBpfkKbMxmJosnBTGMZ6/j1rz238EaY/xCn0mYfarRNP851dEVyS4GGdVDMOScE8nk5IBoA5Xw9oDv4Ul1/TtSu47ixmjgiKSBVCmOMBlwAc7nJOc8M4AGa6u18GR6zfadcXl7qF8LmBLyP7Rey7REXJdNoIH3Xh/Fap+D/CGp67Zahbrqot9MXU5VkiVfndkIG7OOuAD125GdvavVYNMgtzbskSK1vCYYscbVOMge3yr+VAHCeEPCPh5LJ9PFlaQXdnd3kEmyJRJNHllXccZYeXJGcn2rXvYrjR9Q8Malcur3GTpl0w6MJFyG5/6aRoP+BGs7X0fw34qk1Iyx28N8FeOaZtsPmgBHiduib1WIqx43R984MfjHxbp83hq5efy7Oa1C3sJluoSGeFlkAXa5JJ2YHHegD0RG3DPBp1Q20yTxLInKMAQfY1NQAUUhdVPJoDA0ALQTgUUj9KAOci/0vx/O56WWmIi89DLKxP6RLVjxleJaeHrkPL5RmAhD5xt3cFvwXcx9ga4668S3+leK/ELWOmfat1xDB5hljUALAjFQGdTkGQn05qC4g17xu6x3lrstgcNHkBSp4KgqWAyOGYsTtJCqNxNAHQ/De1caAs8qNG87GZkP8JcmQj8DIw57itH4g8eE7s/9NIP/RyVr6ZZfYLNINwYglmYDGWJyTj3JJ/Gsj4gf8ine/70P/o1KAKPiVwvi/wwxznz5R0HeCSuruUEkRU9DwfyrkPGGR4o8Lc4BvGGR1/1Eo9M967NhuFAHnHgGc2XiDVNPmO2RyDHnqw++c5A5zI46fwH0rqPH1vJceEdTMIzNBF9piA/vxESL+qCue8U+GtRttW/tfS08xurAMVcckjDAEggsxB2kYdlIIIIrp4q8TE+RcaNNdxk7HUxRhmGOeRJjOD12j6UAeh2k8V1axTwsGilQOhHQgjINTVzvw7lkm8C6C8u4SfYYlYHqCFAIP5V0VABRRRQAUUUUARXUyW9tLNIcJGpdj6ADJrzPwlDN4wsj5u5NLlne7vz0N5O7bvJH/TJBtVvUrt6A56r4hvI3hLULOGQxS34WwRx1UzMIs/hvrZ0TSrTRdLttNsYhFa20YijT0A4/OgDP8Roo0yK3ACrPc28OAMDBlXP6A1uJ3rH13L3ujwjo99kj1CxSH+YFbIGKAOPj3Je+N3jdkdShVlOCD9kTBFWvhpIZfBenuTkky8/9tWqtCAdT8bA9P3f/pKlS/C058DafnqGnB/CZxQBouBH4si5IM9k6n/gDqR/6MNU/EOkXMF6mt6OAdQhQCWEnAvYhkmM+jdSrHoSQeCat6gTF4h0iTjDmaA5903f+yfpW0CGoA434aanBfWF9b22RFa3sojjYbWjR8SBCv8ADt3lMdihHauzrjtI0yLRPiNqxgXZHrNlHeMoPHmxMUcge4kjz7gnvXY0AFFFFABRRRQAVzPikfbtW0LScbkmuWu5l9UgAYZ9vMaKumrmYyJ/Hd9K7ALY6bEiknhTLIzMfyjT8qAOc8ReNtMvdSfR9R0SO8sIbhYJZZSpIkJxlUI5AOQTkHg+2en8I2sUdpcTQRRwxzXT7EjXaqoh8tQB2GEB/GuXiufBOu63PqSRNNeQxNcq7q6pcbBguoOFYjA5I7Z7Zrt/Ddu9roGnwyAiRYE3g9dxGT+uaANJjgVkeH1GdRf+9fSn8sD+la7djWT4dyY78n/n+n/9CoA1yM1554mbSdH1O/ub3R7a/mMsUtt5qKdrOpB5IOBmMt9TXodcr4osbC41OD+1EjNlLbTpMXPA2FXVvYgBzn3oAy5Nafxt4M1RobZ7a+syWWMtvAmiIkQqeMjKj9fqe10y9j1LTrW9hOYriJJU+jAEfzrlvBWr+G5o5dL0WKW3wDKYpo2VpVOBvy3LdhycjjjGKveAAY/DNtaEjNlJNZ49PKlaMfoooA6SiiigAooooAKKKKACuX8NL/aOua3q7dDP9ggOekcOQ35yNJ+Qre1G5SztJ7qT7kEbSN9ACTXLfDyKaOzBlkf5bWAyKTx58gM0hx65lH5UAb9zYyS61aXOV8iCKTgnkuxUA/gA351Q8akWnhe6hhl+ztc7LRZMgbPNcIWHuAxP4V0QZWGRzXD/ABHVruTQNMIylzqAMg9VCkY/N1/KgCtq8EM/iW2htgq2+m29kkar0XzbkED/AL5gWsnxk82j6xqNzAxMdtPa6sY/U7XDEH1Ityv0kNdAhW41rWpVBDJqllASemFSNuPxc1S8WxC71vWomUMrWthAR675LgEfk360AdlNpFpqC3FwSxa6t/IY54Kckcf8CP51JpcM8dhbw3Thp0iRZGXoWAAJH4iofCdw134X0i4flpbKCQ/Uxqa03BIwKAOZ0cLp3i/W9OACx3Ah1CIepZTHJj8YwT7v711FcHKzWHxJtFyQLh5Yhj0khWT+ds5/4FXeUAFFFFABRRRQAHgVzF8ft3jrToQcrZWM05GOjOyIp+uFkH510zdDXOaWom8aa5IQd0NraQA9sfvX/wDZqAOjUYUClpFGABS0AI33Tiue8Pc+JPE5/wCnmAf+S8Z/rXQt0Nc74b58Q+KT6X0I/wDJWH/GgDo6KKKAM3xLYDVPD+pWJH/HxbSRfQlSAR70nhi/Oq+HdNvz965tYpmz6sgJ/U1oyDchHrXPeAf3fhxbUZAtLq5tlHoqTuo/QCgDo6KKKACg0UHgUAeW/FaHWb7U7H+x1uZmsYGlnhtHKzNG7hSVIIP8BHBBI3Y9K0Ph3Nr9h4fvJPEMc9vaRyPNa/bJy9zHD1CyDHUYJBJJwQCBima74rXQfHOoOmnXN7MdOtEURDgAyXBOcAnPTsaq6h4j1jxQgt7XTGt0JG5ZMkZ6jeDhmXvtVfmxgsATQA/wbp48Q6rqdxqkSXcL/uniuF3hsBeCDkECQzAZ6bRiu5j8O6RHAkKabZrCi4WNYECqB2AxgCqfg/Q/7E05Y2EgkZRuEjAt3JLY43ElmOO7EdAK3z0NAHmmmaFpTeAppX06yL/a7kbmhTPF3IByR6YH+RXSeENE0t/CukyHTbPe1lCWPkLydg9qzdK+TwDcZzxd3nA/6+5PWug8F8+EdF/68YP/AEWKAOJ8faBp+h2tpJpWn2tiglHy20KxAM37oH5cf89R26A81oeP9c1uHwfDd+HoLiRrgRySXVuFZoYjgswXkk4PYHAye1dF4v0Ya5o8lpgsWDDaDtJBUg4PY4OQfUD61xOleJtS8MH7Fd2skuwkMvluyE55KlAzJnrtZMAkgMQBQBD8KNU1ibxHqD6mb2S2vbYGznvYwk0qQtgkgAZ5nxnHIUV6yOlecaT4vTxH450fNjPavFbXiAsrbWB8onBZVOcp0x2r0cdKACiiigAooooAKKKKACiiigAooooAK5nxKpk8SeGIc/KbuaVlPfbbSD+bCumrndYIPjHw8p6CO7b8QqD+tAGwNLs1l81baFZP7wQA/nirKqEGAMClooAZIxQAjHXn6Vw3g2b+3PEeu+I48G1lYWtvIOjqgAJHqDhTn3I7Gu6ddwxTIYI4IRFFGiIM4VBgD8KAOL8GS/2T4l8Q6HJ8rPcG+iz0dXxkj6ZQH3zXcjpzWJqPhi21DWrDV98kVzZ7gTGwAlQgjawI5AySOnWtpF2qB6CgBk8CXEZjlXcjDBU9CPQ1kXvhjSI9MvY7XTLKB5YJE3RQKp5UjqB71tMcVTlYsrZBOf8ADrQBT8G3BvPCuj3LElprC3kJPfMYNa5YA4JFYPgj934U0yMDHlwJEoznAUYA/StgnuCDyc8UAKzFSDg4yd3f6U6JjwCMcU1Vyen/ANapVXbQA6kbpS01xlcUAc34QUSXniVm5P8Aa7/pBCP6V0axKpyBzXPeD8reeJVb/oLsfzghP9a6SgAAxXNfEWQReD752wFVoiST0AlUk10UkgjUkgnAzgd65bUfGvhe4ifTtamjtFlBWSDUFCqR3BJyv60AUdevItY8WeHLa0PmvDcNcOR0EYjcFvcZZBkHGWA6njuq4az8QeAfD5LafqGkxSzkAi3lEksmOg4JY4/IZ7V1el6rFq0JmhinjTOFMq7dw9QM9PrigC20Sueaa0CHBxzUtI/TigDn/h+Nvg/TV/uoy/k7D+ldDXP+Aip8JWBXO0h2GfeRjXQUAFFFFABRRRQBzfi5TcXfh+zyMT6pGWHqI0kl/mgP4V0gAHSuc17nxR4ZU9ri4f8AK3cf+zV0dAGNejzvE2lx5GIoric/UbEH/ow1s1iyH/irY27R2D/+PSL/APE1sCQYz6UAee6tq/8AZV74wJXCyyRRtOWAWEG3jBYjOSeeFAJY4ArpPAenzaX4T0+2uImhm2NI8TEExs7Fypx3G7H4Vcn8P6XdajHqs2n2kl5GAI7holMijthiM960EYKOaAMjXwRNpUo6x3yfkysv/s1bSjArH8TP/wAS+BlPK3lsf/Iy1roMLj0oA57WM2/jDw9crjEqXVox9QyrIB+cVdGDxXM+KgDq/hg/9RJh+dtOK6YUAFFFFABRRRQAjHFcxo0C3+ueKzKPMhe4itSPUC2jJH/j5/OunNc34RwLvxGfXVn/AEhiH9KAOauPh7DoNpc3Z1Ge6Plm2t1dVXyxIwQ5IHzHDYye34Y9IjUKgA6CsnxP89rZw4B829t1/ASBj/6DWuowBQAj9DWT4b/1V/8A9f8Acf8AoZrXbgVkeHOYr4/9P1x/6GaANiue8W2cN4titzGZIDc+TIoOMpLG8Z5+riuhrG8VZGkM6jmOeCTPoFmUn9AaAMvwr4CtvD1/Jetf3F7KI/JiMiqgjQnJ+6BknA5NWvCeyK71+2QFRFqbnB7l0SQ/qxroE4FYHhnjW/E6+l/GfztoqAOiooooAKKKD0oAKKrSsd2MHvSwuST6fyoAxfH83k+DtZYEhns5Y1IPQspUfzo8MRCO2vWQ5LXUox/uERj9EH5U/wAXszaHMqlA7vCi7xx80qj+tP8ADjmWylZk2sbq4BwMZxKw/OgDVR85OCAT345rjvF4E/jfwpCG6GeTb64aL/A12qpjn+fauFjb+0/idIRgrp8KxjA6MEZn59/tEX/fNAEtj841K4/56+IlGfUIY4//AGWo72Mza7r0jEbY77S4/wAAyH/2c0/RDv8AC1lcEYN1rD3H133bEH8iKW6jaabxsIwTIjwzIB1LJbow/VaANf4fvnwVo6ZyYbZYD9U+Q/qtdDXL+ALlJNHuoF6Q6hdKoA6I0rSJ/wCOutdRQBw/jAG08U6TeAYHn2pyP+uphP6XP6V3FcJ8SXMVxp7r1zGfyvbSu760AFFFFABRRRQAN0Nc74fO7xJ4mJ6i4gX8BAh/rXRHoa53QPl8TeJUPUy28n5wgf8AstAHRUUUUAB6VzvhjnXPFJ/6iEX/AKSQVLrHjTRNBuvs+pXYtjt3b3Hygc9SOmMck4rmND+IPhez1fxFJJrVptuL6JoArbjKPs0KkqByeQRx6GgD0Siqmn6nbapbR3NrIJInGQQf51bJxQAj/dNc74I/48dSHpqt7j/v8x/rXRMeK57wP/x46kT31W9/9HMP6UAdFRRRQAUUUHpQBy9jbQz+N9cWaNHxaWTDcoOOZx3roo7WGL/VxqnsABWDZvt+IOox4/1mlWr59SJZx/WukoAQLj1pT0NFI2SpA6470AcLaypD4Auy7BVN5eDJYD/l7k7mui8GK6eEtGV1KstjACD1B2CsR/hrbyzTLNqF3JYSzSTtYkpsJdizKWC79pJORnkEg8E12MMYijVAMBRgD0FADmUOMHP4VCbOFmyy7v8Ae5qegnAzQBzWsRqni7w4FGOLo4Hp5Y/xrpF4AFc5qrb/ABtoKYyFtL2Q+2DAv/sxrpB0oAKKKKACiiigAooooAKKKKACiiigArnNZOPGnh70Md2v/jsZ/pXR1zfiAiPxT4Ybu09xGPxgdv8A2SgDpKRjgE0tIw3KR6jFAGHreuSWUqQWl1ai5IyYGgeaRh6hUIIHuRisqDxrqwv206fwzqEtz5QnU27wqpTdtyRI6kHI6c11NrYW9m8rQQQxGVi7lFALse5x1P1rFjXf4/uTx+70uIfnLIf/AGWgDNsfHt7qVvb3yaPLZWE3PnXQZiADgkiIMq9D1auttL2C+hWa2ninibo8bBlP4isTwGM+FrRP+ebzR/8AfMrD+lbsVtHb58qNEBYsQoAyT1PA60ATYFV5I13ev64qWQ4H1qvOxS3dwOQpPH8QxQBh+AHZ/B+luSxLxb8n3JOf1roVGSMY9axPA8LR+D9DjkQxyCwg3L3B8sE/rmugVcCgBEUAY9KdRRQAUjnC0tIw3DFAHN+HWKeIvE0PQfa4Zh77reMfzU/lXS1zVjiHx3q8X/PWxtJvbIaZc/kB+VdLQBBd2cF7C8M8YdHGGU9x6VznjXTLOw8FaklnbQ2yRxq+IkCgbWB7fSuqrnviGAfA+t57WcpH1Ck0AQX9tE3jjSkZFKnTrzII6/PB+dblppFhp80k1paQwSSDDmNAu764rHvf+R70Y+un3g/8fgrpKACmv0p1UNevDp+iX94CF+z28kuT22qT/SgDL+HRLeB9EcjG+0jf8xn+tdHWV4VtDYeGNJtGXa0FnDGR6EIAa1aACiiigAoooJxQBzev4Hirw0xP/LW5X/yAx/oa6HezfdHHqaxdYhSTVtEuWUHy7t1U+m6GQVsknOF7dz0FAGQ9kLjXbsyOxVrKONgDjgvJnB61nzaNcI7x6TJqcLpx5sl0xjz7B92fwXHvWjZPJJ4g1PcWKRxQIpA/3yf/AEIVqZPqw/3ulAHAah4m8aaRFfRy2+iTC0e3jWVmkBcSsFywAABXOTjGQOMVoNZ6yjeZrK315H3/ALPuiqr/AMAUIxHsCxp2pTx3H/CURsozbtb7s9DhFf8ArXXo2DtOT3BoAwdbsbbT/Dkn2dZVRZYpfnkdzkSIerEkdK6BMY4rJ8W/8i5ft/di3fkQf6VrocjNAHN+Kcf2r4Y99TP6W05rpR0rnPEY8zXvDUQ6i+lk/AW0o/8AZhXRLwMUALRRRQAUUUUAIa5vwhzc+IfUatJ/6KiNdI3AzXN+Evkv/EqnqNVJ/O3gNAF7WyG1HRISM7rtn/75hkP88VrL90Vk6lh9c0gd1Mzj/vjH/s1a45oAjmcRruJAA5JPQCud8G6vYalFfLZX1rclb2dmEMyuQDIcE4JwDg4rV8Qv5WhahJn7ltK35Ia5fwrZxafr2nRxRxxmfQYCQq4zscAk+p+cUAdzWR4tUnwzqZHBW2dx+Az/AErXrP8AEEfm6FqMeM77WVfzQ0AXYzkE1z/hvI13xN738f8A6TRVs6XKbjT7eU/xxI2fqKxvDHOteJj6aio/8l4aAOjooooAKDRSMcLmgCKVFPU/h600Ap0+n/1qXqxOMeh9DSBfUH8e9AGD45UN4dky23FzaHJ9riMgfnx+NbWn2i2cbRq7OGdpCWxnLEn+tY3j1Cvha8bOdjQuD6YmQ/0roy2xMntQBT1jVINF0641C5YiC3QyNgZJA7AdyegHcmuN8GRvpmjapr+ogCaRZZpWBzypZ3wfQOWUHuqLUnieW78Wa1DomnF0s7SVXvbj+FZR8yJnuVHz4/vGPtnF3xjbw2XhVdGhKxJePFp8ag4wjsA/Psgc59BzQA3TrR7Lwf4Ztpf9YjWe8f7XBP65qxp6rb+NNbgfpdWttcjuD/rI2H/jq/nVDxXpkWs+INPspnnFuun3VwiQzvEBIrRBH+QjJGTj6mn6b4ct/E2haFqd5dXqzHTo0kMNw0ZnVlRiHI5PIz1HU5zmgCDweg0nxJqulWc4urQLHMXiGVgkGY/KYjjd5aRcdeCSBkV3lU9O0210u0jtbK2htoI/uxxIFUfgKuUAcp8RLSJtGF4QfOjntYlPYK11AT/6CK6sdK5vx+u7w8VHe9sh/wCTUVdIOlABRRRQAUUUUAB6VzeljyPHGuIT/rbOzmA/GZT/AOg10h6Gubc+R4+Qnpc6WR9THKD/AO1TQB0g6UUL0FFAHLeObC1tPBniGWC3jjea0maRlUAuSp5JHWk1mMLr/hYdjPOSPX/R3q14/YDwfqin/lpF5f8A30wX+tN1u3Muu+HWzgRXMoPvmCTigDZgtre1Zvs8EaFzuYooXJ9Tjqalw56sB9BRkKAFHJ6AU0k9257haAFYHHD8/hWJ4Nha20eRmIfzry6nyB2ed2H861p5fJgklO/CKWOfQCsvwXJI3hPR5ZlCvNaRSuAMYZ1DEfmTQBuqc/SlqP7jbv4T19qkHNABRRQelAHNuwi+INuBwJ9KmH1KSxH/ANqH866QVzWvf6N4o8N3WQFeS4tD774i4H5wj8q6RelACSMVAxXK3Ws65JdTf2ME1CNWI2yWxjiXHUeaWGcHI4VvpXWUh6GgDg/+E/10eHp9cPhqI29uszSbb4Z/dMytgFPVTjp/StSw1bxH9sh/tWw+zxOwGy2i85Bk4GZN+cD1KAVhkk/CDVjtPMWoP+Hmyn+Vehx8ov0oAcKRuVNLQelAHNcz/EBcMCtrpRyO4Msw/wDjRrpVOQDXOaUWm8Z66xC4jtrSIHvnMrEf+PD866MdKACiiigAooooAKKKKACiiigAooooAK5vxW3k6n4cuevl6mE+m+CVP5sK6Suc8dER6Rb3HQwajZSZ9P8ASIwf0J/OgDox0oozRQAVzdmN3jzVmz8qadaL+Jec/wCFdJXNaIpk8W+JZTyFe2gHtiENj/yJ+tADvAf/ACA5V6bL+9TH0uZK6Fnxx1+lc54NYpHrNvtwINVuQB7MRJ/7PW6epBzyOWzQA923DPcdj3rO8QXAtPDuqXDHAhtJZc+mEJ/pV8JngDp+lYnj5tngzWI1GWntXtx7mT5APzagC/4btxa6Dp0GctHaxISepIQCtOoraNYYljUYVAFH4VLQAUUUUAFFFFAHNXOYfiDanOFudLlH1McqH+Uhrpa5rxEPJ8T+GrnPDzT2px6PEzfziFdLQAVz3xCIHgfXT/05Tf8AoBroa574hDPgnWV/vWrr+Yx/WgBl7keONEH/AE43n/oUFdJXOasRH4y0Bv70F3GPxEbf+y/pXR0AFc58Q2P/AAhmqxKQGuITbjPrIQgH5sK6Ouc8bjz7TTLDGftmp2yEeyP5p/SI0AdDHjYuBgdhTqRPuCloAKKKKACmS/d478U+mS9B9RQBi+JJFto9PmJ2rHfwj8WOwf8AoVbGBkKOg6+5rn/HQP8AYkb4/wBVf2chx6C4j5roU4LA+xA/CgDP0+VW1HU1TDFJkUgdv3an+taBbnDLj+VY+hsRea02Bk3wBP0hiH+Na5/u5yCKAOK121KaJ43uYWIeXe4P91ktYwPw+WuxgmW4top16MocfQisGG0/tDQdehPzC6luU+vy7P6Vc8J3JvfCmlXJ6y2cL/iUUn9aAJvFK7vDOqD/AKdJT/46a00xtyOh5rO8TD/imdVH/TnN/wCgGr1s26CM+qj+VAHP6srS+NfDyg8RxXcpH0VF/wDZ66UcVzlx8/xA04HpHpd034mWAf0NdHQAUUUUAFFFFACN0rnfDalNa8TL2OoI3520NdE3Suf8OsX1rxLycC/jA9v9GhoAnvjnxHpQP/PG4P8A6LH9a2l6Vi33/Iz6X/17XJ/8eiraHAoAx/GTbPCWtNnGLC4Of+2bVk2sYt/Ffh8k8vo08X4q9uf61f8AH7FfBGv46nT7hR9TGw/rVbUU+z+JvC7jjIubf84g2P8AyGKAOoqG9j860mj/ALyMv5ipqRhlSKAM3w027w9prDvaxf8AoAqh4WAOq+Jm9dT/APbeGrvhU7vDWln1tIv/AEEVS8Lj/iaeJB6an/7QioA6KiikJoAGbaM0xm3DacjNMdjuBxnnpnFIFyOOc0AOQ/N9Sc/41II1ByBSIm0U+gDnPiEP+KN1YjqICfyINdC43J65rA+IP/Imav8A9ezV0I6CgDk9LdNG8U6npUp8tNRYX9oT0c7VWVR7gqrEej+1Z3iZzreo3+zm30i2eEE8h7qdduB/uRt/5F9q63WNEs9cgEF5FvUEMrKxV42HRlZSCp9wRWLeaLb6RpNhpNrv8uW+iyzsWeRvM812YnqTtYk+9AElxCr+N7SNRhY9KnGP96WIf+y1naHcS2vgPw7MkhUWxtopecAruETA+o5J/CtGNi3xBlXsmkxnPu0zf/E1maZEB8ONQh6tam+UZ7NHNLj/ANBFAHbx8IKdTIm3xq3qAajvbyGwtpLm4bZFGMs2M4oAxfHAB0eAf3tRsB/5NRV0Nc542YNpVrj/AKCdh/6VR10dABRRRQAUUUUAFc3rIWDxj4fnI/1sd1bZ9yqyfyiNdJXOeMcxTaFeDA+z6pFlvQSK8RH/AJEFAHRr0FFIvIBpaAOc8ffP4ceHqZru0hA9d1xGP61PrhMX9m3QGRFepuJ7BwY//agqt4wJlfRLRThp9VhOD3CBpf8A2nVnxRtTQbiU8CIJMT6bGDf0oA1QSRn+Jv0FPyEGAMn2psYwIz04xS9JGz6DFAGf4jvfsHh/UrqQbVhtZZCR2whNWLCEW9hbRr91IkXHqAAKyfG6Nc+HJLYMP9Mnt7Vh/svMit/46TW9GMbl7enpQAKMgqTx2+lPjOV+nFRp94D0BH61JH0P1NADqKKKAOc8YKFm0GfH+q1WL/x5JE/9mroY/uDnPvXPeOhjS7OcttEOp2Lk+32iMH9Ca6JenTFAC0jHCk+1LTJ+IXPopP6UAcLbp5nweuiR/rdLuZPqWV2/rXa6dJ51hbS/34lb8wK5LSx5nwkhXH3tGP6wk/1rptAO7QtOPraxH/xwUAX6G6Gig9KAOc8NAPr/AIonBJBvYov++baI/wA2NdHXOeC8vFrFwes2q3Jz6hX8sfogro6ACiiigAooooAKKKKACiiigAooooAK5v4hN5fhDU5QCxgjWcD3Rg//ALLXSVjeL7T7d4X1i2/57WUyDHXJjYUAa6HNOqhod19u0qzu+08CS5/3gD/Wr9AASBXNeFm3XviScj/Waq4+oWGJP/Za6KU/KSBkjmsHwqgitLxiSTJf3LsT3zKw/kBQAzQTFFrniKCNWDLdxSu2eMtBGMgf8BrdVSehBA6GsPS5P+Ku1q2EajFvazbz1bPmL/JBXQqm0YFAAqgDpXO+NTvsbC327vP1OzTbnGQJlc/oprpK5vxORPrXhq1A+Y6g055/hSCU5/Mr+dAHRJ0xz+NOoooAKKKKACiiigDm/Gh8oaNdc/uNUts47B2MR/8ARldIK5v4gjHhS9mBINuYrnI/6ZyLJ/7LXRr90H1oAWud+IOW8I38YPMnlxj/AIFIo/rXRVznjsF9HtolPMuo2SY9f9IQn9AaAG+IgE1/wvcMcf6ZLD/31bSnH/jtdLXN+LRtk0GUjmLVoTn/AHkdP/Z66SgArmNdYz+KvDdvnmNrq7x67YvL/wDawrpz0rmow134/lJPy2OmKAD2M0pz+kAoA6RelLQBgYooAKKKKACmuu4EU6igDF8VAN4cvWK5KoHI+hB/pWovGASAw6Z7iszxcfJ8L6xOF3eXZTPt9cIT/StC1uEubaOTGA6BgD7igDO0dxLd6r+75S9KnpyRHHz+tahPPUbjxj0FZ2kQxJNqLKAN12zNz32KP6CtBmAHyKCaAMrw/g6ZIAfvXVw34ec1Q+B7d7XwjpNpI254bdY2/wCA8H+X6UngiZrzwrZ3cnLXAaY/8Ccn+tO8DM8ug5kbc6Xl3ET7JcSKB+QFAF/xL/yLmqf9ec3/AKAat2JzZwH/AKZr/Kq3iIf8U/qQ/wCnWX/0A1Pppzp9sfWJP5CgDExu+IKEf8s9JI/76mH/AMTXSVzVq5b4h3y9k0q3/WWb/CuloAKKKKACiiigBH4Fc54UIbU/Ez566pj8raAV0bdK5vwfzLrsg/j1af8AHAVf/ZaALd9k+KNMx/z6XX/oUNbK9KyboZ8U6d7Wdz/6HDWsv3RQBzvxDYr4N1MDq8YT/vpgv9ab4nby9W8MP/1Eiv0zbTj/AAqTx6ofw1JEf+Wtzax/ncRim+LTsl0CUj7mqw8/7yuv/s1AHRjpSN0NKKRvumgDI8HnPhfSv+vSL/0EVU8LkjWfEy/9RIH/AMl4as+Df+RW0v8A69Y//QRVXw1xrniYHjF+h/O2ioA6TNQsSzY5OSeM46UF8kdec9O2KQYf3z6+tAAOTwc+oNSKuPr60ImMnjPtT6AADFFFFAHOfEMn/hD9SQHl41T82A/rWhqmozae1owQGGWdYZXP8AYEKf8AvraPxqh49Bbw48Y5Ml1aR4/3riMH9DWh4htWvdDvIIx+9MRMfs45U/mBQBoI25cmsbWH3axoaHkfaZG/EQSf41paZdJfafb3cfKTxrIPoRmmzafFcT208g+e2cvGQcYJUqfrwxoAx7Qh/HepnH+q020X85Jz/Ssuw+Twl4pjz9y61L/x53b/ANmrT0oH/hNdfY8kW1kn5ecf/ZqZ4Xjjlm8R2zKroNTkDKwyDuijYg/99UAdBY82cH+4P5Vm+Jh5tvZWuM/aL2FSPUK3mH9ENa6KEUKMYHTFZWrHzNV0ePj/AF7vz7RN/jQBU8bALokLdNuoWB/8moq6KuZ+IG4eHCw/hvbJvyuojXTCgAooooAKKKKACub+IJ8vwxNcnOLWaC6OO4jlRz+gNdJWN4xtDe+FdXtwMmSynUfUoQP1oA2F+6KWqmkXP23SrK6znzoEkz9VB/rVugDmtexN4q8NW+fuy3Fzj2WEr/OQVp61bG60m+te8kEij8VP9azpsz/EGzU4K22mTsPZnljH8kNb8q7h70AVdPnW60+2uM/LNEkmfQkA1ZILDlQ3uDWH4Gu2uvCOkTzLsdrWMEehCgY/St0KnXIH0NAHOeLCXufD9qMATaomU7kJHJJ+hQV0Q+RC3c1i3skJ8TaXb5XzEinudvUnAVM/+RP1rbCluWwPQDtQA1flBP4CpEGFApBHjGTnHT2p4GKACiiigDnPiEv/ABSF/JnHkBLj/vh1f/2WuiX7oxWF49GfBWu8DiwnPPtGa2bRt9tE395Af0oAlqK6bbbTN6Ix/Spar6iwTT7picAROf0NAHNaDCG+GVjETjOkID+MOP61ueG2D+HtLZTkG0iIPr8grP0WIL4DsYxyP7MQZ/7ZCrPg59/hLRW9bGD/ANFigDYoPQ0UHpQBzngEH+wGZur3t4/53MpFdHXO/D/5vCdk/wDz0Mkn/fUjH+tdFQAUUUUAFFFFABRRRQAUUUUAFFFFABTJkEkLowyGUg/jT6D0NAHPfD9zJ4L0Rn4cWUKt9QgH9K3S5DEfp7VgeAOPClknaPzYx9FkZR/IVtsRnJBznk9xQAE5Oecd/pWH4HZrvwxZ3b7WacyzBsY4aRmH6EVsTuYoJJT8u2MsazvAy48FaGSAC9hA5AGBlkBP6mgCtbEwePL1f+e+mQNn1Kyyj/2cV0wORXNTgp4/s27S6XOPxWWL/wCKP510o6CgArmr39/4+0qMgFbewupfcMzxKP03V0tc3akz/EC/cEFbbTbeP3DPJKT+irQB0lFFFABRRRQAUUUUAYXjaA3PhPWoVIBexmAJ7HYea1NOnW4sreVWyHiVgfUEVFrkXn6RfRf37eRfzUiqvhF/M8L6NITkvYwMT6kxigDYrnPF53z+H4OD5mrR5/4DHI//ALJXR1zXiJs+IfC8RGQbyZ/xFtLj+dAB42bZY6c+emq2X6zoP610o6VzXjdd2naeB/0FbH/0ojP9K6UdBQAGub0L974t8STYP7s21sD64j3/APtWukIrm/CGZLrxDcMcmXVHGfZI40x/46aAOkooooAKKKKACiiigDN8SR+d4e1OLrvtJlx9UNHhyTz/AA/psh532sTfmgq1qSeZp90n96Jx+YNZ3gt/M8I6K3XNjB/6AKADQI0E+q/KP+P5/wD0FK0byUW1rLPwBGhf8gTVHQh+91T/AK/n/wDQVpPFk5tvDGrTZxsspm/EIaAK3geHyPBmho2QfsEBP1KAn9TTPBeY11u2PHk6tcYHs+2T/wBqVq6Rb/ZtGsrfp5dvGmPTCgVleHCY/EHiiPsbyGQD0zbRD+amgDU18Z0LUR620v8A6Aak0kk6Za5/55J/IU3Wxu0a+A728g/8dNLox3aTZn1gT/0EUAZFh8/j3V2/uafaL+clwa6Ouc0c7vGviBvSC0T6YEh/9mro6ACiiigAooooAa5wK53wMVl0u8mAOZdSvST9Lhx/SujcZFc94A+bwrbTcDz5J5/++5nbP60AXJTu8UWo64spyPxeL/CtasVW3eLgP+edg36yD/4mtqgDnPHbbdItV/vanYL/AOTUVN8Z/wDHtpb9AurWfX3mVf607x0u7TbAD/oK2P8A6Uxmk8bjGk2sn9zU7Bv/ACaioA6SkboaFOaU9DmgDD8JnZ4b05RwBCq8+oFU9FYL4s8SQgEMWtpcH1Me3/2SrnhrH9gWgAzhCAPoxBqK0BXxbqCbRse0tmDEYLYeUEfhx+dAG2UDjgAj0PrT1TGM/l2FKi4zzmnUAGMUUUUAFFFFAHOeNpGWy05F6yapZKfp56E/yroZOE71z3i87rrw/D2k1WP/AMdjkf8Amua6FuBQBk+E/k0SODGBbyy24B7BJGUfoBWxWP4eHlvqkJ6x3z8f7yq//s1a7dKAOc0b5vF3iJ89Dar+UZP9aPCqBNY8UD11JWx9baCjQQW8S+JWP/PeBf8AyAp/rTtAIHibxKit/wAvEDke5gQf0oA6KsXUDnxDo47YnP8A44P8a2qxtRUjX9Hbt+/X80z/AEoAqeP/AJfCl9J/zyMUv/fMit/SuiVs1geP0aTwVrgUbmFlK4A9QpI/lW7A6yIrryrKGB9QaAJKKKKACiiigAqvfL5lpNH/AH0ZfzFWKa4BH6UAYfgSRpPBehs5y32GAH67BW9XOfD458H6UP7sO38iR/SujoA5uzbzPH+pjvFp1sAfrJMf6Cuidc1gaYM+Ntbfji1tE/DMp/rXQmgDm/h+c+FbJOyGWMfRZXX+ldHsX+6PyrnfAQx4diH925u1/K4kH9K6OgDm3UP8QrcgDMWkyj/vuaP/AOIrpBXNw/8AJQJx/d0qL9ZpM/yFdJQAUUUUAFFFFAGH46GfBeuj/qH3H/otq1NO5sLb/rkv8hWZ44OPBmun/pwn/wDRbVp6dxp9sP8Apkn8hQBYqjrj7NE1BvS2lP8A46avVl+KW2eGtWb0spz/AOOGgCtpA/4oyxUf9A6Mf+QhS+BjnwboZ/6cIP8A0WKk0WMjwxZRkf8ALnGuP+AAVD4COfBWhH/pwgH/AI4KAN6kf7ppaDyKAOc+HTB/BGjOP4rZW/Pn+tdHXN/DjjwLoX/XlF/6CK6SgAooooAKa5IU4p1RycAZ6Z5oAb5jf3loqI5yfk/SigC3RRRQAUUUUAFB6UUh6GgDnvASlPDcUTqVeKe5iYH1WeQE/jjNb7ICc8g+1YHgmQvY34ZiXTU71Wz2/fuR+hFdFQBQ1jEWkXz+kEhz/wABNQeE4vJ8LaPD2SxgX8o1FS+IzjQNSPpaS/8AoBo8O/L4d0z2tIv/AEAUAZ2pbU8caIP79jej8mtzXRDoK5jUJBN490ZRwYLC8d/YM8Cj9QfyrplOQDQAtc1o5C+NfESMCGaO0kBx1Uq6j9Vb866WuatQf+FiaiV+7/ZdqG9j5s+P0zQB0tFFFABRRRQAUUUUAVdTdY7G4ZvuiNifpg1m+Cvk8I6EjEbhp9uCP+2a1c1u5trTTLye9OLSOB2mP+xg5/SuQ8KNqmgWWkRX7tb2Zt40m+2SptVzGCBGQcg5GCDxnOMdCAd/XNa8AfFnhjOeJbkj6+Sw/rWzc6na2EXm3c0cEZIAd2ABJ7D1rE18n/hLPC+P+e1z+XkN/wDWoAk8YHcukQj/AJaapbf+Otu/9lNdHXNeLsi78OP/AApq0Zb3zFKo/UrXQ+bz07etAD9w6ZFc74JwbPUmyCzapeEjuP3zD+WKm8Qanf28Xl6Vax3VwSBIC65hUg4baSN3TpkfWs34eSmePWZC0pLai4bzU2OCI41JZexYru9PmBHBoA6+iiigAooooAKKKKAIrsZtZh/sH+VYnw/ct4J0LI/5cIP/AEAVuXH+okHqprC+H3/IkaH7WMP/AKAKALmhY83VP+v5/wD0Fap/EAj/AIQzWVPG+1eP8WG3+tWtBP7/AFX/AK/nH/jiVT+IBz4ali6+dc2sOPXfcRr/AFoA31GyFV9ABXO6S+PGfiGEArmCzlz7kSr/AO066XGVxXOxDyfH90p6XGlQt9SksgP/AKMH50AbWpru025HrE38jUWhMH0WwYd7eM/+OirF4N1nMPWNv5VT8NHPh/TT62sX/oAoAztBJfxX4lJx8ktug+nkqf8A2aujrnPDqn/hI/FDn/n8hA/C2i/xro6ACiiigAooooAr39yLOzmuG+7EjOfoBn+lZXgaH7N4K0SPkkWMJPrkoCf1NP8AGs7W3hHWZlOGSymI+uw4rR02BbXTraBRhY4lQD0AAFAGfbgHxXctjlbGIZ+skn+FbNY9kd3ijUj/AHbS2H/j0xrYoA53xvn7Dp3vqll/6PSl8cYHh1m/uXVo35XEdHjb/jx03/sK2X/o9ab4+OPC1x/13tv/AEojoA6FKc3Q0i0p6UAY3hZQ2hwr2WSUflIw/pVVx5Pj6AFztn0yTCk90lX/AOLq54VGNI25Bxc3I/KdxVLVMReN9CmP/LS2u4B9T5b/APshoA6TGKKKKACiiigAooooA5vxGRN4l8M2x7XE9z/3xA6/zlFdGwyOa5u/bzPHunIekGmXMn0LSwgfoGrpDyKAMXSDjWtcUZwbiJv/ACAg/pW0/wB04rH0jH9ua1/11i/9FLWwaAOe0DnXfEhDZ/0uIHjp+4jpmgp5fi7xIO7fZW/OMj+lO8OY/tvxLg5zeRZ9v9HipdHP/FZeIR/0ytD+klAHRVj6wfL1TRSB1uXX84X/AMK2KyNeIS50eQ9r0DPpmNx/WgCzrVp/aGjX9oBkz28kQ/4EpH9areErkXvhnSboMW86zhfPrlAa1cfIe9c/8PuPBukxnrDAIT7FCVx+lAHRUUUUAFFFFABUNy5jiZ1GSoJA9amrO8Q6gdJ0TUNRxu+yWss+PXapb+lAGT8Obi3n8G6QYZUc/ZkMgVgdrkZYH0IJPFdPXKeGPDH9mJp149yvmR2iROsUYTzTsGS5Gd2DkjpjNdOJQT0/WgDB0o48aa6p6m3tGA9v3o/mDXRHpXNaSftHjjXZkOUitrS2Y/7Y8yQj8FkT866WgDnfAeP+EfyP+f29/wDSqWuhLAdSBXNeDG+yw6rpzcPZalcgj2lfzlP/AHzKPyNbGoQfbreSDz5bcSKU82JgrrnjKnsaAMlWC+PwVIPm6Wd3tslGP/Q2/Kukrh9J0U+G/G1khu2uY72xuF3yKPMZ0eNvmYfe4ZufYDsK7igAooooAKKKKAMTxvG0vg7W41zuewnUY942rS010k0+2eNgyNEpVh3GBg1n+L9RfSvDt5dRxrJIFCIG+6GchQW/2QWBPsDVLS9Sg8L2Fro99FcQxWcMcEV06lo5kVQAxYDCng5Bx7ZoA6asLxxOLfwdrsh/hsJ//RZq1b+I9JvJlgtdQtZ5W6RrKNx+g6mszx+3m+ENRiAAM6LbgHuXcJj/AMeoA27WEW9lDAP4IwuPwxWR8P3H/CG6Wn/PKIw/ijFf6VurnvXP+B28vSbq2CkC21G9iX6faHI/RhQB0tRXU8drbS3ErBI4kLu3oAMk/lSSXUcKF5WWNAMlmOAPxrJk8QWOqTf2fZxjUkmyk7RMGijQgglm6ewUHJz9SACL4fwSW3gvRIphtdbGHcPQlQcfrXQ1zvgCV5PCtkryNIIg8KO3Vo0dlQn3KqK6KgAooooAKCAR0oooAj8pf9r9aKkooAKKKKACiiigApGOAaWkcZUj1oA4zwnY3Go6H/atte3FnJf3U98nlYZdkjkqCrAhhtCnsQScGtdLbV5t6Sa9GrJgMLe2VWXvzuLDOPaszwfrNnpHg7S47qZUEaNbxAZLSbGKjao5bgDpmnX0ltqdybq00bVvtRX5bmHFsxA6AlmUkexBHtQBc8X3Umn+ENS+Zppmtmgi3Y3SSONiDgYyWYDj1rZ0+2+yafbW3UQxJHn6AD+lcr4gs54NP05rm8u5xJqVjmOfYdh89DjKqM8gDPNdin3RQBzWtgW3jHw/PEcSzJc28g9Ytqtn8HVB/wACNad/ZXtxIs1jqUto6jGwoskbD/aU8/kQaz/EyeX4h8NXY+8bma0I/wBl4WY4/GJar38Wo2MxhN/rskJGfNit4JB9OF3fpQBf+w65efJdapFBED832KEo7j03MzbfwGfeqlkv2Hx9exHJF/p8MqknJBidlYflIh/E1Y0jWdNgC2n226aeQkgXwZJHPsGAGPYDAqNR5/j9HJ4h0olffzJhn/0Wv50AdJRRRQAUUUUAFFFFAHPfEDnwXrv/AF4Tf+gGtKW1a40tYUEYd4wP3ib16d1JGfpmsvx827w5PbYybySGzABwT5sqof0Yn8K6IAAADoKAOe0nw4bG7aaWx0ZCB8slralHz3PJOB7CmX4Nx440eLqILO6uD/skmJAfyLV0tc5YATePdUkP/Lvp1rGv/A5Jif8A0FfyoAb46Uppdrc9Bb6hZyk+gE6An8iaXV/DH2y6+0W1vp+5xiUzxMS/4qwz+P50fELH/CJahnsI9v18xcfqK6RelAFHStLg0uzWGK3tYXIy5t4vLVj645P5k1k6Goj8XeIlX5Qy2rlPU7GG78QoH/Aa6SubgYW/xAuk73WlxP8AUxyuP/agoA6SiiigAooooAKKKKAGTcxP9DWJ4Cx/whmi4/584v8A0EVuTf6p/oaw/AX/ACJeif8AXnF/6CKAJtA/1+r/APX+/wD6AlU/G+Wt9JhAz5uq2gI9QJA5/wDQauaBzcax7X7/APouOqvir5tU8NRdm1LJH0glP8wKAOiFc5fkRePNKbP+u067jP4SQEfzNdHXN62BH4x8OyHq63cI/FFb/wBkoA6GYBoXHqpFZvhU58NaWT1+yxf+gitQjK1leFZBJ4fsiMfLHs+mCR/SgCp4bydc8TE9BfoB7f6NBXQ1z3hg51bxMfXUl/8ASaCuhoAKKKKACiiigDnfH+W8LXUC8m5kgtsevmTIhH5Ma6FQNoA6VzvjIeb/AGJbf89tVgOPXy8y/wDtOuiXhaAMbT/+Rl1U/wDTG2H/AKMP9a2qyNLIbXdYPcGFc/RM/wDs1a9AHPeNv+PDTvbVLL/0elR+Pxu8LXHO0ebb8/8AbeOn+N/+QdYnIGNTsuv/AF8JUfxBP/FJXXtJB/6OSgDpEz39KVuQaBSnpQBkeGWzZ3KYxsvbkfnM5/rVHxOfI1jw3ckn5dSMZ47PBKuPzxVzw4CjaqhP3b+QgemQrf1qp42byrCzuBgmHUrRskdAZlUn8mP50AdICDRTIuh5zT6ACiiigAoPFFNf7tAHOxHzfH183ylINLt19wXllJH5IK6M9K5vw6BceI/Et3wQtzDaj6JAjY/OVq6Q9KAMbSBjWdbIJ/18Q/8AIKH+tbL/AHayNExLe61IO98F/KGIf0Na7dKAOe8OgDXfEo/6fIj/AOS8dGkADxlr5zkmG049OJKNA48R+JV/6eID/wCQEpNI/wCR11//AK9rP/2rQB0dYvicEQ2D/wB2/t/1cL/WtqsnxKM2EB9L21/9HpQBqr92uc8BhY9Gntgcm2v7yI/+BEhH6EV0eMLXN+E/3Oq+JbUdI9S8wD03wRMf1LUAdLRRRQAUUUUAFYXjqUQeDtbkIBP2GZQD3JQgD8yK3a5z4gKJPC11Cf8Alu8MP/fcqL/WgDTbTIZ9Kjsp41lVY1X5xnkDg/nVLSvDcVjKZ7oxTzq2Y3VGXaPoWbn8q3R0prjPSgDmfAx8+DUr9MmC/wBRnnhb+8gwgP0OzI9iK6iuc+Hx3eDNFbPLWkZP1I5/WujoA5SxsYL7xP4mguI1khcWgaJgCGIQndj8h/wEelW9M8KW2m3zXXk20rA/uiLdVaIex5JqKz/0b4gaiiji606CU89GSSVf1DD8q6WgDmteHk+J/DVwSQGnntv++4WYf+iv1rpFORmua8XbluPD8+eItViyf9+OSP8Am4/OulUYFAC0UUUAFFFFAHNePt8mgpaDiK9vLa0mPpHJMqNj3IJGe2c1dex1h5Sy6nbRxZOxRaZZR6bi/wCuKqeM/wB4ui2mcfaNVt//ACGTL/7TrokGFFAGKmgSyXEM+oajdXpgfzI42VERWHQ4VQTjJ6k1S8VRme/8P2EmDbXOor50Y6v5cckqfgHjUn6Y6E11Fc14p+TWfDEycyrqTIB6q1vNuP4AZoA6TaMdK5rRB9l8U+IbGFt1uxgvD/sSyKwdPyjVvq5rpq5uxXyPHmrxx/cmsbS4cf7e6ZM/iqKPw96AJ9Z8L22s3Md27PHcRKURtiOuCc/ddWGc98A1JDpWpQ7c6zK6rj5TbxjI9OAK2aD0oA5vwQptrXUtNPTT9QnhX/cYiVR+CyqPwrpK5zw4zL4k8UQkbQbmCYD1zbxrn80P5V0dABRRRQAUUUUAFFFFABRRRQAUUUUAFVdTvo9N027vZfuW8LzN9FUk/wAqtVzXxCY/8IjqkIbDXMYtV+sjCP8A9moAm8HaSlh4c0hJ4o2uorNFeQqNwLAFxn0JzW+FA6Co4ht4AAHapCcDNAHOePgI/Dct0FJNncW92cekcyOf0U10SnKg/wAqwNekj1/wpq0UGSk1tcwAnjLAMh/UH9K0dDuxf6Hp94pyJ7aOUfRlB/rQBleJQZPEPhiPGQLyWUj2FtKP5sK6MAY6Cuc1FhceN9Gh6NBZXc59stCg/wDQmro1+6KAILuytr6Lybm3jmjyDtdQRkHIPPfIrCvsWnjrSJeiXVncWnA/jUpIv6CSujdyuMDNcv4juUnXw9qsDbo01KBlbHVZVaL8P9aKAOqopFbdmloAKKKKACiiigDmvFo87U/DlrjIk1HzGHtHFI4P/fQWulHSuc1lBJ4z8PgnhIbuT8QI1/kxro6ACuc0zCeOtbX+9Y2Tj/vucf0ro65q3Yr8QLof39JgJ/CaX/GgB3j5RJ4bmjP/AC0uLZMfWeMV0Y6Vz3jj/kE2w/v6jYr+d1HXQ0AFc1fsIvHOkkAhp9Pu0J/3XgIH6mulPSua1kbPF3h2Qn7wu48/VFb/ANl/SgDpFOVBpaRRhQKWgAooooAKKKKAGTnELn/ZP8qw/ARz4L0T/ryi/wDQRW3P/qJP90/yrD8AYPgvRCBgGxhOPT5BQBY0D/j41j/r/b/0XHVTxARJ4o8Mw55E1xNj/dhK/wDs9W9A4n1b3v3/APQEqpqG2Xx3o6d4bC8l+mXgX+poA6MdK53xKqrrnhmdjjbfSR/XdbS/4V0Q6VznjPcg0WZf+WWq22T6BiU/9noA6Ij5cZ/GsjwiANChUDG2SVfykYVrnpWV4XGNJx6XFwP/ACM9AFTwt/yFfEv/AGEV/wDSaCuhrnvC3/IV8S/9hFf/AEmgroaACiiigAoooPSgDmteYT+JfDduRnZNPc/gkJXP5yCujXlB6Vzki/afH9sDgi10uVvoZJYx/KM/lXSgYGKAMbRR/wATnXWHT7REv5QRn+tbNY+h83+tH1vFH5QRCrVzqLQalZ2axhvtG8ls/dCgH+ooAyfHn/ILsf8AsK2H/pVHSfEED/hELz2aHn/tqlP8dDOl2Xtqlh/6VRUz4h/8ifqH/bM/+RFNAHRp05pW6GhRjiqs9/HBd29q4O64LKhA4yBkg+nAoAp6GcX+tpjgXoP5wxGq3j6Mnwdq0iYDwQG5Bx0MZDg/+O1Y0bjVtcH/AE8xn/yDH/hVvW7YXujX9qRkTW8kZHrlSP60AWLdxJGrg5VgGH0NS1keEro33hjSbk9ZbOFz+KA1r0AFFFFABSP900tNdgqEk4A5NAHP+DFDRaxccZn1W5JI/wBhhF/KMV0O4HpXPeAFLeE7K4YYa7Ml2SO5lkaTP/j9XvDs0lzoVhPM5kle3RmZupOOtAEXhscamf71/Kf0Uf0rZPSsjw5wupD0v5v5itY0Ac7of/I0eJB/01tz/wCQVpdJ48b68P8Ap0sj+s/+FJon/I1eJP8Arpbf+ihTtN48c64P+nGy/wDQrigDoayPEzYs7Vf719aj/wAjKf6Vr1jeI+f7MT+9fxfoC3/stAGwPu1zmjZh8Z+IIegkhtLkD1yJEJ/8hite41CO1urW1ZWZrlmVSOgwpYk/gKx23Wvj2Fic/bNLkXHvFKpGfwlNAHS0UA5FFABRRRQAVzvjr5tJtU/v6jZL/wCTEZ/pXRVz3jMqYdJRjw+qW36Nu/8AZaAOhHIFI3alHQU1h0NAHO/Dr/kSdG9rZRXSVzfw6/5EnRj/ANOy10lAHN2w3/EK9YfwaVbj85pj/SukrndNYN451rg5SxsxnPYvcGuioA53x0qrpFrOf+WOpWL/APkzGP610KcCuf8AH3/IrXLd1lgcfUTIR/KugXoKAFooooAKKKKAOa8RP5viPwzbEE4u57j6bbeRf/aldIvTpXOakPM8b6JGf4LK8lz77oF/9mNdGn3aAFrm9cRZfF3htD1RrmYfhEV/9qGukrnNUO7xzoS+lpeN+sI/rQB0dc2hK/EK5A6S6VDn/gE0n/xddJXOSkL8QYB3fS5fxxNH/wDFGgDo6D0NFI3Q0Ac7pn7rxxringPZWcn/AI9OP/ZRXR1zaMq+P5owMGXS4yxHcLM2P/Qj+ddIOgzQAUUUUAFFFFABRRRQAUUUUAFFFFABXN+M/wB9FpdjjP2vVLZT9EfzT+kRH410lc54iy/iTwwmeFup5SPpbyD/ANmFAHQsyoMnArG1zVXtglvZESX9ydkEWe/dyP7q5BJ/DqRTdS1qWW4bT9KjS5u1/wBYxJEduCM5cjvjkKOT7Dmp9K0SOzY3Usz3N7LjzbiRQGYA8KB/Co5wB9Tk5JAJrDTo7DTILELlI4whJ6txgk+56n61m/D52bwVo4brFbLF/wB8fL/St65dYoXkc4RFLMfQYrC8AxsngvSGfrLbLOf+B/P/AOzUARAb/iDIccxaUmM/7UzZ/wDQBXSr90VzUzG38e25YYF3pboPcxSqcflKfyrph0FADXBJGK4fWAbfwTqcagmTRrjzVz1AhlWZP/HAK7quO12L7RZeM4UP7uSzZTj/AJ6GAg/+O7KAOujIIyDkHpT6p6PJ5ulWcmc74EbP1UVcoAKKKKACiiigDndXwPGmg5/itrxf/RR/pXRVzfiFQninw1OWxma4h+u6Fm/9krpKACubiXPxDuD6aTF/6Ok/wrpK560w/j3Ue+zTLYfTMs/+FADPHR/4ldl/2FLD/wBKoq6Sud8b5XS7Vgemp2H5faY810VABXN+I2CeJPDGf4rqdf8AyXkP9K6Sua8Tf8jH4V/6/Zv/AElloA6RegpaRTkA0tABRRRQAUUUUAR3RxbS/wC6f5Vh/D7/AJEfQv8Arxh/9AFbd1/x7S/7h/lWL4AGPBOhf9eMH/oAoAtaJt36kR3vZCfyUf0qkV83x6suMrFpRXP+/KD/AO06s6A2V1A/9P04/Jsf0qpaEt471IkjC6darj0zJMf6CgDpK5zx2SuiROv8F/ZN9MXMddGDkVzvxA+XwpeS9BEYpc+m2RW/pQB0P8NZfhr/AJBZ/wCvm5/9HvWp2rM8Nf8AILb/AK+rn/0e9AFLwt/yFfEv/YRX/wBJoK6Gue8Mcat4l/7CQ/8ASaCuhoAKKKKACg9KKDQBzWmlZfHOsyjGIbK0gOOxLSsf0Za6QMGXI5rktGuktrnxbq0q/Kl6Rx3SO3iH891b2gW0lpo1pFKSZvLDyEnOXb5m/UmgCv4fO6bVXwBm+cfXCIP6Ul5z4o01cdLa4b9YxS+Gjuiv29b+4/RyP6U26P8AxVlhn/nzn/8AQ4qAK3jvP9lWWP8AoKWH/pVFSfEAbvB+pD0RT+TA0vjo40uyHrqth/6VRUvj0f8AFHauf7tuzflz/SgDoV6Vj60B/aGjuBllvDj8YZQa14+VB9qyNVBfXNGiB5WWWcj2EZX+cgoAXSF26zrPP3pYm/8AISj+la7jKnNZOmnGv6unosB/NW/wrTZ8krQBgeACV8MwWxOWs5ZrQ/8AbKV0H6KK6Oua8GgQz6/ajpDqsp5/21SX+chrpaACiiigAqhr9yLLRL+5Y4ENvJIT6YUn+lX6574gOR4M1aNRlri3NsB6mT92B/49QBZ8LwDT/C+lWx48iyhT6YQD+lL4X/5FnTD2NtEfwKirV0FtdMl2DCxQtgemBUPh9DFoWmxEfctYlP4IKAIfDmQ+rKf4b+T9VU/1rYNZGjuI9R1qIdrxW/OCL/69bB6UAc5on/I1eJf9+3/9FCjTsjx7rQPfT7I/+RLijRP+Rq8Sf9dLb/0UKWy48eapnq2mWh/8iXFAHRVj64wN/oqYzm7Y/lDJWwelYupMW1/SIzggefL+Shf/AGegB+ogf23pHTG6b/0CqOuD7P4p8Oz/ADASm5tSf96LzP8A2l+tXNWB/tbRHB4+0SIfxhkP/stVvGm2KDSbxiQbXU7dgR/tsYj+GJDQB0KfdGaWkXp0paACiiigArnPGa5TRmPRdUt/1JH9a6Oud8c5XS7OT/nnqVk3/kwg/rQB0Q6U12CjJ7Uo6Co7k7YJG9FJ/SgDB+HoK+C9EHrZxn81zXR1g+BBjwZoPvYQEfigNb1AHNaQSfHXiHI6WtkP1m/xrpa5zSB/xW3iE/8ATCzH6S10dAHP+O13+G5I/wDnpc2sf/fVxGP61vIQR9OK57xpultNNgVlBk1Wz4PcLMrkfkh/KuhjGBigB1FFFABRRRQBzd/gePNI/wCwbej8fMt61NP1E3c95CybHtp/KxuzuG1WB/EN+lZWst5XjHw85/5aRXcJ/FUb/wBkNS3sg0nXEv3OLa7VLec9o5AfkY+xyVPvtoA6Cuc1Ljx5oh/6cL0f+P29dCrFu2K53Ujnx5og/wCnC9P/AI/b/wCNAHSVzdx/yUOy/wCwVP8A+joq6SucuP8Akodj/wBgq4/9HQ0AdHUF1eW9nEZLiVY0BVdx6ZJwP1IqesPxS2/TmtFAMt3IkEY7kkjJ/AZb6KaAKiDd8Qyw6DScfnN/9Y1046VzNmDJ4+1A84g0y2X8WlnJ/wDQRXTDpQAUUUUAFFFFABRRRQAUUUUAFFFFABXL+KI5ZPEOgpBIIpXW8SOQjO1zDwce2M/hXUVzXilvs+reHLxv9XFqHlP7CSGSMf8AjzKPxoAbo+oW+h2iWV3p11YmMc7YXmRm6lvMUHOTzlsH1Fatr4h0u8nW3gut0rdE2MD+oq/5a5zzkVB58bXDQh0Z0K7lByRnoSKAKnimY23hrVZh1SzmYfUITU2gwC20PToAMCO2iT8kArP8euY/BWulT832CfHufLIH61s2alLSFCMFUA/IUAYeuKF8WeHJdpOftUOfTMYb/wBkroC6om5jgCuf8SMU1/wwc8NeyofxtpT/AErfb5Y/XA/OgDF1PxNZxFIrGeK9u3yEt4XBJPTLEZ2KD1J+nJwKr3mntp3hLVvPl3zSW08003QM5Q5PsB0A7AAVsWv2W5MskPlN82HaPHLDg59x0rL8eSmPwbq0SDMlxbtaRgdS8v7tQPfLCgDR0BDHomnxt95baIH/AL5FaFRWsawwJEv3UUIPoBipaACiiigAooooA5zxUudX8Mtj7upH9beYV0dc74syL7w6/Yaon6xSj+tdFQAVzulgN431xucrZ2SH0+9Of610Vc5ogLeL/EcnYC1j/KMn/wBmoAd47IXQfMP/ACzvLN/yuY66EHNc38QlJ8Jagw/5ZiOX/vmRW/pXSDpQAHpXN68Q/ifw0gGSstxJ+ULD/wBmrpD0rmdQzN470aMH/UWN3Mw9MtCo/wDZvyoA6VelLSJ90ZpaACiiigAooooAiu/+PWb/AHG/lWL4B/5EjQv+vCH/ANAFbV0M20v+6f5Vi+Am3eCdDbAGbGHgdvkFAEvhxiYL5jji/uR+UhH9Kq6N+98YeIZCM+XHaRA/RWb/ANmq14a/49rz3vrr/wBHNVbwx+81vxPN2N9FGP8AgNtD/UmgDoxwBXO/EKLzfBGuKOospW/JSf6V0VZPiuE3PhnV4B1ksp0H4oRQBpo4kjVhyGAINZ3hr/kFt/19XP8A6PepdCl+0aHYTf8APS2jb81BqLw1/wAgtv8Ar6uf/R70AUfCpzqXiY+mq4/8loK6Kub8IHN/4mJ76u3/AKTwV0lABRRRQAUHpRTJnWKJ5GOFVSxPsKAOJsz5/hbUQqKhv9Wntx33Brnys/8AfIz+FduvyoPauJ8PRsfDHhJGBLXUqXTj3aOSY5/E1245WgDJ8NAfZLo/3r25P/kZh/SmXwCeJ9LkJxviniH1+Rv/AGU1L4aH/EulPreXX/pRJUXiICF9Ovcc297Hnjs4MZ/9Dz+FAFbx3/yC7H/sK2H/AKVR0/x8p/4QnXTjpYzN+SE0zxzzplgP+opYf+lMdTeOxv8ABGvAd9Pn/wDRZoA2bdg0SEf3RWTAftfie7lPKWVukC+zOd7/AKCOtC2cpaRscY2A/oKzfDBaWwa/I+a/me557qThP/HAlADtNOPE2sD/AKZWx/8ARn+FFzi28UWch4W6t5YOe7qQ4H5bz+FLYLjxNqnvb2x/WWk8UxMumG9j5ksZFu1A6kJyw+pTcPxoAp6UfsvjTXbXPFxBa3oAHch4j+kS10w6CuXeRV8dWUyY8u80uVQ3ZjHJGQPykY11A6D6UAFFFFABXOeN28zTrG3GCZ9Ts0x6gTqx/RTXR1zXiYifV/DlpwS2oGUg/wB1IJTn89v50AaHiObyPDuoyL1W1lI+uw1etovJtIowBlEVcfQVleKfn0j7PkZuJ4YMeoeVVP6E1uDpQBjaaoi17Vk7sIJPzQr/AOy1sHpWMhEPiu5XDZuLKJh6fI7g/wDoQrZbpQBzuh8+KPEn/XW3/wDRK021cf8ACwr9R1/sq2P/AJGnp2gf8jN4lP8A03gH/kBaZCCPiJcn+9pMP6TSf40AdMaxTmbxVCCuRBZOfoXkUfyjNbRrG08eZ4k1OUfdSGCHPv8AOxH5MPzoAXxEVihs7hsj7PeQMMf7TCM/o5qr8QAT4Q1GZBlrVBdr9YmEn/stW/FMbyaFf+WMyJCZEHqy4YfqBUuowRavotzAG3xXds6ZH8SspH8jQBficPGrKdwIzn1p9Y/g+7a+8KaRcv8Afks4i312DP61sUAFFFFABXO/EBWHhHUZ0GWtkW6H1jYSf+y10VUNdtRf6Pe2ZGVuLeSI/wDAlI/rQBdRgyKynIIyPpVfUsiyuGHaNj+hqn4TvDqHhjSbps7prOJ2z6lBmrmqcaddf9cX/kaAM7wOMeC9AHpptt/6KWtusXwT/wAiZoH/AGDrb/0UtbVAHOaQR/wmviD/AK42n8pK6Oub0hv+K38QJxxb2Z9znzf8K6SgDmfEwFxrXhq0X75v3uGHqqQSZ/8AHmSulQYHTFc5IftPj+0XgraaZM5Ho0ksYB/KNxXSUAFFFFABQaKKAOZ8Tjyda8MTY5OoPFn0DW039VFdBNbQ3dvJBPEkkcilHVhkMD1BrC8at5SaLP3i1a2A/wCBsYz+jmuhTlaAOdA1Dw2u2QTX2mKPlkX5prdewI5Mij1HzeoPWop7mG68a6DNDKkscmm3rq6HIYGS2wQfSuneMOACSMHNchBpn9m+PbSNGHkNaXssSDOIwz2xYfiwY/8AAqAOxrm7k/8AFwbIcf8AIKnOf+20NdJXNXQz8QrEZ66Tc/8Ao6GgC3qHiKzhka2tWkvLxTg29sN7A+jHov1Yim6dp13Pdrqmq7fPUEQQI25LcEYJzxuY9zjA6DuSn/CNLZNI2l391Y+Y7SNGpEkZYnJO1gcZJycEU5JNftWVJBp97GSAXXfC4Hc7fmBP4igCtpJ3+ONeI6LaWS/rMf6/rXSVzPgrE51q8kJN1NqUySkjoIzsRR7BFU/Uk966agAooooAKKKKACiiigAooooAKKKKACsXxZpVzq+h3VvZlRdqUntyxwPNjdZEyew3KAfY1tUjfdP0oA5XRvFN3eadDfXOnTS286llltQXKHJBR487lYEEHG7kdulOlbS9av4zbXN5a6ljasqRPFIFHJVg64I9iDzyKoeC9KuNR0dmm1S4itzd3hWC1xGQTcy5DPy2foR+NdLaeHNNsZ0uIoGM65/eySNI/PXliTQBzvie21OS3tNDuL6G6/tSZYPkg8tljUh5HY7iPuKV4AGWFdon3RXO6ySvjLw+TnY8F5H7bsRsP0Vq6JOFH0oA5zx2ksOkxapApeXSp1vgg6ui5EgHv5bPj3xUk1jfXdqZ7vWyLIx78WMRi3LjOd2Wbkf3SDV/xAdui374yVt5Tj1+U8VB4bto5PCOlW0gWWM2EKNkZDDywKAKdjrGmWNuttptpeSxLwkdvaPtH/AiAo/E9c1l3s2pa/4h0/SJ4I7aCOSPUpYt250jjbKBiDtBaQDAGRhG5rdPhPT4wPsb3liRyPs1w6KP+AZK/mKytEjuLTx3qVvc3IuidNtSspjCtgSzgBscZ69AB7UAdci7RjGKdRRQAUUUUAFFFFAHNeNi0cOkzKM+Xqtpk+gaQJ/7NXSjpXN/EE+X4VvZQ214fLlRuyssisCfQAgEn0BrUttasruQxQXdtJIGKlFkBYEdRjPWgDQrnfDvzeIfEp9LqJfw+zx/410CnIzXN+FWMmt+J5DgZv0Tb3GLeIZ/HtQBL4/Ut4J1/A5Gnzn8oya27Z/MjRvVQaxvHUoj8Ha6SeDp9wvuSYyB+pArXsUMVrFG33lQA/XAoAsHoa5ux/0nx5qcpGRa6fbwqfQu8jMPyVK3bi5S2RpJXjjjUZLOcAfU1g+EmW61LxDf5B82/wDJXH92KKNP/Qgx/GgDpaKKKACiiigAooooAjuBmCQeqmsP4frt8E6GD2sYR+Sit6QZQj2rA8AHPg3ShnO2AL+RI/pQBZ8O/wDHnckd766/9HvVPwcGNx4hkb+PVpP0jiX/ANlq54cP+gXB/wCn67/9HvVXwS3mWmpyd21S7/SQr/7LQB0VVr5PMtZkwDujYc+4qzUVwMqR6gigDI8FSmbwjoknTNjDnH+4Kn8MnOlk/wDTzc/+j5Ko/D8FfBWioTkpaIhz7DH9KveGyDpr4GALq5/9HvQBQ8ILi68Qt/e1WT9Ioh/SukrnfBp3JrD/AN7Vbn9G2/8AstdFQAUUUUAFY3i+6ay8Maxcr96KymcfUISP1rZrm/Hx8zw3Nag4N7NBZjPfzZUQ/oxoAZYWot73QNPQYFnYO+PTCxxj9GaumH3axrD9/wCJdQkHK28EVuDjoxy7D8ih/GtoigDI8L5GmyA9ftd1/wClElTa9YtfaTeQIcO8TbD/AHWAyp/AgH8Kj8NjFjP/ANfl1/6PetRvun6UAcn4ku11Dw/o90DxPf6fJj0zNGa0/Ga7/B+tj1sJ/wD0Wa525ynhnS4Cc/Z9Zgt/wS7Cj9AK6rxHH5/hvVIv79nKv5oaAKOrTtH4UaSJiHlt1jQj+84Cj9SK27aBLa2igjAVI0CKB2AGBXOM/wBr0Lw4gOBPJbOc9CFTzP5qK6cD5RQBkWRB8T6pj/n2tv5y1qTxrLDJG4yrqVI9QRWTp/8AyM+rD/phbfzlrZboaAOG8x4rfwfcuN0sN0bCVuuAYpEP/j6LXdDoK4PV8weHr+Un/kF6yl2cDognSVv/ABx2rvB0FABRRRQAVzd6BP490mMgEQWN1N7hi0Sg/kWrpK5q2Pn+P791IK2umwR/RnklY/oi0AW9eJkvdItlCkyXe8gj+FEZs/8AfQX862hWKzfafFag/dtLIn6GR+PxxGfzraFAGJqR8nxJpcpIAling+pIVx/6A1bLdBWP4lAiSyvf+fS7iY8fwufLP6OT+FbLfdxQBz3h/nxD4lb/AKeYR/5ASkUhfHwGOX0o/wDjsw/+KpfDhJ13xN7XkQ/8l4qbKNvj+zbcPm0ucY78Sxf40AdJWL4bJlbUrknPn3smDjsmIx/6BWjf3qWFpPcyfchjaQ/QAn+lVfDdq1po1nHJ/rfKDye7t8zH8yaANF1DqQwBBGCKxfDBI0OC3flrbdatnrmNin8hn8RW4eAaw9Mxaa7qVoeFuNl3HnocjY4H0KqT/vUAVvAbeXojWRJzY3lzbc9lWZtv/jpWulrmvDYFvr/iS0JGftkdyo/2XhQf+hI9dLQAUUUUAFNcE9AD9adQelAHNeAv3WhfYifmsbq4tPwSZwv/AI6Frb1QgaddZ/54v/I1yOm69baJq/iNLmO5W3TUPM81YmdI8wRE525I5JOSAOa6a5k/tPS5xC6FZoDsYdDuU4P60AV/BP8AyJmgf9g62/8ARS1tVieDZ0m8J6I0YwhsYMDHTEY4/StugDnNLGPHev8AobOxP6zj+ldHXO6ewfx1rJXPyWNmjemd05/QEfnWnqOtWGlOqXl7bwM6llSRwGYDrgdT1HT1oAydGH2rxlr92QMQJbWK/wDAVaU/+jh+VdLXL+CpVupdbu03f6RqTvhlIIAijVeDyPlCnHvXUUAFFFFABRRRQBznj6Nx4ckvYhl9Oli1Db/fELB2X8VUge5FXG8S6PAirJqEHmkA+UrbpOf9gZbv6VF43jeXwdraRglzYThQOpPltS2ukw31jaTxXdzboYVOLdlUPkDBJwSTj3oAktdYkvblY4dOvhEc7ppkESqPYMQx/L8apTuJfHlmkYDG302YznHKb5YvLB+vlyY/3TV+30y4tLgONTupojndHOFbtxhgAR+tZwAX4gkQ5Bk0sNc+jbZcRH6/NNQB01c1eMI/iFprNkB9MukUnuwkgOB745rpa5i/jE/j7TElyyRafczRDsH3xKT9drEf8CNAG7fTSpbu9tCZ5VGRGHClvYE8Z+v6VRtfEdhKy20xksrluFgu08tmPopPD/8AASaludMuL2fcdTureIAARW+1cnuSxBPp0xUZ0mGyhmnlvLyeNI2YpPJvUEc7hkZB/GgCj8Pv33hxL8ghtRmlviSMEiRyy/kpUfhXS1g+BRt8HaIP+nCDj/tmtb1ABRRRQAUUUUAFFFFABRRRQAUUUUAFB6GikbO0460AeXXt5rei+M9bg0W7tYLVokungngMqGU4DMpDKVJyuR0JBOMkk3h4k8VtJAiSaPibABNvJnBlZM48z/ZLfSqviCSSy8UX9xdWt0tvPHCqTR20kiPho92SikDARuuOoxnNUhrunpNpp+1KTDFEJAFbIYeeWGMZPLJ270Aafg++1bxH4pjn1ee2kFnYiaCO3hMaq0oXJOWYnC8Dp1PrXo6jCgeled/DOGeTVbu7NvOlv9it4RLJE0alwOVG4AnGByOOetei0ARzRiVCpAZW4IPQivJfDXiDxLZ6ZHZWt5p8lva7oIlnt33KivGqgsHGcCUDOB933r1uQkYIxivFdLv7e1N5bG4gS4X7X+4kcLIG8yEgFScjO0kZHI5FAHS/8JN4tllt4xcaPF54UqRaSNjLSA5/eDp5f/jwrU+Gkk9/Y32q38iz6hc3bpLMF2jYhIRVXJ2qAemTyxPUmsG41HTbKSwludQs4Fid9xeZV4Fw3qf7rE/Stv4VI6+HWZgdr3crISOGGQMj1GRweh7UAdvRRRQAUUUUAFFFFAFXUbeK6tJ4JoVnikjZXiYZDgggg/UZFcp4L0G3v9E0LVruSS5uRZwSKXb5UcRjnHUnJPJzXaFQa4Lwv4q0/RLafQrm4hSewuZ4VQzRhgm9mT5Swb7hXt/9YA2vEkk1tc2ksss8emJua48gkMrZBVmx8xQfNnGOvORnDPCkyz614mljYMj30e1l5BH2aHBH51JL4t07DtIxKqDyWQDv3Lfh+NVvA17b6hd6/cWjxvA9+NhjZWXiCIEZUkduxoAveNoEuPCuso6kj7DMQR1BCMQR7gjI98VB4QvrzULecXcqzmJ1AlAxnciuVI9V3YyOvHfNbOr24udLvIiCfMgkTHrlSK4zwV4s0S08OWAW6iMssMckwEyMVkcAtkBsjBzwQCOBQBs3Xg+NtVfUYFsy0zh5VurcTcjAJUkgqcD1I74HOU8AYbSLmU/6yXULxpD6kXDr+gUAewqKb4j6HCcPdQr7yTRpxxz8zD1PT0NWPh9G6+FrKZ0KNdK12VIwQZXaQ/8AoVAHSUUUUAFFFFABRRRQAjsFQk9BXNeAZUj8LW0TMAY5biMDv8szr/SulcAqQa4LUfC+r+H79tR8PSSXEDyM8lpkB0DOXcLkhXUszHaSCCx2sB8tAHSeHZFTT7ktwBe3Z/8AI71W8C4Ok3bD+LUr0/8AkxJXLWt34g1+F7DR4rrT7Zrmd7i6urZoSu6ZjhQ2GY4I+6AP9sYwe60DSYtE01LKKSSXaWd5ZDlpHZizMccDLEnAwOeAKANKkYZ7UtFAHM+AJN3he1jJ+aN5o+f9mZ1/pVzw5KqadLuOMXl0P/I71yt9DrPgfUTfWRa70N5HaSNsk2oZizEgAkruYkMASAcMCAGSjFrmo+IRJpPhh4ZozdTvPfRufLiVpnOCw46EHCncQR937wAOu8EOsllqDKCN2qX3fOcXDg/yrpKyfDujpoenR2azPO+55ZJnADSSOxd2wOBlmY4HA6VrUAFFFFABXN+LyZLnQLXGfO1WInHokckufzjFdJXN+JdP1ifWNK1DTIrGcWImLR3UzxDe6hQwKo3Qbx0/ioA1dN037A1y7Sb3uJmmY4x1wAPwAUfhV81zDeI9fsctqHhiRoweZdPuVuMD12sEY/QAmhviF4eSKZm1OCGWKMv9nuMwzHAzjY4DE/hQBd8KZbS/MbrJcXLj6GdyP5ito9DXMaTrujaHollBfazpsMscKh/MuUX5sZPU+uacvxE8LOCF12wkYcERSb//AEHNAGXqYVbURr0XxHD+sqsf511+oxGfTbmLH34XX8wRXEatr+gXs2nWul38c1zc6xbzmLJDMQwJIBHQBc/hXfKS0eT6UAcno8clx4U8ITRoZPKitnfb2UwFSfw3CuuHK1wfhXxRaaP4csNNvbbVluLOP7NIF0y5cDYSucrGQeB1GRWz/wAJ94cVhFcapFaOTtxdo1v/AOjAKALduUh8UXq4OZrOBgf915Af/Qh+da55TjuK5qfWNOl1vT7y21GzlhaKaGSSOZWVc7WUkg4x8p/E1LP478PwSGFNThuphx5VkGuX/wC+YwxH5UAWPEOlJeeH9YtVjVXvbaVHIHLExlcn3xgfhVnw9fjU9B029H/LzaxTc/7SA/1rJbxLrF4C2neF754yPlkvJY7ZT9QSXH4rVrwfp13pOg2dheiJZYFZQsblgqbiVXcQM4XaM4GcUAbtFFFABXM+HGM2t+JbkgnN6kCnttSGP/2Zmrpq4uwtPE+jDUI49L0y9iubye5z9veORldyQMGIgEKVHXt2oA2PDiC7+36lncLu5by29Y0ARcex2sw/3q3K5S18VW+i20VrqmkX2ixxKEjZ4/OhCgYH7yPcFAA/j21pWfi7Q7+PzbbWdNmTuUuFOPrzx+NAFzWLD+1NMurPdtM0ZRWH8J7H8Dz+FN0i/Gpafb3QXaZYwxX+63cfgRj8KoXPjvwxaHE3iHSkI6j7UhI/AGqNp4u8K6fBi31eExSO8oxuZQWYk4IHAySaALHhsldc8TkjGb6PHuPs0VF/mPx1pEmMB9PvI/qd8BH8jVXwVfW+p33iO8tZ0ngm1BfLkQ5BxbxA4+hyKd4suP7P1jQdUeO5a2glmilMFvJMyh4yR8qAnGVAzjHIoAv+JM3EVtpyk/6fOsTY6+WPmf8AAqpH41tqu3gDArlW8YaCbpLiVdRikRSiyTaXcoApxn5mjA5IHftWhaeNPDt+22313THbps+0IGz9Cc0Abh6Vi61ZzR3FjqNshklt5Njoo5eJ8Bh+BCt/wH3qW78T6JYxGW51fT4UHeS4Rf5ms4eNrS8AGlafqeqt2NtblYz9JZNqH8CaAEj/ANF8fuOAt9pitjvuhlIz+Uw/KunrkIF13VPE+m6hcaRHpttaRzRuZLpZJXDgfLtUEDlVOd1dfQAUUUUAFFFFAHIT6dazfETM1tC/m6cJP3iBg7pLgMM9CobGeuGA7CrXio3Uz2+mJOtlbXyvE10FywcjhAcgKSMkE5+7gYOKj8YT/wBk3Gm6/v2JY3AjuSen2eX5WJPYBtjk9glPu/GnhWW0eSfXtGliUbipuoznHPTPXIoAn8EXBuvC2lO0McTLbrEyIMKrINpAHYZU49q3657wDbvb+D9HWQEO1qkjBuoLjcQfxNdDQBw91dz6d8RpFtypju7a1E0RHLEtOAynsQqkn1Cn2rodW0u31BVmmQiSEN5cqOUdD/vKQcHAyO9YeoSWGn/EOG51G5itxcWA+ztLIFBeN3DDkjJ2zjj61P4s8T2NvpNxbWWpWj6hdL9mtYVlUs0sh2qQoOSAWyfQA0AT/DyBU8J6dcks097ELy4kY5MksgDM2fqePQADtXS1U0vTodK061soP9VbQpCn0UAD9BVugAooooAKKKKAIbyOOa3eOUAxuCrA9CCORXF+DPHXh238N6dZXWuWKTW8XkAyyCMyKhKK43YyGABB6HNdtPgpg/8A66888H3/AIXg0W20zUNQsbe/tA9nLFLc+U4Ckxj5SwPKqpB/KgDrW8aeGlGTr+lY/wCvqP8AxrC0vxPo2pfEC5Wx1GC5E+nQojRNuVmSSUsoI4yAwOK0XTwpan7S95YRgMrh2ugFyvA74x6+vfNZFreaNqPirSI9Dnju0tfOM8tuzSog2ELuk5GcscAnPPSgDva5PW9VsLPx7oUVzeW8MrWV3hJJApILQ44J77T+R9K6yuA8QtoS+NrpPEZt4bW406CKKS6OyNmDz7gGPGQHB65Gcj1oA7hLyCQbklVh6g5Fc54+8R6fp3hHVydRtYpntZI4w0qg7mUgcE+pqgnhn4fXaloF0N1ZlYGPyGAxjgcHg459ayvEWn+CfDujX72Mmmrfm2kSCKORFeWQqQoCLjcSTjgUAehaVHBFYW8VsVMKRIsZU5BUDjHtirlUtItFsNPtrVPuwwpGv0AwP5VdoAKKKKACiiigAooooAKKKKACiiigAooooAKKKKACiiigAqpe6XZ6iAt5Z21yo7TRK4/UVbooAoWug6XYPvs9NsrY+sUCof0FXwMDFFFABRRRQAUUUUAFFFFABVS50uzvcfarO2nH/TWMN/OrdFAGSPCfh9TkaFpYPqLWPP8AKtC3t0t0CRRpGgHCooAH4VNRQAHpWfPoWmXjl7rTbKdz1aSFWJ/MVoUUAUIND022IaDT7OEjoY4VX+Qq+OPpRRQAUUUUAFFFFABRRRQAUUUUAFFFNdgnJoAdRUayhjjvSs+3vQASHK4qG1iS2QRRJGiZJ2oAAD36U8vkHpx6Hp9aaqYPG7GegHc+9AFjPOKKagIHPWnUAFFFFABRRRQAVBdWcF4hjuIYpoz1SVAwP4Gp6KAM+30DSrN99rpdjA3rHAqn9BV9RgYpaKACiiigAIzTXQOhUgMCMYI4NOooAyn8L6HK5kk0XTHc/wATWyE/mRV62tIbOMRW8McMY6LGoUD8BU9FABRRRQAUUUUAFFFFABWddeH9KvnEl3ptlcSZ+9LArn8yK0aKAK9tY29muy3ghhX0jUKP0qxRRQAUEZoooAQgVVu9Ksr/AIvLO2uR6TRhx+oq3RQBm2vh3SLGXzbTSrC3kBzuit0Q/mBWlRRQAUUUUAFFFFABRRRQAhGRiq39n23nCb7NAZBzv2Ddn61aooAQcAUtFFAFe7sLe+j8q7t4biPOdkqBl/IioLTQ9N09t1lp1nbH/pjCqfyFX6KAAUUE4Gai88ZoAlpCcUm7AzmmeZkjpz+ZoAN565GPTvipM4quV3HILDjBIGcipUBHt9aAJKgurKC8XZcQRTJ/dkQMP1qeigDLXwxocT74tF01HznctsgP5gVpRoI0CgAAcACnUUAFNeNZFKuAykYIPQinUUAZkvhrRZyTNo+nSe726Mf1FS2ei6dpzbrKwtLUnr5MSp/IVeooAKKKKACiiigAooooAKKKKACiiigAooooAKKKKACiiigAooooACcUm4UUUAG8Zpc0UUAFFFFABRRRQAUUUUAFFFFABRRRQAUUUUAFFFFABRRRQAUUUUAFFFFABRRRQAVFOCRgehoooAhHynLZAzT2JySMcHqR0oooAUDJAAAPf/PpUyKVGCaKKAFooooAKKKKACiiigAooooAKKKKACiiigAooooAKKKKACiiigBNwo3iiigA3A0uaKKACiiigAooooAKKKKACiiigAooooAKKKKACiiigAooooAKKKKACiiigAooooAbJyhqsVYHPOOT7UUUASdQoHPXAPrSDlcnHTr60UUASohU5J60+iigAooooAKKKKACiiigAooooAKKKKACiiigAooooAKKKKAP/9k=;" vertex="1" parent="1">
          <mxGeometry x="77" y="60" width="672.79" height="540" as="geometry" />
        </mxCell>
      </root>
    </mxGraphModel>
  </diagram>
</mxfile>
